<svg width="442" height="53" viewBox="0 0 442 53" fill="none" xmlns="http://www.w3.org/2000/svg">
<path d="M3.50218 7.39736H11.7753C14.1913 7.39736 16.2897 7.65725 18.0704 8.17703C19.8511 8.69681 21.3238 9.44278 22.4885 10.415C23.6629 11.3775 24.534 12.5518 25.1019 13.9379C25.6794 15.3144 25.9682 16.8641 25.9682 18.587C25.9682 20.2234 25.6842 21.7394 25.1163 23.1351C24.5484 24.5212 23.6821 25.7244 22.5174 26.7447C21.3527 27.7554 19.88 28.5495 18.0993 29.127C16.3186 29.6949 14.2202 29.9789 11.8042 29.9789L3.50218 29.9644V7.39736ZM12.9015 26.0083C14.2683 26.0083 15.4667 25.8351 16.4966 25.4885C17.5266 25.1324 18.3832 24.6319 19.0667 23.987C19.7597 23.3421 20.2795 22.5624 20.626 21.648C20.9725 20.7335 21.1458 19.7132 21.1458 18.587C21.1458 17.4801 20.9725 16.4839 20.626 15.5983C20.2795 14.7031 19.7597 13.9475 19.0667 13.3315C18.3832 12.7058 17.5266 12.2246 16.4966 11.8877C15.4667 11.5508 14.2683 11.3823 12.9015 11.3823H8.07912V26.0083H12.9015ZM29.982 7.39736H34.5878V29.9644H29.982V7.39736ZM38.8904 18.4715C38.8904 16.8833 39.1888 15.401 39.7856 14.0245C40.3824 12.6385 41.2535 11.4353 42.3989 10.415C43.5444 9.39466 44.9497 8.59092 46.6149 8.00377C48.2898 7.41661 50.2053 7.12303 52.3614 7.12303C53.141 7.12303 53.9207 7.16635 54.7004 7.25298C55.4897 7.32998 56.2645 7.45511 57.0249 7.62837C57.795 7.80163 58.541 8.02302 59.2629 8.29253C59.9944 8.55242 60.6875 8.86525 61.342 9.23102L59.234 12.6962C58.8394 12.4652 58.3918 12.2583 57.8912 12.0754C57.3907 11.8829 56.8517 11.724 56.2742 11.5989C55.7062 11.4641 55.1143 11.3631 54.4982 11.2957C53.8918 11.2283 53.2806 11.1946 52.6646 11.1946C51.24 11.1946 49.9694 11.3775 48.8529 11.7433C47.7363 12.0994 46.793 12.6048 46.023 13.2593C45.2529 13.9042 44.6658 14.6791 44.2615 15.5839C43.8572 16.4887 43.6551 17.4801 43.6551 18.5582C43.6551 19.6747 43.8668 20.6998 44.2904 21.6335C44.7139 22.5672 45.3155 23.3709 46.0952 24.0447C46.8748 24.7185 47.8181 25.2479 48.9251 25.6329C50.032 26.0083 51.2689 26.196 52.6357 26.196C53.7234 26.196 54.7196 26.0757 55.6244 25.8351C56.5292 25.5848 57.3185 25.2335 57.9923 24.7811C58.6661 24.3287 59.2148 23.7848 59.6383 23.1495C60.0618 22.5046 60.3409 21.7827 60.4757 20.9838H52.5924V17.2154H64.5906V17.2298L64.605 17.2154C64.8457 18.3705 64.9179 19.4967 64.8216 20.594C64.735 21.6816 64.4847 22.7116 64.0708 23.6838C63.6666 24.6463 63.1083 25.5319 62.396 26.3404C61.6837 27.1489 60.8318 27.8468 59.8404 28.434C58.849 29.0115 57.7228 29.4639 56.4618 29.7912C55.2009 30.1088 53.8196 30.2676 52.3181 30.2676C50.2197 30.2676 48.3379 29.9596 46.6727 29.3436C45.0171 28.7275 43.6118 27.8853 42.4567 26.8169C41.3016 25.7484 40.4161 24.4971 39.8001 23.0629C39.1936 21.6287 38.8904 20.0982 38.8904 18.4715ZM69.4274 7.39736H74.0333V29.9644H69.4274V7.39736ZM86.6812 11.4112H78.3503V7.39736H99.589V11.4112H91.2581V29.9644H86.6812V11.4112ZM112.179 7.39736H117.031L127.946 29.9644H123.138L121.333 26.1671H108.151L106.404 29.9644H101.582L112.179 7.39736ZM119.528 22.3987L114.648 12.1476L109.898 22.3987H119.528ZM131.454 7.39736H136.031V25.9506H149.156V29.9644H131.454V7.39736ZM163.421 7.39736H174.899C176.632 7.39736 178.133 7.58024 179.404 7.94601C180.675 8.30216 181.729 8.82194 182.566 9.50535C183.403 10.1888 184.024 11.0214 184.428 12.0032C184.842 12.985 185.049 14.0967 185.049 15.3384C185.049 16.1758 184.948 16.9748 184.746 17.7352C184.544 18.486 184.231 19.179 183.808 19.8143C183.394 20.4496 182.869 21.0175 182.234 21.518C181.599 22.0089 180.853 22.418 179.996 22.7453L184.905 29.9644H179.303L175.058 23.5538H174.928L167.998 23.5394V29.9644H163.421V7.39736ZM175.015 19.5833C175.881 19.5833 176.637 19.4822 177.282 19.2801C177.936 19.0779 178.48 18.794 178.913 18.4282C179.356 18.0624 179.683 17.6197 179.895 17.0999C180.116 16.5705 180.227 15.9833 180.227 15.3384C180.227 14.0775 179.794 13.1053 178.927 12.4219C178.061 11.7288 176.757 11.3823 175.015 11.3823H167.998V19.5833H175.015ZM190.478 7.39736H209.695V11.4112H195.055V15.916H208.021V19.6843H195.055V25.965H209.999V29.9644H190.478V7.39736ZM215.095 7.39736H219.672L227.873 15.6272L236.074 7.39736H240.651V29.9644H236.074V13.7358L227.873 21.6335L219.672 13.7358V29.9644H215.095V7.39736ZM246.499 7.39736H251.105V29.9644H246.499V7.39736ZM263.752 11.4112H255.422V7.39736H276.66V11.4112H268.329V29.9644H263.752V11.4112ZM288.355 11.4112H280.024V7.39736H301.263V11.4112H292.932V29.9644H288.355V11.4112ZM313.853 7.39736H318.705L329.62 29.9644H324.812L323.007 26.1671H309.825L308.078 29.9644H303.256L313.853 7.39736ZM321.202 22.3987L316.322 12.1476L311.572 22.3987H321.202ZM333.1 7.39736H337.677L351.739 14.7609V7.39736H356.316V29.9644H351.739V19.6122L337.677 12.2919V29.9644H333.1V7.39736ZM361.326 18.5437C361.326 16.9363 361.63 15.4395 362.236 14.0534C362.843 12.6577 363.718 11.4497 364.864 10.4294C366.019 9.39947 367.424 8.59092 369.08 8.00377C370.745 7.41661 372.627 7.12303 374.725 7.12303C376.564 7.12303 378.248 7.31073 379.779 7.68612C381.319 8.05189 382.748 8.61499 384.067 9.37541L381.959 12.8406C381.564 12.5807 381.107 12.3497 380.587 12.1476C380.077 11.9454 379.528 11.777 378.941 11.6422C378.364 11.4978 377.762 11.3871 377.136 11.3101C376.52 11.2331 375.909 11.1946 375.303 11.1946C373.84 11.1946 372.535 11.3775 371.39 11.7433C370.245 12.0994 369.277 12.6048 368.488 13.2593C367.708 13.9042 367.111 14.6791 366.698 15.5839C366.293 16.479 366.091 17.4657 366.091 18.5437C366.091 19.6603 366.303 20.6854 366.726 21.6191C367.15 22.5528 367.761 23.3613 368.56 24.0447C369.369 24.7185 370.35 25.2479 371.505 25.6329C372.67 26.0083 373.984 26.196 375.447 26.196C376.111 26.196 376.771 26.1479 377.425 26.0516C378.08 25.9554 378.71 25.8254 379.317 25.6618C379.933 25.4885 380.525 25.2864 381.093 25.0554C381.66 24.8148 382.19 24.5549 382.681 24.2757L384.789 27.7409C383.557 28.5302 382.132 29.1511 380.515 29.6035C378.898 30.0462 377.18 30.2676 375.361 30.2676C373.041 30.2676 371.005 29.9692 369.253 29.3724C367.501 28.766 366.038 27.9382 364.864 26.8891C363.69 25.8303 362.804 24.5886 362.207 23.164C361.62 21.7298 361.326 20.1897 361.326 18.5437ZM389.842 7.39736H409.059V11.4112H394.419V15.916H407.385V19.6843H394.419V25.965H409.363V29.9644H389.842V7.39736ZM415.499 23.2506C416.317 23.7126 417.145 24.1313 417.982 24.5067C418.829 24.8725 419.705 25.1853 420.61 25.4452C421.515 25.6955 422.463 25.888 423.454 26.0228C424.456 26.1575 425.519 26.2249 426.645 26.2249C428.003 26.2249 429.158 26.1383 430.111 25.965C431.063 25.7821 431.838 25.5367 432.435 25.2287C433.042 24.911 433.479 24.5356 433.749 24.1025C434.028 23.6693 434.168 23.1977 434.168 22.6875C434.168 21.8693 433.826 21.2244 433.143 20.7528C432.459 20.2715 431.405 20.0309 429.981 20.0309C429.355 20.0309 428.696 20.0742 428.003 20.1608C427.31 20.2378 426.607 20.3244 425.895 20.4207C425.192 20.517 424.494 20.6084 423.801 20.695C423.118 20.772 422.473 20.8105 421.866 20.8105C420.856 20.8105 419.883 20.6806 418.95 20.4207C418.026 20.1608 417.203 19.771 416.481 19.2512C415.768 18.7314 415.201 18.0817 414.777 17.302C414.354 16.5224 414.142 15.6127 414.142 14.5732C414.142 13.9572 414.224 13.3459 414.387 12.7395C414.56 12.1331 414.83 11.5556 415.196 11.0069C415.571 10.4487 416.052 9.93369 416.64 9.46204C417.227 8.98076 417.934 8.56686 418.762 8.22034C419.599 7.87382 420.562 7.60431 421.65 7.4118C422.747 7.20966 423.994 7.10859 425.389 7.10859C426.4 7.10859 427.415 7.16635 428.436 7.28185C429.456 7.38773 430.447 7.54174 431.41 7.74388C432.382 7.94601 433.316 8.19147 434.211 8.48023C435.106 8.75937 435.939 9.0722 436.709 9.41872L434.702 13.1149C434.067 12.8358 433.383 12.5807 432.652 12.3497C431.92 12.1091 431.155 11.9021 430.356 11.7288C429.557 11.5556 428.729 11.4208 427.873 11.3246C427.026 11.2187 426.159 11.1658 425.274 11.1658C424.013 11.1658 422.973 11.2572 422.155 11.4401C421.346 11.623 420.702 11.8588 420.22 12.1476C419.739 12.4267 419.402 12.7443 419.21 13.1005C419.027 13.447 418.935 13.7935 418.935 14.14C418.935 14.8138 419.239 15.3673 419.845 15.8004C420.451 16.224 421.375 16.4357 422.617 16.4357C423.118 16.4357 423.69 16.402 424.335 16.3347C424.99 16.2577 425.673 16.1758 426.385 16.0892C427.107 16.0026 427.839 15.9256 428.58 15.8582C429.331 15.7812 430.058 15.7427 430.76 15.7427C432.089 15.7427 433.263 15.8919 434.283 16.1903C435.313 16.4887 436.175 16.917 436.868 17.4753C437.561 18.0239 438.085 18.6929 438.441 19.4822C438.798 20.2619 438.976 21.1378 438.976 22.11C438.976 23.4094 438.672 24.5693 438.066 25.5896C437.469 26.6003 436.613 27.457 435.496 28.1596C434.389 28.8527 433.051 29.3821 431.482 29.7478C429.913 30.104 428.166 30.2821 426.241 30.2821C424.971 30.2821 423.729 30.2002 422.516 30.0366C421.303 29.8826 420.138 29.6612 419.022 29.3724C417.915 29.0741 416.856 28.7227 415.846 28.3185C414.844 27.9046 413.916 27.4522 413.059 26.9613L415.499 23.2506Z" fill="black"/>
<path d="M2.90973 40.3474H4.81V45.5087C4.81 45.9324 4.86795 46.31 4.98384 46.6417C5.09974 46.9694 5.27158 47.2472 5.49937 47.475C5.73116 47.7028 6.0169 47.8766 6.35659 47.9965C6.69628 48.1124 7.09192 48.1703 7.54351 48.1703C7.9911 48.1703 8.38475 48.1124 8.72444 47.9965C9.06812 47.8766 9.35386 47.7028 9.58166 47.475C9.81345 47.2472 9.98729 46.9694 10.1032 46.6417C10.2191 46.31 10.277 45.9324 10.277 45.5087V40.3474H12.1773V45.7365C12.1773 46.352 12.0734 46.9115 11.8656 47.415C11.6578 47.9186 11.356 48.3502 10.9604 48.7098C10.5648 49.0695 10.0792 49.3473 9.50373 49.5431C8.93225 49.7389 8.27884 49.8368 7.54351 49.8368C6.80818 49.8368 6.15278 49.7389 5.5773 49.5431C5.00582 49.3473 4.52226 49.0695 4.12662 48.7098C3.73098 48.3502 3.42926 47.9186 3.22144 47.415C3.01363 46.9115 2.90973 46.352 2.90973 45.7365V40.3474ZM14.2754 42.6434H16.0498V43.2428C16.5213 42.9751 16.9709 42.7872 17.3985 42.6793C17.8302 42.5714 18.2518 42.5175 18.6634 42.5175C19.2029 42.5175 19.7024 42.5974 20.162 42.7573C20.6216 42.9131 21.0192 43.1469 21.3549 43.4586C21.6906 43.7703 21.9524 44.16 22.1402 44.6275C22.3321 45.0911 22.428 45.6286 22.428 46.2401V49.7169H20.6596V46.5278C20.6596 46.1402 20.6036 45.7945 20.4917 45.4908C20.3838 45.183 20.226 44.9253 20.0182 44.7175C19.8143 44.5057 19.5646 44.3458 19.2688 44.2379C18.9771 44.126 18.6494 44.0701 18.2857 44.0701C18.0939 44.0701 17.8961 44.09 17.6923 44.13C17.4925 44.17 17.2946 44.2279 17.0988 44.3038C16.907 44.3758 16.7212 44.4677 16.5413 44.5796C16.3615 44.6875 16.1976 44.8114 16.0498 44.9513V49.7169H14.2754V42.6434ZM24.562 39.772H26.3364V43.3088C26.4923 43.2008 26.6761 43.0989 26.8879 43.003C27.0997 42.9071 27.3275 42.8232 27.5713 42.7513C27.8151 42.6793 28.0668 42.6234 28.3266 42.5834C28.5864 42.5395 28.8461 42.5175 29.1059 42.5175C29.7053 42.5175 30.2548 42.6054 30.7544 42.7812C31.2579 42.9571 31.6895 43.2048 32.0492 43.5246C32.4089 43.8443 32.6886 44.2279 32.8884 44.6755C33.0923 45.1191 33.1942 45.6107 33.1942 46.1502C33.1942 46.7137 33.0883 47.2232 32.8765 47.6788C32.6647 48.1304 32.3709 48.518 31.9953 48.8417C31.6236 49.1614 31.18 49.4092 30.6645 49.585C30.1529 49.7569 29.5974 49.8428 28.998 49.8428C28.7422 49.8428 28.4885 49.8268 28.2367 49.7948C27.9889 49.7629 27.7491 49.7189 27.5173 49.663C27.2895 49.607 27.0737 49.5411 26.8699 49.4651C26.6701 49.3852 26.4923 49.2993 26.3364 49.2074V49.7169H24.562V39.772ZM26.3364 47.4929C26.5162 47.6368 26.7061 47.7587 26.9059 47.8586C27.1057 47.9585 27.3095 48.0404 27.5173 48.1044C27.7251 48.1683 27.935 48.2163 28.1468 48.2483C28.3586 48.2762 28.5644 48.2902 28.7642 48.2902C29.1718 48.2902 29.5335 48.2363 29.8492 48.1284C30.1689 48.0165 30.4367 47.8646 30.6525 47.6728C30.8723 47.481 31.0401 47.2552 31.156 46.9954C31.2719 46.7356 31.3299 46.4539 31.3299 46.1502C31.3299 45.8664 31.2719 45.5987 31.156 45.3469C31.0441 45.0951 30.8803 44.8753 30.6645 44.6875C30.4527 44.4957 30.1949 44.3458 29.8912 44.2379C29.5914 44.126 29.2538 44.0701 28.8781 44.0701C28.6383 44.0701 28.3985 44.094 28.1588 44.142C27.919 44.186 27.6872 44.2499 27.4634 44.3338C27.2436 44.4177 27.0358 44.5196 26.84 44.6395C26.6481 44.7594 26.4803 44.8933 26.3364 45.0412V47.4929ZM34.501 47.4869C34.501 47.1473 34.5749 46.8375 34.7228 46.5578C34.8706 46.278 35.0924 46.0383 35.3882 45.8384C35.6839 45.6346 36.0516 45.4788 36.4912 45.3709C36.9348 45.259 37.4503 45.203 38.0378 45.203C38.4734 45.203 38.9309 45.235 39.4105 45.2989C39.8941 45.3629 40.3916 45.4608 40.9032 45.5927C40.8832 45.3689 40.8152 45.1631 40.6993 44.9752C40.5834 44.7834 40.4216 44.6196 40.2138 44.4837C40.01 44.3438 39.7622 44.2359 39.4705 44.16C39.1827 44.084 38.855 44.0461 38.4874 44.0461C38.2875 44.0461 38.0677 44.0581 37.828 44.082C37.5882 44.106 37.3404 44.142 37.0846 44.1899C36.8289 44.2379 36.5751 44.2978 36.3233 44.3698C36.0755 44.4417 35.8438 44.5276 35.628 44.6275L35.0884 43.1709C35.3562 43.075 35.6419 42.987 35.9457 42.9071C36.2534 42.8272 36.5671 42.7593 36.8868 42.7033C37.2065 42.6434 37.5262 42.5974 37.8459 42.5654C38.1656 42.5335 38.4754 42.5175 38.7751 42.5175C40.0979 42.5175 41.081 42.8552 41.7244 43.5305C42.3678 44.2059 42.6895 45.241 42.6895 46.6357V49.7169H40.9151V49.0515C40.7313 49.1594 40.5295 49.2613 40.3097 49.3572C40.0939 49.4532 39.8581 49.5371 39.6023 49.609C39.3466 49.681 39.0708 49.7369 38.7751 49.7769C38.4834 49.8208 38.1736 49.8428 37.8459 49.8428C37.2944 49.8428 36.8089 49.7829 36.3893 49.663C35.9736 49.5431 35.626 49.3772 35.3462 49.1654C35.0665 48.9536 34.8547 48.7058 34.7108 48.4221C34.5709 48.1344 34.501 47.8226 34.501 47.4869ZM36.3713 47.427C36.3713 47.5429 36.4013 47.6548 36.4612 47.7627C36.5211 47.8666 36.6171 47.9605 36.7489 48.0444C36.8808 48.1244 37.0487 48.1903 37.2525 48.2423C37.4603 48.2902 37.7101 48.3142 38.0018 48.3142C38.3135 48.3142 38.6152 48.2862 38.907 48.2303C39.1987 48.1743 39.4705 48.1004 39.7222 48.0085C39.974 47.9166 40.2018 47.8107 40.4056 47.6908C40.6094 47.5709 40.7793 47.447 40.9151 47.3191V47.0074C40.6434 46.9315 40.3736 46.8675 40.1059 46.8156C39.8421 46.7636 39.5884 46.7236 39.3446 46.6957C39.1048 46.6637 38.877 46.6417 38.6612 46.6297C38.4494 46.6177 38.2636 46.6117 38.1037 46.6117C37.772 46.6117 37.4963 46.6337 37.2765 46.6777C37.0567 46.7216 36.8788 46.7816 36.7429 46.8575C36.6071 46.9295 36.5112 47.0154 36.4552 47.1153C36.3993 47.2152 36.3713 47.3191 36.3713 47.427ZM45.0394 42.6434H46.8138V43.2428C47.2853 42.9751 47.7349 42.7872 48.1625 42.6793C48.5942 42.5714 49.0158 42.5175 49.4274 42.5175C49.9669 42.5175 50.4665 42.5974 50.926 42.7573C51.3856 42.9131 51.7833 43.1469 52.1189 43.4586C52.4546 43.7703 52.7164 44.16 52.9042 44.6275C53.0961 45.0911 53.192 45.6286 53.192 46.2401V49.7169H51.4236V46.5278C51.4236 46.1402 51.3676 45.7945 51.2557 45.4908C51.1478 45.183 50.99 44.9253 50.7822 44.7175C50.5784 44.5057 50.3286 44.3458 50.0328 44.2379C49.7411 44.126 49.4134 44.0701 49.0497 44.0701C48.8579 44.0701 48.6601 44.09 48.4563 44.13C48.2565 44.17 48.0586 44.2279 47.8628 44.3038C47.671 44.3758 47.4852 44.4677 47.3053 44.5796C47.1255 44.6875 46.9616 44.8114 46.8138 44.9513V49.7169H45.0394V42.6434ZM55.38 39.772H57.1544V45.6466L60.4634 42.6434H63.1789L59.4802 45.9523L63.4127 49.7169H60.7511L58.1195 47.1692L57.1544 48.0325V49.7169H55.38V39.772ZM64.2459 46.1562C64.2459 45.6766 64.3438 45.219 64.5396 44.7834C64.7355 44.3438 65.0172 43.9562 65.3849 43.6205C65.7525 43.2848 66.2021 43.017 66.7337 42.8172C67.2692 42.6174 67.8766 42.5175 68.556 42.5175C69.2314 42.5175 69.8388 42.6194 70.3783 42.8232C70.9218 43.023 71.3814 43.2988 71.7571 43.6504C72.1367 44.0021 72.4265 44.4157 72.6263 44.8913C72.8301 45.3669 72.932 45.8764 72.932 46.4199C72.932 46.4879 72.93 46.5618 72.926 46.6417C72.926 46.7176 72.922 46.7876 72.914 46.8515H66.2241C66.3 47.0633 66.4219 47.2572 66.5898 47.433C66.7616 47.6088 66.9754 47.7607 67.2312 47.8886C67.487 48.0165 67.7827 48.1164 68.1184 48.1883C68.4541 48.2562 68.8257 48.2902 69.2334 48.2902C69.641 48.2902 70.0466 48.2483 70.4503 48.1643C70.8539 48.0764 71.2396 47.9665 71.6072 47.8346L72.2067 49.1894C71.9749 49.2973 71.7391 49.3932 71.4993 49.4771C71.2635 49.5571 71.0158 49.625 70.756 49.681C70.5002 49.7329 70.2305 49.7729 69.9467 49.8008C69.667 49.8288 69.3713 49.8428 69.0595 49.8428C68.2643 49.8428 67.5669 49.7469 66.9674 49.5551C66.368 49.3632 65.8664 49.1015 65.4628 48.7698C65.0592 48.4381 64.7555 48.0484 64.5516 47.6008C64.3478 47.1533 64.2459 46.6717 64.2459 46.1562ZM71.0497 45.4668C70.9858 45.271 70.8859 45.0891 70.75 44.9213C70.6181 44.7494 70.4523 44.6016 70.2524 44.4777C70.0526 44.3498 69.8208 44.2499 69.5571 44.178C69.2933 44.106 69.0036 44.0701 68.6879 44.0701C68.3522 44.0701 68.0465 44.108 67.7707 44.184C67.495 44.2599 67.2532 44.3618 67.0454 44.4897C66.8376 44.6176 66.6637 44.7654 66.5238 44.9333C66.388 45.1011 66.2881 45.279 66.2241 45.4668H71.0497ZM74.2988 46.2101C74.2988 45.6466 74.4047 45.1391 74.6165 44.6875C74.8283 44.2319 75.12 43.8443 75.4917 43.5246C75.8673 43.2008 76.3109 42.9531 76.8225 42.7812C77.338 42.6054 77.8955 42.5175 78.495 42.5175C78.7507 42.5175 79.0025 42.5335 79.2503 42.5654C79.502 42.5974 79.7418 42.6414 79.9696 42.6973C80.2014 42.7533 80.4172 42.8212 80.617 42.9011C80.8208 42.9771 81.0007 43.061 81.1565 43.1529V39.772H82.9309V49.7169H81.1565V49.0515C81.0007 49.1594 80.8168 49.2613 80.605 49.3572C80.3932 49.4532 80.1654 49.5371 79.9217 49.609C79.6779 49.681 79.4241 49.7369 79.1603 49.7769C78.9006 49.8208 78.6428 49.8428 78.3871 49.8428C77.7876 49.8428 77.2361 49.7549 76.7326 49.579C76.233 49.4032 75.8034 49.1554 75.4437 48.8357C75.0841 48.516 74.8023 48.1344 74.5985 47.6908C74.3987 47.2432 74.2988 46.7496 74.2988 46.2101ZM76.1631 46.2101C76.1631 46.4939 76.219 46.7616 76.3309 47.0134C76.4468 47.2651 76.6107 47.4869 76.8225 47.6788C77.0383 47.8666 77.296 48.0165 77.5958 48.1284C77.8995 48.2363 78.2392 48.2902 78.6148 48.2902C78.8546 48.2902 79.0944 48.2682 79.3342 48.2243C79.574 48.1763 79.8038 48.1104 80.0236 48.0265C80.2474 47.9425 80.4552 47.8406 80.647 47.7207C80.8428 47.6008 81.0127 47.467 81.1565 47.3191V44.8673C80.9767 44.7235 80.7869 44.6016 80.587 44.5017C80.3872 44.4018 80.1834 44.3198 79.9756 44.2559C79.7678 44.1919 79.558 44.146 79.3462 44.118C79.1344 44.086 78.9286 44.0701 78.7287 44.0701C78.3211 44.0701 77.9574 44.126 77.6377 44.2379C77.322 44.3458 77.0543 44.4957 76.8345 44.6875C76.6187 44.8793 76.4528 45.1051 76.3369 45.3649C76.221 45.6246 76.1631 45.9064 76.1631 46.2101ZM89.3391 39.1066H90.8797V52.6063H89.3391V39.1066ZM97.2039 40.3474H99.1042V45.5087C99.1042 45.9324 99.1621 46.31 99.278 46.6417C99.3939 46.9694 99.5658 47.2472 99.7936 47.475C100.025 47.7028 100.311 47.8766 100.651 47.9965C100.99 48.1124 101.386 48.1703 101.838 48.1703C102.285 48.1703 102.679 48.1124 103.019 47.9965C103.362 47.8766 103.648 47.7028 103.876 47.475C104.108 47.2472 104.281 46.9694 104.397 46.6417C104.513 46.31 104.571 45.9324 104.571 45.5087V40.3474H106.471V45.7365C106.471 46.352 106.368 46.9115 106.16 47.415C105.952 47.9186 105.65 48.3502 105.255 48.7098C104.859 49.0695 104.373 49.3473 103.798 49.5431C103.226 49.7389 102.573 49.8368 101.838 49.8368C101.102 49.8368 100.447 49.7389 99.8715 49.5431C99.3 49.3473 98.8165 49.0695 98.4208 48.7098C98.0252 48.3502 97.7235 47.9186 97.5156 47.415C97.3078 46.9115 97.2039 46.352 97.2039 45.7365V40.3474ZM108.57 42.6434H110.344V43.2428C110.816 42.9751 111.265 42.7872 111.693 42.6793C112.124 42.5714 112.546 42.5175 112.958 42.5175C113.497 42.5175 113.997 42.5974 114.456 42.7573C114.916 42.9131 115.313 43.1469 115.649 43.4586C115.985 43.7703 116.247 44.16 116.434 44.6275C116.626 45.0911 116.722 45.6286 116.722 46.2401V49.7169H114.954V46.5278C114.954 46.1402 114.898 45.7945 114.786 45.4908C114.678 45.183 114.52 44.9253 114.312 44.7175C114.109 44.5057 113.859 44.3458 113.563 44.2379C113.271 44.126 112.944 44.0701 112.58 44.0701C112.388 44.0701 112.19 44.09 111.986 44.13C111.787 44.17 111.589 44.2279 111.393 44.3038C111.201 44.3758 111.015 44.4677 110.836 44.5796C110.656 44.6875 110.492 44.8114 110.344 44.9513V49.7169H108.57V42.6434ZM118.359 46.2101C118.359 45.6466 118.465 45.1391 118.676 44.6875C118.888 44.2319 119.18 43.8443 119.552 43.5246C119.927 43.2008 120.371 42.9531 120.882 42.7812C121.398 42.6054 121.955 42.5175 122.555 42.5175C122.811 42.5175 123.062 42.5335 123.31 42.5654C123.562 42.5974 123.802 42.6414 124.03 42.6973C124.261 42.7533 124.477 42.8212 124.677 42.9011C124.881 42.9771 125.061 43.061 125.216 43.1529V39.772H126.991V49.7169H125.216V49.0515C125.061 49.1594 124.877 49.2613 124.665 49.3572C124.453 49.4532 124.225 49.5371 123.982 49.609C123.738 49.681 123.484 49.7369 123.22 49.7769C122.96 49.8208 122.703 49.8428 122.447 49.8428C121.848 49.8428 121.296 49.7549 120.792 49.579C120.293 49.4032 119.863 49.1554 119.504 48.8357C119.144 48.516 118.862 48.1344 118.658 47.6908C118.459 47.2432 118.359 46.7496 118.359 46.2101ZM120.223 46.2101C120.223 46.4939 120.279 46.7616 120.391 47.0134C120.507 47.2651 120.671 47.4869 120.882 47.6788C121.098 47.8666 121.356 48.0165 121.656 48.1284C121.959 48.2363 122.299 48.2902 122.675 48.2902C122.915 48.2902 123.154 48.2682 123.394 48.2243C123.634 48.1763 123.864 48.1104 124.083 48.0265C124.307 47.9425 124.515 47.8406 124.707 47.7207C124.903 47.6008 125.073 47.467 125.216 47.3191V44.8673C125.037 44.7235 124.847 44.6016 124.647 44.5017C124.447 44.4018 124.243 44.3198 124.036 44.2559C123.828 44.1919 123.618 44.146 123.406 44.118C123.194 44.086 122.988 44.0701 122.789 44.0701C122.381 44.0701 122.017 44.126 121.698 44.2379C121.382 44.3458 121.114 44.4957 120.894 44.6875C120.679 44.8793 120.513 45.1051 120.397 45.3649C120.281 45.6246 120.223 45.9064 120.223 46.2101ZM128.831 46.1562C128.831 45.6766 128.929 45.219 129.125 44.7834C129.321 44.3438 129.602 43.9562 129.97 43.6205C130.338 43.2848 130.787 43.017 131.319 42.8172C131.854 42.6174 132.462 42.5175 133.141 42.5175C133.817 42.5175 134.424 42.6194 134.964 42.8232C135.507 43.023 135.967 43.2988 136.342 43.6504C136.722 44.0021 137.012 44.4157 137.212 44.8913C137.415 45.3669 137.517 45.8764 137.517 46.4199C137.517 46.4879 137.515 46.5618 137.511 46.6417C137.511 46.7176 137.507 46.7876 137.499 46.8515H130.809C130.885 47.0633 131.007 47.2572 131.175 47.433C131.347 47.6088 131.561 47.7607 131.816 47.8886C132.072 48.0165 132.368 48.1164 132.704 48.1883C133.039 48.2562 133.411 48.2902 133.819 48.2902C134.226 48.2902 134.632 48.2483 135.035 48.1643C135.439 48.0764 135.825 47.9665 136.192 47.8346L136.792 49.1894C136.56 49.2973 136.324 49.3932 136.085 49.4771C135.849 49.5571 135.601 49.625 135.341 49.681C135.085 49.7329 134.816 49.7729 134.532 49.8008C134.252 49.8288 133.956 49.8428 133.645 49.8428C132.849 49.8428 132.152 49.7469 131.553 49.5551C130.953 49.3632 130.452 49.1015 130.048 48.7698C129.644 48.4381 129.341 48.0484 129.137 47.6008C128.933 47.1533 128.831 46.6717 128.831 46.1562ZM135.635 45.4668C135.571 45.271 135.471 45.0891 135.335 44.9213C135.203 44.7494 135.037 44.6016 134.838 44.4777C134.638 44.3498 134.406 44.2499 134.142 44.178C133.879 44.106 133.589 44.0701 133.273 44.0701C132.937 44.0701 132.632 44.108 132.356 44.184C132.08 44.2599 131.838 44.3618 131.631 44.4897C131.423 44.6176 131.249 44.7654 131.109 44.9333C130.973 45.1011 130.873 45.279 130.809 45.4668H135.635ZM139.43 42.6434H141.204V43.6624C141.596 43.3707 142.009 43.1189 142.445 42.9071C142.88 42.6953 143.314 42.5335 143.746 42.4216L144.267 44.0461C143.584 44.114 142.982 44.2679 142.463 44.5077C141.947 44.7434 141.528 45.0771 141.204 45.5087V49.7169H139.43V42.6434ZM145.544 39.772H147.318V43.3088C147.474 43.2008 147.658 43.0989 147.87 43.003C148.082 42.9071 148.309 42.8232 148.553 42.7513C148.797 42.6793 149.049 42.6234 149.309 42.5834C149.568 42.5395 149.828 42.5175 150.088 42.5175C150.687 42.5175 151.237 42.6054 151.736 42.7812C152.24 42.9571 152.671 43.2048 153.031 43.5246C153.391 43.8443 153.671 44.2279 153.87 44.6755C154.074 45.1191 154.176 45.6107 154.176 46.1502C154.176 46.7137 154.07 47.2232 153.858 47.6788C153.647 48.1304 153.353 48.518 152.977 48.8417C152.606 49.1614 152.162 49.4092 151.646 49.585C151.135 49.7569 150.579 49.8428 149.98 49.8428C149.724 49.8428 149.47 49.8268 149.219 49.7948C148.971 49.7629 148.731 49.7189 148.499 49.663C148.271 49.607 148.056 49.5411 147.852 49.4651C147.652 49.3852 147.474 49.2993 147.318 49.2074V49.7169H145.544V39.772ZM147.318 47.4929C147.498 47.6368 147.688 47.7587 147.888 47.8586C148.088 47.9585 148.291 48.0404 148.499 48.1044C148.707 48.1683 148.917 48.2163 149.129 48.2483C149.34 48.2762 149.546 48.2902 149.746 48.2902C150.154 48.2902 150.515 48.2363 150.831 48.1284C151.151 48.0165 151.419 47.8646 151.634 47.6728C151.854 47.481 152.022 47.2552 152.138 46.9954C152.254 46.7356 152.312 46.4539 152.312 46.1502C152.312 45.8664 152.254 45.5987 152.138 45.3469C152.026 45.0951 151.862 44.8753 151.646 44.6875C151.435 44.4957 151.177 44.3458 150.873 44.2379C150.573 44.126 150.236 44.0701 149.86 44.0701C149.62 44.0701 149.38 44.094 149.141 44.142C148.901 44.186 148.669 44.2499 148.445 44.3338C148.226 44.4177 148.018 44.5196 147.822 44.6395C147.63 44.7594 147.462 44.8933 147.318 45.0412V47.4929ZM155.483 47.4869C155.483 47.1473 155.557 46.8375 155.705 46.5578C155.853 46.278 156.074 46.0383 156.37 45.8384C156.666 45.6346 157.033 45.4788 157.473 45.3709C157.917 45.259 158.432 45.203 159.02 45.203C159.455 45.203 159.913 45.235 160.392 45.2989C160.876 45.3629 161.374 45.4608 161.885 45.5927C161.865 45.3689 161.797 45.1631 161.681 44.9752C161.565 44.7834 161.404 44.6196 161.196 44.4837C160.992 44.3438 160.744 44.2359 160.452 44.16C160.165 44.084 159.837 44.0461 159.469 44.0461C159.269 44.0461 159.05 44.0581 158.81 44.082C158.57 44.106 158.322 44.142 158.067 44.1899C157.811 44.2379 157.557 44.2978 157.305 44.3698C157.057 44.4417 156.826 44.5276 156.61 44.6275L156.07 43.1709C156.338 43.075 156.624 42.987 156.928 42.9071C157.235 42.8272 157.549 42.7593 157.869 42.7033C158.188 42.6434 158.508 42.5974 158.828 42.5654C159.148 42.5335 159.457 42.5175 159.757 42.5175C161.08 42.5175 162.063 42.8552 162.706 43.5305C163.35 44.2059 163.671 45.241 163.671 46.6357V49.7169H161.897V49.0515C161.713 49.1594 161.511 49.2613 161.292 49.3572C161.076 49.4532 160.84 49.5371 160.584 49.609C160.328 49.681 160.053 49.7369 159.757 49.7769C159.465 49.8208 159.156 49.8428 158.828 49.8428C158.276 49.8428 157.791 49.7829 157.371 49.663C156.956 49.5431 156.608 49.3772 156.328 49.1654C156.048 48.9536 155.837 48.7058 155.693 48.4221C155.553 48.1344 155.483 47.8226 155.483 47.4869ZM157.353 47.427C157.353 47.5429 157.383 47.6548 157.443 47.7627C157.503 47.8666 157.599 47.9605 157.731 48.0444C157.863 48.1244 158.031 48.1903 158.234 48.2423C158.442 48.2902 158.692 48.3142 158.984 48.3142C159.295 48.3142 159.597 48.2862 159.889 48.2303C160.181 48.1743 160.452 48.1004 160.704 48.0085C160.956 47.9166 161.184 47.8107 161.388 47.6908C161.591 47.5709 161.761 47.447 161.897 47.3191V47.0074C161.625 46.9315 161.356 46.8675 161.088 46.8156C160.824 46.7636 160.57 46.7236 160.326 46.6957C160.087 46.6637 159.859 46.6417 159.643 46.6297C159.431 46.6177 159.245 46.6117 159.086 46.6117C158.754 46.6117 158.478 46.6337 158.258 46.6777C158.039 46.7216 157.861 46.7816 157.725 46.8575C157.589 46.9295 157.493 47.0154 157.437 47.1153C157.381 47.2152 157.353 47.3191 157.353 47.427ZM166.021 42.6434H167.796V43.2428C168.267 42.9751 168.717 42.7872 169.144 42.6793C169.576 42.5714 169.998 42.5175 170.409 42.5175C170.949 42.5175 171.448 42.5974 171.908 42.7573C172.368 42.9131 172.765 43.1469 173.101 43.4586C173.437 43.7703 173.698 44.16 173.886 44.6275C174.078 45.0911 174.174 45.6286 174.174 46.2401V49.7169H172.405V46.5278C172.405 46.1402 172.35 45.7945 172.238 45.4908C172.13 45.183 171.972 44.9253 171.764 44.7175C171.56 44.5057 171.31 44.3458 171.015 44.2379C170.723 44.126 170.395 44.0701 170.032 44.0701C169.84 44.0701 169.642 44.09 169.438 44.13C169.238 44.17 169.041 44.2279 168.845 44.3038C168.653 44.3758 168.467 44.4677 168.287 44.5796C168.107 44.6875 167.944 44.8114 167.796 44.9513V49.7169H166.021V42.6434ZM176.362 39.772H178.136V45.6466L181.445 42.6434H184.161L180.462 45.9523L184.395 49.7169H181.733L179.101 47.1692L178.136 48.0325V49.7169H176.362V39.772ZM185.228 46.1562C185.228 45.6766 185.326 45.219 185.522 44.7834C185.717 44.3438 185.999 43.9562 186.367 43.6205C186.734 43.2848 187.184 43.017 187.716 42.8172C188.251 42.6174 188.859 42.5175 189.538 42.5175C190.213 42.5175 190.821 42.6194 191.36 42.8232C191.904 43.023 192.363 43.2988 192.739 43.6504C193.119 44.0021 193.408 44.4157 193.608 44.8913C193.812 45.3669 193.914 45.8764 193.914 46.4199C193.914 46.4879 193.912 46.5618 193.908 46.6417C193.908 46.7176 193.904 46.7876 193.896 46.8515H187.206C187.282 47.0633 187.404 47.2572 187.572 47.433C187.744 47.6088 187.957 47.7607 188.213 47.8886C188.469 48.0165 188.765 48.1164 189.1 48.1883C189.436 48.2562 189.808 48.2902 190.215 48.2902C190.623 48.2902 191.029 48.2483 191.432 48.1643C191.836 48.0764 192.221 47.9665 192.589 47.8346L193.189 49.1894C192.957 49.2973 192.721 49.3932 192.481 49.4771C192.245 49.5571 191.998 49.625 191.738 49.681C191.482 49.7329 191.212 49.7729 190.929 49.8008C190.649 49.8288 190.353 49.8428 190.041 49.8428C189.246 49.8428 188.549 49.7469 187.949 49.5551C187.35 49.3632 186.848 49.1015 186.445 48.7698C186.041 48.4381 185.737 48.0484 185.534 47.6008C185.33 47.1533 185.228 46.6717 185.228 46.1562ZM192.032 45.4668C191.968 45.271 191.868 45.0891 191.732 44.9213C191.6 44.7494 191.434 44.6016 191.234 44.4777C191.035 44.3498 190.803 44.2499 190.539 44.178C190.275 44.106 189.985 44.0701 189.67 44.0701C189.334 44.0701 189.028 44.108 188.753 44.184C188.477 44.2599 188.235 44.3618 188.027 44.4897C187.819 44.6176 187.646 44.7654 187.506 44.9333C187.37 45.1011 187.27 45.279 187.206 45.4668H192.032ZM195.281 46.2101C195.281 45.6466 195.387 45.1391 195.598 44.6875C195.81 44.2319 196.102 43.8443 196.474 43.5246C196.849 43.2008 197.293 42.9531 197.804 42.7812C198.32 42.6054 198.877 42.5175 199.477 42.5175C199.733 42.5175 199.984 42.5335 200.232 42.5654C200.484 42.5974 200.724 42.6414 200.952 42.6973C201.183 42.7533 201.399 42.8212 201.599 42.9011C201.803 42.9771 201.983 43.061 202.138 43.1529V39.772H203.913V49.7169H202.138V49.0515C201.983 49.1594 201.799 49.2613 201.587 49.3572C201.375 49.4532 201.147 49.5371 200.904 49.609C200.66 49.681 200.406 49.7369 200.142 49.7769C199.882 49.8208 199.625 49.8428 199.369 49.8428C198.77 49.8428 198.218 49.7549 197.714 49.579C197.215 49.4032 196.785 49.1554 196.426 48.8357C196.066 48.516 195.784 48.1344 195.58 47.6908C195.381 47.2432 195.281 46.7496 195.281 46.2101ZM197.145 46.2101C197.145 46.4939 197.201 46.7616 197.313 47.0134C197.429 47.2651 197.593 47.4869 197.804 47.6788C198.02 47.8666 198.278 48.0165 198.578 48.1284C198.881 48.2363 199.221 48.2902 199.597 48.2902C199.837 48.2902 200.076 48.2682 200.316 48.2243C200.556 48.1763 200.786 48.1104 201.005 48.0265C201.229 47.9425 201.437 47.8406 201.629 47.7207C201.825 47.6008 201.995 47.467 202.138 47.3191V44.8673C201.959 44.7235 201.769 44.6016 201.569 44.5017C201.369 44.4018 201.165 44.3198 200.958 44.2559C200.75 44.1919 200.54 44.146 200.328 44.118C200.116 44.086 199.91 44.0701 199.711 44.0701C199.303 44.0701 198.939 44.126 198.62 44.2379C198.304 44.3458 198.036 44.4957 197.816 44.6875C197.601 44.8793 197.435 45.1051 197.319 45.3649C197.203 45.6246 197.145 45.9064 197.145 46.2101ZM210.321 39.1066H211.862V52.6063H210.321V39.1066ZM218.534 40.3474H220.434V42.7932H226.26V40.3474H228.167V49.7169H226.26V44.4177H220.434V49.7169H218.534V40.3474ZM231.542 41.6782C231.366 41.6782 231.206 41.6543 231.062 41.6063C230.922 41.5543 230.802 41.4864 230.702 41.4025C230.603 41.3146 230.525 41.2147 230.469 41.1028C230.417 40.9869 230.391 40.865 230.391 40.7371C230.391 40.6052 230.417 40.4833 230.469 40.3714C230.525 40.2555 230.603 40.1556 230.702 40.0717C230.802 39.9878 230.922 39.9218 231.062 39.8739C231.206 39.8219 231.366 39.7959 231.542 39.7959C231.722 39.7959 231.881 39.8219 232.021 39.8739C232.165 39.9218 232.287 39.9878 232.387 40.0717C232.487 40.1556 232.563 40.2555 232.615 40.3714C232.671 40.4833 232.699 40.6052 232.699 40.7371C232.699 40.865 232.671 40.9869 232.615 41.1028C232.563 41.2147 232.487 41.3146 232.387 41.4025C232.287 41.4864 232.165 41.5543 232.021 41.6063C231.881 41.6543 231.722 41.6782 231.542 41.6782ZM230.654 42.6434H232.429V49.7169H230.654V42.6434ZM235.816 50.9158C236.04 50.9958 236.267 51.0617 236.499 51.1136C236.731 51.1696 236.955 51.2136 237.171 51.2455C237.39 51.2815 237.6 51.3055 237.8 51.3175C238 51.3334 238.178 51.3414 238.333 51.3414C238.805 51.3414 239.215 51.2835 239.562 51.1676C239.914 51.0557 240.206 50.9038 240.438 50.712C240.673 50.5202 240.849 50.2964 240.965 50.0406C241.081 49.7889 241.139 49.5211 241.139 49.2374V48.9316C240.987 49.0355 240.809 49.1354 240.605 49.2314C240.402 49.3273 240.178 49.4112 239.934 49.4831C239.69 49.5551 239.431 49.613 239.155 49.657C238.883 49.7009 238.601 49.7229 238.31 49.7229C237.73 49.7229 237.195 49.637 236.703 49.4651C236.211 49.2893 235.786 49.0455 235.426 48.7338C235.066 48.4181 234.785 48.0404 234.581 47.6008C234.381 47.1612 234.281 46.6737 234.281 46.1382C234.281 45.5907 234.387 45.0951 234.599 44.6515C234.811 44.2039 235.102 43.8223 235.474 43.5066C235.85 43.1909 236.293 42.9471 236.805 42.7752C237.316 42.6034 237.872 42.5175 238.471 42.5175C238.727 42.5175 238.981 42.5335 239.233 42.5654C239.484 42.5974 239.724 42.6414 239.952 42.6973C240.184 42.7533 240.4 42.8212 240.599 42.9011C240.803 42.9771 240.983 43.061 241.139 43.1529V42.6434H242.913V48.9077C242.913 49.5511 242.815 50.1206 242.62 50.6161C242.424 51.1116 242.136 51.5273 241.756 51.863C241.381 52.2027 240.913 52.4584 240.354 52.6303C239.794 52.8061 239.153 52.894 238.429 52.894C238.17 52.894 237.9 52.882 237.62 52.8581C237.34 52.8381 237.059 52.8061 236.775 52.7621C236.495 52.7222 236.217 52.6722 235.942 52.6123C235.67 52.5563 235.408 52.4904 235.156 52.4145L235.816 50.9158ZM236.145 46.1202C236.145 46.4039 236.201 46.6717 236.313 46.9235C236.429 47.1712 236.593 47.389 236.805 47.5769C237.017 47.7607 237.272 47.9066 237.572 48.0145C237.872 48.1184 238.21 48.1703 238.585 48.1703C238.829 48.1703 239.071 48.1483 239.311 48.1044C239.554 48.0564 239.786 47.9905 240.006 47.9066C240.23 47.8226 240.438 47.7207 240.629 47.6008C240.825 47.481 240.995 47.3471 241.139 47.1992V44.8673C240.959 44.7235 240.769 44.6016 240.569 44.5017C240.37 44.4018 240.166 44.3198 239.958 44.2559C239.75 44.1919 239.54 44.146 239.329 44.118C239.117 44.086 238.911 44.0701 238.711 44.0701C238.304 44.0701 237.94 44.124 237.62 44.2319C237.304 44.3398 237.037 44.4877 236.817 44.6755C236.601 44.8593 236.435 45.0751 236.319 45.3229C236.203 45.5707 236.145 45.8364 236.145 46.1202ZM244.933 39.778H246.708V43.1829C247.08 42.9791 247.493 42.8172 247.949 42.6973C248.408 42.5774 248.89 42.5175 249.393 42.5175C249.977 42.5175 250.5 42.6034 250.964 42.7752C251.432 42.9471 251.827 43.1949 252.151 43.5186C252.475 43.8383 252.722 44.2279 252.894 44.6875C253.07 45.1471 253.158 45.6646 253.158 46.2401V49.7169H251.39V46.312C251.39 45.9763 251.336 45.6706 251.228 45.3949C251.12 45.1151 250.962 44.8753 250.754 44.6755C250.546 44.4757 250.293 44.3218 249.993 44.2139C249.697 44.102 249.361 44.0461 248.986 44.0461C248.534 44.0461 248.115 44.118 247.727 44.2619C247.339 44.4058 247 44.5876 246.708 44.8074V49.7169H244.933V39.778ZM255.196 39.772H256.971V49.7169H255.196V39.772ZM260.094 50.6041C260.278 50.724 260.477 50.8299 260.693 50.9218C260.909 51.0137 261.133 51.0897 261.365 51.1496C261.6 51.2096 261.84 51.2535 262.084 51.2815C262.328 51.3135 262.569 51.3295 262.809 51.3295C263.625 51.3295 264.252 51.1536 264.692 50.8019C265.135 50.4542 265.357 49.9307 265.357 49.2314V48.9916C265.201 49.0995 265.025 49.1994 264.829 49.2913C264.638 49.3792 264.43 49.4552 264.206 49.5191C263.986 49.583 263.752 49.633 263.505 49.669C263.261 49.7009 263.013 49.7169 262.761 49.7169C262.222 49.7169 261.738 49.639 261.311 49.4831C260.887 49.3233 260.527 49.0915 260.232 48.7878C259.94 48.48 259.716 48.1024 259.56 47.6548C259.404 47.2072 259.326 46.6957 259.326 46.1202V42.6434H261.095V45.6286C261.095 46.4839 261.257 47.1153 261.58 47.5229C261.908 47.9265 262.424 48.1284 263.127 48.1284C263.623 48.1284 264.06 48.0424 264.44 47.8706C264.823 47.6948 265.129 47.471 265.357 47.1992V42.6434H267.131V48.9077C267.131 49.583 267.035 50.1685 266.844 50.6641C266.652 51.1636 266.372 51.5772 266.004 51.9049C265.641 52.2326 265.193 52.4764 264.662 52.6363C264.13 52.8001 263.527 52.882 262.851 52.882C262.192 52.882 261.576 52.8121 261.005 52.6722C260.433 52.5324 259.91 52.3425 259.434 52.1027L260.094 50.6041ZM273.725 40.3474H278.491C279.21 40.3474 279.834 40.4234 280.361 40.5752C280.889 40.7231 281.326 40.9389 281.674 41.2226C282.022 41.5064 282.28 41.8521 282.447 42.2597C282.619 42.6673 282.705 43.1289 282.705 43.6444C282.705 43.9921 282.663 44.3238 282.579 44.6395C282.495 44.9513 282.365 45.239 282.19 45.5028C282.018 45.7665 281.8 46.0023 281.536 46.2101C281.272 46.4139 280.963 46.5838 280.607 46.7196L282.645 49.7169H280.319L278.557 47.0553H278.503L275.626 47.0493V49.7169H273.725V40.3474ZM278.539 45.4068C278.899 45.4068 279.212 45.3649 279.48 45.281C279.752 45.197 279.978 45.0791 280.157 44.9273C280.341 44.7754 280.477 44.5916 280.565 44.3758C280.657 44.156 280.703 43.9122 280.703 43.6444C280.703 43.1209 280.523 42.7173 280.163 42.4335C279.804 42.1458 279.262 42.0019 278.539 42.0019H275.626V45.4068H278.539ZM284.402 46.1562C284.402 45.6766 284.5 45.219 284.695 44.7834C284.891 44.3438 285.173 43.9562 285.541 43.6205C285.908 43.2848 286.358 43.017 286.889 42.8172C287.425 42.6174 288.032 42.5175 288.712 42.5175C289.387 42.5175 289.995 42.6194 290.534 42.8232C291.078 43.023 291.537 43.2988 291.913 43.6504C292.292 44.0021 292.582 44.4157 292.782 44.8913C292.986 45.3669 293.088 45.8764 293.088 46.4199C293.088 46.4879 293.086 46.5618 293.082 46.6417C293.082 46.7176 293.078 46.7876 293.07 46.8515H286.38C286.456 47.0633 286.578 47.2572 286.745 47.433C286.917 47.6088 287.131 47.7607 287.387 47.8886C287.643 48.0165 287.938 48.1164 288.274 48.1883C288.61 48.2562 288.981 48.2902 289.389 48.2902C289.797 48.2902 290.202 48.2483 290.606 48.1643C291.01 48.0764 291.395 47.9665 291.763 47.8346L292.362 49.1894C292.131 49.2973 291.895 49.3932 291.655 49.4771C291.419 49.5571 291.171 49.625 290.912 49.681C290.656 49.7329 290.386 49.7729 290.102 49.8008C289.823 49.8288 289.527 49.8428 289.215 49.8428C288.42 49.8428 287.723 49.7469 287.123 49.5551C286.524 49.3632 286.022 49.1015 285.618 48.7698C285.215 48.4381 284.911 48.0484 284.707 47.6008C284.503 47.1533 284.402 46.6717 284.402 46.1562ZM291.205 45.4668C291.141 45.271 291.042 45.0891 290.906 44.9213C290.774 44.7494 290.608 44.6016 290.408 44.4777C290.208 44.3498 289.977 44.2499 289.713 44.178C289.449 44.106 289.159 44.0701 288.844 44.0701C288.508 44.0701 288.202 44.108 287.926 44.184C287.651 44.2599 287.409 44.3618 287.201 44.4897C286.993 44.6176 286.819 44.7654 286.68 44.9333C286.544 45.1011 286.444 45.279 286.38 45.4668H291.205ZM296.109 50.9158C296.333 50.9958 296.561 51.0617 296.792 51.1136C297.024 51.1696 297.248 51.2136 297.464 51.2455C297.684 51.2815 297.893 51.3055 298.093 51.3175C298.293 51.3334 298.471 51.3414 298.627 51.3414C299.098 51.3414 299.508 51.2835 299.856 51.1676C300.207 51.0557 300.499 50.9038 300.731 50.712C300.967 50.5202 301.142 50.2964 301.258 50.0406C301.374 49.7889 301.432 49.5211 301.432 49.2374V48.9316C301.28 49.0355 301.102 49.1354 300.899 49.2314C300.695 49.3273 300.471 49.4112 300.227 49.4831C299.983 49.5551 299.724 49.613 299.448 49.657C299.176 49.7009 298.894 49.7229 298.603 49.7229C298.023 49.7229 297.488 49.637 296.996 49.4651C296.505 49.2893 296.079 49.0455 295.719 48.7338C295.36 48.4181 295.078 48.0404 294.874 47.6008C294.674 47.1612 294.574 46.6737 294.574 46.1382C294.574 45.5907 294.68 45.0951 294.892 44.6515C295.104 44.2039 295.396 43.8223 295.767 43.5066C296.143 43.1909 296.587 42.9471 297.098 42.7752C297.61 42.6034 298.165 42.5175 298.765 42.5175C299.02 42.5175 299.274 42.5335 299.526 42.5654C299.778 42.5974 300.017 42.6414 300.245 42.6973C300.477 42.7533 300.693 42.8212 300.893 42.9011C301.096 42.9771 301.276 43.061 301.432 43.1529V42.6434H303.206V48.9077C303.206 49.5511 303.109 50.1206 302.913 50.6161C302.717 51.1116 302.429 51.5273 302.05 51.863C301.674 52.2027 301.206 52.4584 300.647 52.6303C300.087 52.8061 299.446 52.894 298.723 52.894C298.463 52.894 298.193 52.882 297.913 52.8581C297.634 52.8381 297.352 52.8061 297.068 52.7621C296.788 52.7222 296.511 52.6722 296.235 52.6123C295.963 52.5563 295.701 52.4904 295.45 52.4145L296.109 50.9158ZM296.439 46.1202C296.439 46.4039 296.495 46.6717 296.606 46.9235C296.722 47.1712 296.886 47.389 297.098 47.5769C297.31 47.7607 297.566 47.9066 297.865 48.0145C298.165 48.1184 298.503 48.1703 298.878 48.1703C299.122 48.1703 299.364 48.1483 299.604 48.1044C299.848 48.0564 300.079 47.9905 300.299 47.9066C300.523 47.8226 300.731 47.7207 300.923 47.6008C301.118 47.481 301.288 47.3471 301.432 47.1992V44.8673C301.252 44.7235 301.062 44.6016 300.863 44.5017C300.663 44.4018 300.459 44.3198 300.251 44.2559C300.043 44.1919 299.834 44.146 299.622 44.118C299.41 44.086 299.204 44.0701 299.004 44.0701C298.597 44.0701 298.233 44.124 297.913 44.2319C297.598 44.3398 297.33 44.4877 297.11 44.6755C296.894 44.8593 296.728 45.0751 296.612 45.3229C296.497 45.5707 296.439 45.8364 296.439 46.1202ZM305.227 42.6374H306.995V46.0902C306.995 46.4179 307.031 46.7176 307.103 46.9894C307.175 47.2572 307.297 47.4869 307.469 47.6788C307.644 47.8706 307.876 48.0205 308.164 48.1284C308.456 48.2323 308.817 48.2842 309.249 48.2842C309.453 48.2842 309.659 48.2622 309.866 48.2183C310.078 48.1743 310.28 48.1144 310.472 48.0384C310.664 47.9585 310.842 47.8646 311.005 47.7567C311.173 47.6488 311.317 47.5309 311.437 47.403V42.6374H313.211V49.7169H311.437V49.1115C311.001 49.3712 310.564 49.5571 310.124 49.669C309.685 49.7809 309.267 49.8368 308.871 49.8368C308.224 49.8368 307.668 49.7589 307.205 49.603C306.745 49.4472 306.368 49.2214 306.072 48.9256C305.78 48.6259 305.566 48.2602 305.43 47.8286C305.295 47.393 305.227 46.8975 305.227 46.342V42.6374ZM315.513 39.772H317.288V49.7169H315.513V39.772ZM319.23 47.4869C319.23 47.1473 319.304 46.8375 319.452 46.5578C319.6 46.278 319.821 46.0383 320.117 45.8384C320.413 45.6346 320.78 45.4788 321.22 45.3709C321.664 45.259 322.179 45.203 322.767 45.203C323.202 45.203 323.66 45.235 324.139 45.2989C324.623 45.3629 325.121 45.4608 325.632 45.5927C325.612 45.3689 325.544 45.1631 325.428 44.9752C325.312 44.7834 325.151 44.6196 324.943 44.4837C324.739 44.3438 324.491 44.2359 324.199 44.16C323.912 44.084 323.584 44.0461 323.216 44.0461C323.016 44.0461 322.797 44.0581 322.557 44.082C322.317 44.106 322.069 44.142 321.814 44.1899C321.558 44.2379 321.304 44.2978 321.052 44.3698C320.804 44.4417 320.573 44.5276 320.357 44.6275L319.817 43.1709C320.085 43.075 320.371 42.987 320.675 42.9071C320.982 42.8272 321.296 42.7593 321.616 42.7033C321.935 42.6434 322.255 42.5974 322.575 42.5654C322.895 42.5335 323.204 42.5175 323.504 42.5175C324.827 42.5175 325.81 42.8552 326.453 43.5305C327.097 44.2059 327.418 45.241 327.418 46.6357V49.7169H325.644V49.0515C325.46 49.1594 325.258 49.2613 325.039 49.3572C324.823 49.4532 324.587 49.5371 324.331 49.609C324.075 49.681 323.8 49.7369 323.504 49.7769C323.212 49.8208 322.903 49.8428 322.575 49.8428C322.023 49.8428 321.538 49.7829 321.118 49.663C320.703 49.5431 320.355 49.3772 320.075 49.1654C319.795 48.9536 319.584 48.7058 319.44 48.4221C319.3 48.1344 319.23 47.8226 319.23 47.4869ZM321.1 47.427C321.1 47.5429 321.13 47.6548 321.19 47.7627C321.25 47.8666 321.346 47.9605 321.478 48.0444C321.61 48.1244 321.778 48.1903 321.981 48.2423C322.189 48.2902 322.439 48.3142 322.731 48.3142C323.042 48.3142 323.344 48.2862 323.636 48.2303C323.928 48.1743 324.199 48.1004 324.451 48.0085C324.703 47.9166 324.931 47.8107 325.135 47.6908C325.338 47.5709 325.508 47.447 325.644 47.3191V47.0074C325.372 46.9315 325.103 46.8675 324.835 46.8156C324.571 46.7636 324.317 46.7236 324.073 46.6957C323.834 46.6637 323.606 46.6417 323.39 46.6297C323.178 46.6177 322.992 46.6117 322.833 46.6117C322.501 46.6117 322.225 46.6337 322.005 46.6777C321.786 46.7216 321.608 46.7816 321.472 46.8575C321.336 46.9295 321.24 47.0154 321.184 47.1153C321.128 47.2152 321.1 47.3191 321.1 47.427ZM330.835 43.9741H329.127V42.6434H330.835V40.4434H332.61V42.6434H334.318V43.9741H332.61V49.7169H330.835V43.9741ZM335.559 46.1562C335.559 45.6766 335.657 45.219 335.853 44.7834C336.049 44.3438 336.33 43.9562 336.698 43.6205C337.066 43.2848 337.515 43.017 338.047 42.8172C338.582 42.6174 339.19 42.5175 339.869 42.5175C340.544 42.5175 341.152 42.6194 341.691 42.8232C342.235 43.023 342.695 43.2988 343.07 43.6504C343.45 44.0021 343.74 44.4157 343.939 44.8913C344.143 45.3669 344.245 45.8764 344.245 46.4199C344.245 46.4879 344.243 46.5618 344.239 46.6417C344.239 46.7176 344.235 46.7876 344.227 46.8515H337.537C337.613 47.0633 337.735 47.2572 337.903 47.433C338.075 47.6088 338.289 47.7607 338.544 47.8886C338.8 48.0165 339.096 48.1164 339.432 48.1883C339.767 48.2562 340.139 48.2902 340.546 48.2902C340.954 48.2902 341.36 48.2483 341.763 48.1643C342.167 48.0764 342.553 47.9665 342.92 47.8346L343.52 49.1894C343.288 49.2973 343.052 49.3932 342.812 49.4771C342.577 49.5571 342.329 49.625 342.069 49.681C341.813 49.7329 341.544 49.7729 341.26 49.8008C340.98 49.8288 340.684 49.8428 340.373 49.8428C339.577 49.8428 338.88 49.7469 338.281 49.5551C337.681 49.3632 337.18 49.1015 336.776 48.7698C336.372 48.4381 336.069 48.0484 335.865 47.6008C335.661 47.1533 335.559 46.6717 335.559 46.1562ZM342.363 45.4668C342.299 45.271 342.199 45.0891 342.063 44.9213C341.931 44.7494 341.765 44.6016 341.566 44.4777C341.366 44.3498 341.134 44.2499 340.87 44.178C340.606 44.106 340.317 44.0701 340.001 44.0701C339.665 44.0701 339.36 44.108 339.084 44.184C338.808 44.2599 338.566 44.3618 338.358 44.4897C338.151 44.6176 337.977 44.7654 337.837 44.9333C337.701 45.1011 337.601 45.279 337.537 45.4668H342.363ZM345.612 46.2101C345.612 45.6466 345.718 45.1391 345.93 44.6875C346.141 44.2319 346.433 43.8443 346.805 43.5246C347.18 43.2008 347.624 42.9531 348.136 42.7812C348.651 42.6054 349.209 42.5175 349.808 42.5175C350.064 42.5175 350.316 42.5335 350.563 42.5654C350.815 42.5974 351.055 42.6414 351.283 42.6973C351.515 42.7533 351.73 42.8212 351.93 42.9011C352.134 42.9771 352.314 43.061 352.47 43.1529V39.772H354.244V49.7169H352.47V49.0515C352.314 49.1594 352.13 49.2613 351.918 49.3572C351.706 49.4532 351.479 49.5371 351.235 49.609C350.991 49.681 350.737 49.7369 350.473 49.7769C350.214 49.8208 349.956 49.8428 349.7 49.8428C349.101 49.8428 348.549 49.7549 348.046 49.579C347.546 49.4032 347.117 49.1554 346.757 48.8357C346.397 48.516 346.115 48.1344 345.912 47.6908C345.712 47.2432 345.612 46.7496 345.612 46.2101ZM347.476 46.2101C347.476 46.4939 347.532 46.7616 347.644 47.0134C347.76 47.2651 347.924 47.4869 348.136 47.6788C348.351 47.8666 348.609 48.0165 348.909 48.1284C349.213 48.2363 349.552 48.2902 349.928 48.2902C350.168 48.2902 350.408 48.2682 350.647 48.2243C350.887 48.1763 351.117 48.1104 351.337 48.0265C351.56 47.9425 351.768 47.8406 351.96 47.7207C352.156 47.6008 352.326 47.467 352.47 47.3191V44.8673C352.29 44.7235 352.1 44.6016 351.9 44.5017C351.7 44.4018 351.497 44.3198 351.289 44.2559C351.081 44.1919 350.871 44.146 350.659 44.118C350.447 44.086 350.242 44.0701 350.042 44.0701C349.634 44.0701 349.271 44.126 348.951 44.2379C348.635 44.3458 348.367 44.4957 348.148 44.6875C347.932 44.8793 347.766 45.1051 347.65 45.3649C347.534 45.6246 347.476 45.9064 347.476 46.2101ZM360.478 40.3474H362.391V49.7169H360.478V40.3474ZM364.597 42.6434H366.371V43.2428C366.843 42.9751 367.292 42.7872 367.72 42.6793C368.151 42.5714 368.573 42.5175 368.985 42.5175C369.524 42.5175 370.024 42.5974 370.483 42.7573C370.943 42.9131 371.34 43.1469 371.676 43.4586C372.012 43.7703 372.274 44.16 372.461 44.6275C372.653 45.0911 372.749 45.6286 372.749 46.2401V49.7169H370.981V46.5278C370.981 46.1402 370.925 45.7945 370.813 45.4908C370.705 45.183 370.547 44.9253 370.339 44.7175C370.136 44.5057 369.886 44.3458 369.59 44.2379C369.298 44.126 368.971 44.0701 368.607 44.0701C368.415 44.0701 368.217 44.09 368.013 44.13C367.814 44.17 367.616 44.2279 367.42 44.3038C367.228 44.3758 367.042 44.4677 366.863 44.5796C366.683 44.6875 366.519 44.8114 366.371 44.9513V49.7169H364.597V42.6434ZM374.386 46.2101C374.386 45.6466 374.492 45.1391 374.703 44.6875C374.915 44.2319 375.207 43.8443 375.579 43.5246C375.954 43.2008 376.398 42.9531 376.909 42.7812C377.425 42.6054 377.982 42.5175 378.582 42.5175C378.838 42.5175 379.089 42.5335 379.337 42.5654C379.589 42.5974 379.829 42.6414 380.057 42.6973C380.288 42.7533 380.504 42.8212 380.704 42.9011C380.908 42.9771 381.088 43.061 381.243 43.1529V39.772H383.018V49.7169H381.243V49.0515C381.088 49.1594 380.904 49.2613 380.692 49.3572C380.48 49.4532 380.252 49.5371 380.009 49.609C379.765 49.681 379.511 49.7369 379.247 49.7769C378.988 49.8208 378.73 49.8428 378.474 49.8428C377.875 49.8428 377.323 49.7549 376.819 49.579C376.32 49.4032 375.89 49.1554 375.531 48.8357C375.171 48.516 374.889 48.1344 374.685 47.6908C374.486 47.2432 374.386 46.7496 374.386 46.2101ZM376.25 46.2101C376.25 46.4939 376.306 46.7616 376.418 47.0134C376.534 47.2651 376.698 47.4869 376.909 47.6788C377.125 47.8666 377.383 48.0165 377.683 48.1284C377.986 48.2363 378.326 48.2902 378.702 48.2902C378.942 48.2902 379.181 48.2682 379.421 48.2243C379.661 48.1763 379.891 48.1104 380.11 48.0265C380.334 47.9425 380.542 47.8406 380.734 47.7207C380.93 47.6008 381.1 47.467 381.243 47.3191V44.8673C381.064 44.7235 380.874 44.6016 380.674 44.5017C380.474 44.4018 380.27 44.3198 380.063 44.2559C379.855 44.1919 379.645 44.146 379.433 44.118C379.221 44.086 379.015 44.0701 378.816 44.0701C378.408 44.0701 378.044 44.126 377.725 44.2379C377.409 44.3458 377.141 44.4957 376.921 44.6875C376.706 44.8793 376.54 45.1051 376.424 45.3649C376.308 45.6246 376.25 45.9064 376.25 46.2101ZM385.194 42.6374H386.962V46.0902C386.962 46.4179 386.998 46.7176 387.07 46.9894C387.142 47.2572 387.264 47.4869 387.436 47.6788C387.612 47.8706 387.843 48.0205 388.131 48.1284C388.423 48.2323 388.785 48.2842 389.216 48.2842C389.42 48.2842 389.626 48.2622 389.834 48.2183C390.045 48.1743 390.247 48.1144 390.439 48.0384C390.631 47.9585 390.809 47.8646 390.973 47.7567C391.14 47.6488 391.284 47.5309 391.404 47.403V42.6374H393.179V49.7169H391.404V49.1115C390.969 49.3712 390.531 49.5571 390.091 49.669C389.652 49.7809 389.234 49.8368 388.839 49.8368C388.191 49.8368 387.636 49.7589 387.172 49.603C386.712 49.4472 386.335 49.2214 386.039 48.9256C385.747 48.6259 385.534 48.2602 385.398 47.8286C385.262 47.393 385.194 46.8975 385.194 46.342V42.6374ZM395.714 47.5469C396.194 47.8346 396.721 48.0464 397.297 48.1823C397.872 48.3182 398.462 48.3861 399.065 48.3861C399.473 48.3861 399.813 48.3582 400.084 48.3022C400.356 48.2463 400.574 48.1743 400.738 48.0864C400.902 47.9985 401.017 47.8986 401.085 47.7867C401.153 47.6748 401.187 47.5609 401.187 47.445C401.187 47.2771 401.113 47.1333 400.966 47.0134C400.822 46.8935 400.582 46.8335 400.246 46.8335C400.09 46.8335 399.922 46.8435 399.743 46.8635C399.563 46.8835 399.373 46.9055 399.173 46.9295C398.977 46.9494 398.771 46.9694 398.556 46.9894C398.344 47.0094 398.128 47.0194 397.908 47.0194C397.429 47.0194 397.019 46.9674 396.679 46.8635C396.344 46.7596 396.07 46.6177 395.858 46.4379C395.646 46.2581 395.492 46.0463 395.397 45.8025C395.301 45.5547 395.253 45.2889 395.253 45.0052C395.253 44.6455 395.337 44.3138 395.504 44.0101C395.672 43.7064 395.912 43.4446 396.224 43.2248C396.536 43.001 396.911 42.8272 397.351 42.7033C397.794 42.5794 398.288 42.5175 398.831 42.5175C399.115 42.5175 399.411 42.5355 399.719 42.5714C400.03 42.6034 400.336 42.6474 400.636 42.7033C400.936 42.7593 401.223 42.8252 401.499 42.9011C401.775 42.9731 402.019 43.051 402.23 43.1349L401.673 44.5137C401.221 44.3458 400.77 44.2139 400.318 44.118C399.87 44.0181 399.409 43.9682 398.933 43.9682C398.602 43.9682 398.32 43.9941 398.088 44.0461C397.86 44.094 397.674 44.16 397.531 44.2439C397.387 44.3238 397.281 44.4177 397.213 44.5256C397.149 44.6295 397.117 44.7394 397.117 44.8553C397.117 44.9393 397.133 45.0152 397.165 45.0831C397.201 45.1511 397.257 45.211 397.333 45.263C397.413 45.3109 397.515 45.3489 397.639 45.3769C397.766 45.4008 397.922 45.4128 398.106 45.4128C398.274 45.4128 398.452 45.4028 398.64 45.3829C398.827 45.3629 399.023 45.3429 399.227 45.3229C399.431 45.2989 399.641 45.277 399.857 45.257C400.076 45.237 400.3 45.227 400.528 45.227C400.952 45.227 401.321 45.277 401.637 45.3769C401.957 45.4768 402.22 45.6166 402.428 45.7965C402.636 45.9763 402.792 46.1881 402.896 46.4319C403 46.6757 403.052 46.9414 403.052 47.2292C403.052 47.6008 402.966 47.9465 402.794 48.2662C402.622 48.5859 402.366 48.8637 402.027 49.0995C401.687 49.3313 401.263 49.5131 400.756 49.645C400.252 49.7769 399.669 49.8428 399.005 49.8428C398.598 49.8428 398.204 49.8168 397.824 49.7649C397.445 49.7169 397.083 49.651 396.739 49.5671C396.396 49.4791 396.072 49.3772 395.768 49.2613C395.469 49.1454 395.195 49.0216 394.947 48.8897L395.714 47.5469ZM405.719 43.9741H404.011V42.6434H405.719V40.4434H407.494V42.6434H409.202V43.9741H407.494V49.7169H405.719V43.9741ZM410.779 42.6434H412.553V43.6624C412.945 43.3707 413.358 43.1189 413.794 42.9071C414.229 42.6953 414.663 42.5335 415.095 42.4216L415.616 44.0461C414.933 44.114 414.331 44.2679 413.812 44.5077C413.296 44.7434 412.877 45.0771 412.553 45.5087V49.7169H410.779V42.6434ZM417.876 41.6782C417.7 41.6782 417.54 41.6543 417.397 41.6063C417.257 41.5543 417.137 41.4864 417.037 41.4025C416.937 41.3146 416.859 41.2147 416.803 41.1028C416.751 40.9869 416.725 40.865 416.725 40.7371C416.725 40.6052 416.751 40.4833 416.803 40.3714C416.859 40.2555 416.937 40.1556 417.037 40.0717C417.137 39.9878 417.257 39.9218 417.397 39.8739C417.54 39.8219 417.7 39.7959 417.876 39.7959C418.056 39.7959 418.216 39.8219 418.356 39.8739C418.5 39.9218 418.621 39.9878 418.721 40.0717C418.821 40.1556 418.897 40.2555 418.949 40.3714C419.005 40.4833 419.033 40.6052 419.033 40.7371C419.033 40.865 419.005 40.9869 418.949 41.1028C418.897 41.2147 418.821 41.3146 418.721 41.4025C418.621 41.4864 418.5 41.5543 418.356 41.6063C418.216 41.6543 418.056 41.6782 417.876 41.6782ZM416.989 42.6434H418.763V49.7169H416.989V42.6434ZM420.706 46.1562C420.706 45.6766 420.803 45.219 420.999 44.7834C421.195 44.3438 421.477 43.9562 421.845 43.6205C422.212 43.2848 422.662 43.017 423.193 42.8172C423.729 42.6174 424.336 42.5175 425.016 42.5175C425.691 42.5175 426.298 42.6194 426.838 42.8232C427.381 43.023 427.841 43.2988 428.217 43.6504C428.596 44.0021 428.886 44.4157 429.086 44.8913C429.29 45.3669 429.392 45.8764 429.392 46.4199C429.392 46.4879 429.39 46.5618 429.386 46.6417C429.386 46.7176 429.382 46.7876 429.374 46.8515H422.684C422.76 47.0633 422.882 47.2572 423.049 47.433C423.221 47.6088 423.435 47.7607 423.691 47.8886C423.947 48.0165 424.242 48.1164 424.578 48.1883C424.914 48.2562 425.285 48.2902 425.693 48.2902C426.101 48.2902 426.506 48.2483 426.91 48.1643C427.314 48.0764 427.699 47.9665 428.067 47.8346L428.666 49.1894C428.435 49.2973 428.199 49.3932 427.959 49.4771C427.723 49.5571 427.475 49.625 427.216 49.681C426.96 49.7329 426.69 49.7729 426.406 49.8008C426.127 49.8288 425.831 49.8428 425.519 49.8428C424.724 49.8428 424.027 49.7469 423.427 49.5551C422.828 49.3632 422.326 49.1015 421.922 48.7698C421.519 48.4381 421.215 48.0484 421.011 47.6008C420.807 47.1533 420.706 46.6717 420.706 46.1562ZM427.509 45.4668C427.445 45.271 427.346 45.0891 427.21 44.9213C427.078 44.7494 426.912 44.6016 426.712 44.4777C426.512 44.3498 426.28 44.2499 426.017 44.178C425.753 44.106 425.463 44.0701 425.148 44.0701C424.812 44.0701 424.506 44.108 424.23 44.184C423.955 44.2599 423.713 44.3618 423.505 44.4897C423.297 44.6176 423.123 44.7654 422.983 44.9333C422.848 45.1011 422.748 45.279 422.684 45.4668H427.509ZM431.586 47.5469C432.065 47.8346 432.593 48.0464 433.168 48.1823C433.744 48.3182 434.333 48.3861 434.937 48.3861C435.344 48.3861 435.684 48.3582 435.956 48.3022C436.227 48.2463 436.445 48.1743 436.609 48.0864C436.773 47.9985 436.889 47.8986 436.957 47.7867C437.025 47.6748 437.059 47.5609 437.059 47.445C437.059 47.2771 436.985 47.1333 436.837 47.0134C436.693 46.8935 436.453 46.8335 436.118 46.8335C435.962 46.8335 435.794 46.8435 435.614 46.8635C435.434 46.8835 435.244 46.9055 435.045 46.9295C434.849 46.9494 434.643 46.9694 434.427 46.9894C434.215 47.0094 433.999 47.0194 433.78 47.0194C433.3 47.0194 432.89 46.9674 432.551 46.8635C432.215 46.7596 431.941 46.6177 431.73 46.4379C431.518 46.2581 431.364 46.0463 431.268 45.8025C431.172 45.5547 431.124 45.2889 431.124 45.0052C431.124 44.6455 431.208 44.3138 431.376 44.0101C431.544 43.7064 431.783 43.4446 432.095 43.2248C432.407 43.001 432.783 42.8272 433.222 42.7033C433.666 42.5794 434.159 42.5175 434.703 42.5175C434.987 42.5175 435.282 42.5355 435.59 42.5714C435.902 42.6034 436.207 42.6474 436.507 42.7033C436.807 42.7593 437.095 42.8252 437.37 42.9011C437.646 42.9731 437.89 43.051 438.102 43.1349L437.544 44.5137C437.093 44.3458 436.641 44.2139 436.189 44.118C435.742 44.0181 435.28 43.9682 434.805 43.9682C434.473 43.9682 434.191 43.9941 433.959 44.0461C433.732 44.094 433.546 44.16 433.402 44.2439C433.258 44.3238 433.152 44.4177 433.084 44.5256C433.02 44.6295 432.988 44.7394 432.988 44.8553C432.988 44.9393 433.004 45.0152 433.036 45.0831C433.072 45.1511 433.128 45.211 433.204 45.263C433.284 45.3109 433.386 45.3489 433.51 45.3769C433.638 45.4008 433.794 45.4128 433.977 45.4128C434.145 45.4128 434.323 45.4028 434.511 45.3829C434.699 45.3629 434.895 45.3429 435.098 45.3229C435.302 45.2989 435.512 45.277 435.728 45.257C435.948 45.237 436.171 45.227 436.399 45.227C436.823 45.227 437.193 45.277 437.508 45.3769C437.828 45.4768 438.092 45.6166 438.3 45.7965C438.507 45.9763 438.663 46.1881 438.767 46.4319C438.871 46.6757 438.923 46.9414 438.923 47.2292C438.923 47.6008 438.837 47.9465 438.665 48.2662C438.493 48.5859 438.238 48.8637 437.898 49.0995C437.558 49.3313 437.135 49.5131 436.627 49.645C436.124 49.7769 435.54 49.8428 434.877 49.8428C434.469 49.8428 434.075 49.8168 433.696 49.7649C433.316 49.7169 432.954 49.651 432.611 49.5671C432.267 49.4791 431.943 49.3772 431.64 49.2613C431.34 49.1454 431.066 49.0216 430.818 48.8897L431.586 47.5469Z" fill="#4D4D4D"/>
</svg>
