<svg width="442" height="54" viewBox="0 0 442 54" fill="none" xmlns="http://www.w3.org/2000/svg">
<path d="M3.50218 7.39736H11.7753C14.1913 7.39736 16.2897 7.65725 18.0704 8.17703C19.8511 8.69681 21.3238 9.44278 22.4885 10.415C23.6629 11.3775 24.534 12.5518 25.1019 13.9379C25.6794 15.3144 25.9682 16.8641 25.9682 18.587C25.9682 20.2234 25.6842 21.7394 25.1163 23.1351C24.5484 24.5212 23.6821 25.7244 22.5174 26.7447C21.3527 27.7554 19.88 28.5495 18.0993 29.127C16.3186 29.6949 14.2202 29.9789 11.8042 29.9789L3.50218 29.9644V7.39736ZM12.9015 26.0083C14.2683 26.0083 15.4667 25.8351 16.4966 25.4885C17.5266 25.1324 18.3832 24.6319 19.0667 23.987C19.7597 23.3421 20.2795 22.5624 20.626 21.648C20.9725 20.7335 21.1458 19.7132 21.1458 18.587C21.1458 17.4801 20.9725 16.4839 20.626 15.5983C20.2795 14.7031 19.7597 13.9475 19.0667 13.3315C18.3832 12.7058 17.5266 12.2246 16.4966 11.8877C15.4667 11.5508 14.2683 11.3823 12.9015 11.3823H8.07912V26.0083H12.9015ZM29.982 7.39736H34.5878V29.9644H29.982V7.39736ZM38.8904 18.4715C38.8904 16.8833 39.1888 15.401 39.7856 14.0245C40.3824 12.6385 41.2535 11.4353 42.3989 10.415C43.5444 9.39466 44.9497 8.59092 46.6149 8.00377C48.2898 7.41661 50.2053 7.12303 52.3614 7.12303C53.141 7.12303 53.9207 7.16635 54.7004 7.25298C55.4897 7.32998 56.2645 7.45511 57.0249 7.62837C57.795 7.80163 58.541 8.02302 59.2629 8.29253C59.9944 8.55242 60.6875 8.86525 61.342 9.23102L59.234 12.6962C58.8394 12.4652 58.3918 12.2583 57.8912 12.0754C57.3907 11.8829 56.8517 11.724 56.2742 11.5989C55.7062 11.4641 55.1143 11.3631 54.4982 11.2957C53.8918 11.2283 53.2806 11.1946 52.6646 11.1946C51.24 11.1946 49.9694 11.3775 48.8529 11.7433C47.7363 12.0994 46.793 12.6048 46.023 13.2593C45.2529 13.9042 44.6658 14.6791 44.2615 15.5839C43.8572 16.4887 43.6551 17.4801 43.6551 18.5582C43.6551 19.6747 43.8668 20.6998 44.2904 21.6335C44.7139 22.5672 45.3155 23.3709 46.0952 24.0447C46.8748 24.7185 47.8181 25.2479 48.9251 25.6329C50.032 26.0083 51.2689 26.196 52.6357 26.196C53.7234 26.196 54.7196 26.0757 55.6244 25.8351C56.5292 25.5848 57.3185 25.2335 57.9923 24.7811C58.6661 24.3287 59.2148 23.7848 59.6383 23.1495C60.0618 22.5046 60.3409 21.7827 60.4757 20.9838H52.5924V17.2154H64.5906V17.2298L64.605 17.2154C64.8457 18.3705 64.9179 19.4967 64.8216 20.594C64.735 21.6816 64.4847 22.7116 64.0708 23.6838C63.6666 24.6463 63.1083 25.5319 62.396 26.3404C61.6837 27.1489 60.8318 27.8468 59.8404 28.434C58.849 29.0115 57.7228 29.4639 56.4618 29.7912C55.2009 30.1088 53.8196 30.2676 52.3181 30.2676C50.2197 30.2676 48.3379 29.9596 46.6727 29.3436C45.0171 28.7275 43.6118 27.8853 42.4567 26.8169C41.3016 25.7484 40.4161 24.4971 39.8001 23.0629C39.1936 21.6287 38.8904 20.0982 38.8904 18.4715ZM69.4274 7.39736H74.0333V29.9644H69.4274V7.39736ZM86.6812 11.4112H78.3503V7.39736H99.589V11.4112H91.2581V29.9644H86.6812V11.4112ZM112.179 7.39736H117.031L127.946 29.9644H123.138L121.333 26.1671H108.151L106.404 29.9644H101.582L112.179 7.39736ZM119.528 22.3987L114.648 12.1476L109.898 22.3987H119.528ZM131.454 7.39736H136.031V25.9506H149.156V29.9644H131.454V7.39736ZM163.421 7.39736H174.899C176.632 7.39736 178.133 7.58024 179.404 7.94601C180.675 8.30216 181.729 8.82194 182.566 9.50535C183.403 10.1888 184.024 11.0214 184.428 12.0032C184.842 12.985 185.049 14.0967 185.049 15.3384C185.049 16.1758 184.948 16.9748 184.746 17.7352C184.544 18.486 184.231 19.179 183.808 19.8143C183.394 20.4496 182.869 21.0175 182.234 21.518C181.599 22.0089 180.853 22.418 179.996 22.7453L184.905 29.9644H179.303L175.058 23.5538H174.928L167.998 23.5394V29.9644H163.421V7.39736ZM175.015 19.5833C175.881 19.5833 176.637 19.4822 177.282 19.2801C177.936 19.0779 178.48 18.794 178.913 18.4282C179.356 18.0624 179.683 17.6197 179.895 17.0999C180.116 16.5705 180.227 15.9833 180.227 15.3384C180.227 14.0775 179.794 13.1053 178.927 12.4219C178.061 11.7288 176.757 11.3823 175.015 11.3823H167.998V19.5833H175.015ZM190.478 7.39736H209.695V11.4112H195.055V15.916H208.021V19.6843H195.055V25.965H209.999V29.9644H190.478V7.39736ZM215.095 7.39736H219.672L227.873 15.6272L236.074 7.39736H240.651V29.9644H236.074V13.7358L227.873 21.6335L219.672 13.7358V29.9644H215.095V7.39736ZM246.499 7.39736H251.105V29.9644H246.499V7.39736ZM263.752 11.4112H255.422V7.39736H276.66V11.4112H268.329V29.9644H263.752V11.4112ZM288.355 11.4112H280.024V7.39736H301.263V11.4112H292.932V29.9644H288.355V11.4112ZM313.853 7.39736H318.705L329.62 29.9644H324.812L323.007 26.1671H309.825L308.078 29.9644H303.256L313.853 7.39736ZM321.202 22.3987L316.322 12.1476L311.572 22.3987H321.202ZM333.1 7.39736H337.677L351.739 14.7609V7.39736H356.316V29.9644H351.739V19.6122L337.677 12.2919V29.9644H333.1V7.39736ZM361.326 18.5437C361.326 16.9363 361.63 15.4395 362.236 14.0534C362.843 12.6577 363.718 11.4497 364.864 10.4294C366.019 9.39947 367.424 8.59092 369.08 8.00377C370.745 7.41661 372.627 7.12303 374.725 7.12303C376.564 7.12303 378.248 7.31073 379.779 7.68612C381.319 8.05189 382.748 8.61499 384.067 9.37541L381.959 12.8406C381.564 12.5807 381.107 12.3497 380.587 12.1476C380.077 11.9454 379.528 11.777 378.941 11.6422C378.364 11.4978 377.762 11.3871 377.136 11.3101C376.52 11.2331 375.909 11.1946 375.303 11.1946C373.84 11.1946 372.535 11.3775 371.39 11.7433C370.245 12.0994 369.277 12.6048 368.488 13.2593C367.708 13.9042 367.111 14.6791 366.698 15.5839C366.293 16.479 366.091 17.4657 366.091 18.5437C366.091 19.6603 366.303 20.6854 366.726 21.6191C367.15 22.5528 367.761 23.3613 368.56 24.0447C369.369 24.7185 370.35 25.2479 371.505 25.6329C372.67 26.0083 373.984 26.196 375.447 26.196C376.111 26.196 376.771 26.1479 377.425 26.0516C378.08 25.9554 378.71 25.8254 379.317 25.6618C379.933 25.4885 380.525 25.2864 381.093 25.0554C381.66 24.8148 382.19 24.5549 382.681 24.2757L384.789 27.7409C383.557 28.5302 382.132 29.1511 380.515 29.6035C378.898 30.0462 377.18 30.2676 375.361 30.2676C373.041 30.2676 371.005 29.9692 369.253 29.3724C367.501 28.766 366.038 27.9382 364.864 26.8891C363.69 25.8303 362.804 24.5886 362.207 23.164C361.62 21.7298 361.326 20.1897 361.326 18.5437ZM389.842 7.39736H409.059V11.4112H394.419V15.916H407.385V19.6843H394.419V25.965H409.363V29.9644H389.842V7.39736ZM415.499 23.2506C416.317 23.7126 417.145 24.1313 417.982 24.5067C418.829 24.8725 419.705 25.1853 420.61 25.4452C421.515 25.6955 422.463 25.888 423.454 26.0228C424.456 26.1575 425.519 26.2249 426.645 26.2249C428.003 26.2249 429.158 26.1383 430.111 25.965C431.063 25.7821 431.838 25.5367 432.435 25.2287C433.042 24.911 433.479 24.5356 433.749 24.1025C434.028 23.6693 434.168 23.1977 434.168 22.6875C434.168 21.8693 433.826 21.2244 433.143 20.7528C432.459 20.2715 431.405 20.0309 429.981 20.0309C429.355 20.0309 428.696 20.0742 428.003 20.1608C427.31 20.2378 426.607 20.3244 425.895 20.4207C425.192 20.517 424.494 20.6084 423.801 20.695C423.118 20.772 422.473 20.8105 421.866 20.8105C420.856 20.8105 419.883 20.6806 418.95 20.4207C418.026 20.1608 417.203 19.771 416.481 19.2512C415.768 18.7314 415.201 18.0817 414.777 17.302C414.354 16.5224 414.142 15.6127 414.142 14.5732C414.142 13.9572 414.224 13.3459 414.387 12.7395C414.56 12.1331 414.83 11.5556 415.196 11.0069C415.571 10.4487 416.052 9.93369 416.64 9.46204C417.227 8.98076 417.934 8.56686 418.762 8.22034C419.599 7.87382 420.562 7.60431 421.65 7.4118C422.747 7.20966 423.994 7.10859 425.389 7.10859C426.4 7.10859 427.415 7.16635 428.436 7.28185C429.456 7.38773 430.447 7.54174 431.41 7.74388C432.382 7.94601 433.316 8.19147 434.211 8.48023C435.106 8.75937 435.939 9.0722 436.709 9.41872L434.702 13.1149C434.067 12.8358 433.383 12.5807 432.652 12.3497C431.92 12.1091 431.155 11.9021 430.356 11.7288C429.557 11.5556 428.729 11.4208 427.873 11.3246C427.026 11.2187 426.159 11.1658 425.274 11.1658C424.013 11.1658 422.973 11.2572 422.155 11.4401C421.346 11.623 420.702 11.8588 420.22 12.1476C419.739 12.4267 419.402 12.7443 419.21 13.1005C419.027 13.447 418.935 13.7935 418.935 14.14C418.935 14.8138 419.239 15.3673 419.845 15.8004C420.451 16.224 421.375 16.4357 422.617 16.4357C423.118 16.4357 423.69 16.402 424.335 16.3347C424.99 16.2577 425.673 16.1758 426.385 16.0892C427.107 16.0026 427.839 15.9256 428.58 15.8582C429.331 15.7812 430.058 15.7427 430.76 15.7427C432.089 15.7427 433.263 15.8919 434.283 16.1903C435.313 16.4887 436.175 16.917 436.868 17.4753C437.561 18.0239 438.085 18.6929 438.441 19.4822C438.798 20.2619 438.976 21.1378 438.976 22.11C438.976 23.4094 438.672 24.5693 438.066 25.5896C437.469 26.6003 436.613 27.457 435.496 28.1596C434.389 28.8527 433.051 29.3821 431.482 29.7478C429.913 30.104 428.166 30.2821 426.241 30.2821C424.971 30.2821 423.729 30.2002 422.516 30.0366C421.303 29.8826 420.138 29.6612 419.022 29.3724C417.915 29.0741 416.856 28.7227 415.846 28.3185C414.844 27.9046 413.916 27.4522 413.059 26.9613L415.499 23.2506Z" fill="black"/>
<path d="M4.97612 40.7449H6.84596V45.8236C6.84596 46.2405 6.90298 46.6121 7.01702 46.9384C7.13106 47.2609 7.30015 47.5342 7.5243 47.7584C7.75238 47.9825 8.03354 48.1536 8.36779 48.2715C8.70205 48.3856 9.09135 48.4426 9.53571 48.4426C9.97614 48.4426 10.3635 48.3856 10.6977 48.2715C11.0359 48.1536 11.3171 47.9825 11.5412 47.7584C11.7693 47.5342 11.9404 47.2609 12.0544 46.9384C12.1684 46.6121 12.2255 46.2405 12.2255 45.8236V40.7449H14.0953V46.0478C14.0953 46.6534 13.9931 47.2039 13.7886 47.6994C13.5841 48.1948 13.2872 48.6195 12.8979 48.9735C12.5086 49.3274 12.0308 49.6007 11.4645 49.7934C10.9022 49.986 10.2593 50.0824 9.53571 50.0824C8.81215 50.0824 8.16724 49.986 7.60098 49.7934C7.03865 49.6007 6.56283 49.3274 6.17353 48.9735C5.78422 48.6195 5.48733 48.1948 5.28284 47.6994C5.07836 47.2039 4.97612 46.6534 4.97612 46.0478V40.7449ZM16.1598 43.0041H17.9058V43.594C18.3698 43.3305 18.8122 43.1457 19.233 43.0395C19.6577 42.9333 20.0725 42.8802 20.4776 42.8802C21.0084 42.8802 21.5 42.9589 21.9522 43.1162C22.4044 43.2695 22.7957 43.4996 23.126 43.8063C23.4563 44.113 23.7139 44.4964 23.8987 44.9565C24.0875 45.4127 24.1819 45.9416 24.1819 46.5432V49.9644H22.4418V46.8264C22.4418 46.4449 22.3867 46.1048 22.2766 45.8059C22.1705 45.5031 22.0151 45.2495 21.8106 45.045C21.6101 44.8366 21.3643 44.6793 21.0733 44.5731C20.7863 44.463 20.4638 44.408 20.106 44.408C19.9172 44.408 19.7225 44.4276 19.522 44.4669C19.3254 44.5063 19.1307 44.5633 18.938 44.638C18.7493 44.7088 18.5664 44.7992 18.3895 44.9093C18.2125 45.0155 18.0513 45.1374 17.9058 45.2751V49.9644H16.1598V43.0041ZM26.2818 40.1787H28.0277V43.6588C28.1811 43.5527 28.362 43.4524 28.5704 43.358C28.7788 43.2636 29.003 43.1811 29.2428 43.1103C29.4827 43.0395 29.7305 42.9844 29.9861 42.9451C30.2417 42.9019 30.4973 42.8802 30.7529 42.8802C31.3427 42.8802 31.8834 42.9667 32.375 43.1398C32.8705 43.3128 33.2952 43.5566 33.6491 43.8712C34.003 44.1858 34.2783 44.5633 34.4749 45.0037C34.6754 45.4402 34.7757 45.9239 34.7757 46.4548C34.7757 47.0092 34.6715 47.5106 34.4631 47.9589C34.2547 48.4033 33.9656 48.7847 33.596 49.1032C33.2303 49.4178 32.7938 49.6616 32.2865 49.8346C31.7832 50.0037 31.2366 50.0883 30.6467 50.0883C30.395 50.0883 30.1453 50.0726 29.8976 50.0411C29.6538 50.0096 29.4178 49.9664 29.1898 49.9113C28.9656 49.8563 28.7533 49.7914 28.5527 49.7167C28.3561 49.638 28.1811 49.5535 28.0277 49.463V49.9644H26.2818V40.1787ZM28.0277 47.776C28.2047 47.9176 28.3915 48.0375 28.5881 48.1359C28.7847 48.2342 28.9853 48.3148 29.1898 48.3777C29.3942 48.4406 29.6007 48.4878 29.8091 48.5193C30.0175 48.5468 30.22 48.5606 30.4167 48.5606C30.8178 48.5606 31.1736 48.5075 31.4843 48.4013C31.7989 48.2912 32.0624 48.1418 32.2747 47.953C32.491 47.7642 32.6561 47.5421 32.7702 47.2865C32.8842 47.0309 32.9412 46.7536 32.9412 46.4548C32.9412 46.1756 32.8842 45.9121 32.7702 45.6644C32.6601 45.4166 32.4989 45.2003 32.2865 45.0155C32.0781 44.8268 31.8244 44.6793 31.5256 44.5731C31.2307 44.463 30.8984 44.408 30.5287 44.408C30.2928 44.408 30.0568 44.4316 29.8209 44.4787C29.585 44.522 29.3569 44.5849 29.1367 44.6675C28.9204 44.7501 28.7159 44.8504 28.5232 44.9683C28.3345 45.0863 28.1693 45.218 28.0277 45.3635V47.776ZM36.0616 47.7701C36.0616 47.4359 36.1343 47.1311 36.2798 46.8559C36.4253 46.5806 36.6436 46.3447 36.9346 46.148C37.2256 45.9475 37.5874 45.7941 38.0199 45.688C38.4564 45.5778 38.9637 45.5228 39.5417 45.5228C39.9704 45.5228 40.4206 45.5543 40.8925 45.6172C41.3683 45.6801 41.8579 45.7764 42.3613 45.9062C42.3416 45.686 42.2748 45.4835 42.1607 45.2986C42.0467 45.1099 41.8874 44.9487 41.6829 44.815C41.4824 44.6773 41.2386 44.5712 40.9515 44.4964C40.6684 44.4217 40.3459 44.3844 39.9841 44.3844C39.7875 44.3844 39.5712 44.3962 39.3353 44.4198C39.0994 44.4434 38.8555 44.4787 38.6039 44.5259C38.3522 44.5731 38.1025 44.6321 37.8548 44.7029C37.6109 44.7737 37.3829 44.8582 37.1705 44.9565L36.6397 43.5232C36.9031 43.4288 37.1843 43.3423 37.4831 43.2636C37.7859 43.185 38.0946 43.1181 38.4092 43.0631C38.7238 43.0041 39.0384 42.9589 39.353 42.9274C39.6676 42.896 39.9723 42.8802 40.2673 42.8802C41.5689 42.8802 42.5363 43.2125 43.1694 43.8771C43.8025 44.5417 44.119 45.5601 44.119 46.9326V49.9644H42.3731V49.3097C42.1922 49.4158 41.9936 49.5161 41.7773 49.6105C41.565 49.7049 41.3329 49.7875 41.0813 49.8582C40.8296 49.929 40.5583 49.9841 40.2673 50.0234C39.9802 50.0667 39.6754 50.0883 39.353 50.0883C38.8103 50.0883 38.3325 50.0293 37.9196 49.9113C37.5107 49.7934 37.1686 49.6302 36.8933 49.4217C36.618 49.2133 36.4096 48.9695 36.268 48.6903C36.1304 48.4072 36.0616 48.1005 36.0616 47.7701ZM37.9019 47.7112C37.9019 47.8252 37.9314 47.9353 37.9904 48.0415C38.0494 48.1437 38.1438 48.2361 38.2736 48.3187C38.4033 48.3974 38.5685 48.4622 38.769 48.5134C38.9735 48.5606 39.2193 48.5842 39.5064 48.5842C39.8131 48.5842 40.11 48.5566 40.397 48.5016C40.6841 48.4465 40.9515 48.3738 41.1992 48.2833C41.447 48.1929 41.6711 48.0887 41.8717 47.9707C42.0722 47.8527 42.2394 47.7308 42.3731 47.605V47.2983C42.1057 47.2235 41.8402 47.1606 41.5768 47.1095C41.3172 47.0584 41.0675 47.0191 40.8276 46.9915C40.5917 46.9601 40.3675 46.9384 40.1552 46.9267C39.9468 46.9149 39.7639 46.909 39.6066 46.909C39.2802 46.909 39.0089 46.9306 38.7926 46.9738C38.5763 47.0171 38.4014 47.0761 38.2677 47.1508C38.134 47.2216 38.0396 47.3061 37.9845 47.4044C37.9295 47.5027 37.9019 47.605 37.9019 47.7112ZM46.4313 43.0041H48.1773V43.594C48.6413 43.3305 49.0837 43.1457 49.5044 43.0395C49.9291 42.9333 50.344 42.8802 50.749 42.8802C51.2799 42.8802 51.7715 42.9589 52.2237 43.1162C52.6759 43.2695 53.0672 43.4996 53.3975 43.8063C53.7278 44.113 53.9854 44.4964 54.1702 44.9565C54.359 45.4127 54.4533 45.9416 54.4533 46.5432V49.9644H52.7133V46.8264C52.7133 46.4449 52.6582 46.1048 52.5481 45.8059C52.4419 45.5031 52.2866 45.2495 52.0821 45.045C51.8816 44.8366 51.6358 44.6793 51.3448 44.5731C51.0577 44.463 50.7353 44.408 50.3774 44.408C50.1887 44.408 49.994 44.4276 49.7935 44.4669C49.5968 44.5063 49.4022 44.5633 49.2095 44.638C49.0208 44.7088 48.8379 44.7992 48.6609 44.9093C48.484 45.0155 48.3228 45.1374 48.1773 45.2751V49.9644H46.4313V43.0041ZM56.6063 40.1787H58.3523V45.9593L61.6083 43.0041H64.2804L60.6409 46.2601L64.5104 49.9644H61.8914L59.302 47.4575L58.3523 48.3069V49.9644H56.6063V40.1787ZM65.3303 46.4607C65.3303 45.9888 65.4266 45.5385 65.6193 45.1099C65.812 44.6773 66.0893 44.2959 66.451 43.9656C66.8128 43.6352 67.2552 43.3718 67.7782 43.1752C68.3052 42.9785 68.9029 42.8802 69.5714 42.8802C70.236 42.8802 70.8337 42.9805 71.3645 43.1811C71.8993 43.3777 72.3516 43.649 72.7212 43.9951C73.0948 44.3411 73.3799 44.7481 73.5765 45.2161C73.7771 45.684 73.8773 46.1854 73.8773 46.7202C73.8773 46.7871 73.8754 46.8598 73.8714 46.9384C73.8714 47.0132 73.8675 47.082 73.8596 47.1449H67.2768C67.3515 47.3533 67.4715 47.544 67.6366 47.7171C67.8057 47.8901 68.0161 48.0395 68.2678 48.1654C68.5195 48.2912 68.8105 48.3895 69.1408 48.4603C69.4711 48.5271 69.8368 48.5606 70.2379 48.5606C70.639 48.5606 71.0382 48.5193 71.4353 48.4367C71.8325 48.3502 72.212 48.242 72.5738 48.1123L73.1636 49.4453C72.9355 49.5515 72.7035 49.6459 72.4676 49.7285C72.2356 49.8071 71.9918 49.874 71.7362 49.929C71.4845 49.9801 71.219 50.0195 70.9398 50.047C70.6646 50.0745 70.3736 50.0883 70.0669 50.0883C69.2843 50.0883 68.5981 49.9939 68.0083 49.8052C67.4184 49.6164 66.9249 49.3588 66.5277 49.0324C66.1305 48.7061 65.8317 48.3226 65.6311 47.8822C65.4306 47.4418 65.3303 46.9679 65.3303 46.4607ZM72.0252 45.7823C71.9623 45.5896 71.864 45.4107 71.7303 45.2456C71.6005 45.0765 71.4373 44.931 71.2407 44.8091C71.0441 44.6832 70.816 44.5849 70.5564 44.5141C70.2969 44.4434 70.0118 44.408 69.7011 44.408C69.3708 44.408 69.07 44.4453 68.7987 44.52C68.5273 44.5947 68.2894 44.695 68.0849 44.8209C67.8805 44.9467 67.7094 45.0922 67.5718 45.2574C67.4381 45.4225 67.3398 45.5975 67.2768 45.7823H72.0252ZM75.2222 46.5138C75.2222 45.9593 75.3264 45.4599 75.5348 45.0155C75.7432 44.5672 76.0303 44.1858 76.396 43.8712C76.7657 43.5527 77.2022 43.3089 77.7055 43.1398C78.2128 42.9667 78.7613 42.8802 79.3512 42.8802C79.6029 42.8802 79.8506 42.896 80.0944 42.9274C80.3422 42.9589 80.5781 43.0021 80.8023 43.0572C81.0303 43.1122 81.2427 43.1791 81.4393 43.2577C81.6399 43.3325 81.8168 43.415 81.9702 43.5055V40.1787H83.7161V49.9644H81.9702V49.3097C81.8168 49.4158 81.6359 49.5161 81.4275 49.6105C81.2191 49.7049 80.9949 49.7875 80.7551 49.8582C80.5152 49.929 80.2655 49.9841 80.0059 50.0234C79.7503 50.0667 79.4967 50.0883 79.245 50.0883C78.6552 50.0883 78.1125 50.0018 77.617 49.8287C77.1255 49.6557 76.7027 49.4119 76.3488 49.0973C75.9949 48.7827 75.7177 48.4072 75.5171 47.9707C75.3205 47.5303 75.2222 47.0446 75.2222 46.5138ZM77.0567 46.5138C77.0567 46.793 77.1117 47.0564 77.2218 47.3042C77.3359 47.5519 77.4971 47.7701 77.7055 47.9589C77.9179 48.1437 78.1715 48.2912 78.4664 48.4013C78.7653 48.5075 79.0995 48.5606 79.4692 48.5606C79.7051 48.5606 79.9411 48.5389 80.177 48.4957C80.4129 48.4485 80.6391 48.3836 80.8553 48.301C81.0756 48.2184 81.28 48.1182 81.4688 48.0002C81.6615 47.8822 81.8286 47.7505 81.9702 47.605V45.1925C81.7932 45.0509 81.6064 44.931 81.4098 44.8327C81.2132 44.7343 81.0126 44.6537 80.8082 44.5908C80.6037 44.5279 80.3972 44.4827 80.1888 44.4552C79.9804 44.4237 79.7779 44.408 79.5813 44.408C79.1801 44.408 78.8223 44.463 78.5077 44.5731C78.1971 44.6793 77.9336 44.8268 77.7173 45.0155C77.505 45.2043 77.3418 45.4264 77.2277 45.6821C77.1137 45.9377 77.0567 46.2149 77.0567 46.5138ZM90.0217 39.5239H91.5377V52.8075H90.0217V39.5239ZM97.7607 40.7449H99.6305V45.8236C99.6305 46.2405 99.6875 46.6121 99.8016 46.9384C99.9156 47.2609 100.085 47.5342 100.309 47.7584C100.537 47.9825 100.818 48.1536 101.152 48.2715C101.487 48.3856 101.876 48.4426 102.32 48.4426C102.761 48.4426 103.148 48.3856 103.482 48.2715C103.82 48.1536 104.102 47.9825 104.326 47.7584C104.554 47.5342 104.725 47.2609 104.839 46.9384C104.953 46.6121 105.01 46.2405 105.01 45.8236V40.7449H106.88V46.0478C106.88 46.6534 106.778 47.2039 106.573 47.6994C106.369 48.1948 106.072 48.6195 105.682 48.9735C105.293 49.3274 104.815 49.6007 104.249 49.7934C103.687 49.986 103.044 50.0824 102.32 50.0824C101.597 50.0824 100.952 49.986 100.386 49.7934C99.8232 49.6007 99.3474 49.3274 98.9581 48.9735C98.5688 48.6195 98.2719 48.1948 98.0674 47.6994C97.8629 47.2039 97.7607 46.6534 97.7607 46.0478V40.7449ZM108.944 43.0041H110.69V43.594C111.154 43.3305 111.597 43.1457 112.018 43.0395C112.442 42.9333 112.857 42.8802 113.262 42.8802C113.793 42.8802 114.285 42.9589 114.737 43.1162C115.189 43.2695 115.58 43.4996 115.911 43.8063C116.241 44.113 116.498 44.4964 116.683 44.9565C116.872 45.4127 116.966 45.9416 116.966 46.5432V49.9644H115.226V46.8264C115.226 46.4449 115.171 46.1048 115.061 45.8059C114.955 45.5031 114.8 45.2495 114.595 45.045C114.395 44.8366 114.149 44.6793 113.858 44.5731C113.571 44.463 113.248 44.408 112.89 44.408C112.702 44.408 112.507 44.4276 112.307 44.4669C112.11 44.5063 111.915 44.5633 111.723 44.638C111.534 44.7088 111.351 44.7992 111.174 44.9093C110.997 45.0155 110.836 45.1374 110.69 45.2751V49.9644H108.944V43.0041ZM118.577 46.5138C118.577 45.9593 118.681 45.4599 118.889 45.0155C119.098 44.5672 119.385 44.1858 119.751 43.8712C120.12 43.5527 120.557 43.3089 121.06 43.1398C121.567 42.9667 122.116 42.8802 122.706 42.8802C122.957 42.8802 123.205 42.896 123.449 42.9274C123.697 42.9589 123.933 43.0021 124.157 43.0572C124.385 43.1122 124.597 43.1791 124.794 43.2577C124.994 43.3325 125.171 43.415 125.325 43.5055V40.1787H127.071V49.9644H125.325V49.3097C125.171 49.4158 124.99 49.5161 124.782 49.6105C124.574 49.7049 124.349 49.7875 124.11 49.8582C123.87 49.929 123.62 49.9841 123.36 50.0234C123.105 50.0667 122.851 50.0883 122.6 50.0883C122.01 50.0883 121.467 50.0018 120.972 49.8287C120.48 49.6557 120.057 49.4119 119.703 49.0973C119.349 48.7827 119.072 48.4072 118.872 47.9707C118.675 47.5303 118.577 47.0446 118.577 46.5138ZM120.411 46.5138C120.411 46.793 120.466 47.0564 120.576 47.3042C120.69 47.5519 120.852 47.7701 121.06 47.9589C121.272 48.1437 121.526 48.2912 121.821 48.4013C122.12 48.5075 122.454 48.5606 122.824 48.5606C123.06 48.5606 123.296 48.5389 123.532 48.4957C123.767 48.4485 123.994 48.3836 124.21 48.301C124.43 48.2184 124.635 48.1182 124.823 48.0002C125.016 47.8822 125.183 47.7505 125.325 47.605V45.1925C125.148 45.0509 124.961 44.931 124.764 44.8327C124.568 44.7343 124.367 44.6537 124.163 44.5908C123.958 44.5279 123.752 44.4827 123.543 44.4552C123.335 44.4237 123.132 44.408 122.936 44.408C122.535 44.408 122.177 44.463 121.862 44.5731C121.552 44.6793 121.288 44.8268 121.072 45.0155C120.859 45.2043 120.696 45.4264 120.582 45.6821C120.468 45.9377 120.411 46.2149 120.411 46.5138ZM128.882 46.4607C128.882 45.9888 128.978 45.5385 129.171 45.1099C129.363 44.6773 129.64 44.2959 130.002 43.9656C130.364 43.6352 130.806 43.3718 131.329 43.1752C131.856 42.9785 132.454 42.8802 133.123 42.8802C133.787 42.8802 134.385 42.9805 134.916 43.1811C135.451 43.3777 135.903 43.649 136.272 43.9951C136.646 44.3411 136.931 44.7481 137.128 45.2161C137.328 45.684 137.429 46.1854 137.429 46.7202C137.429 46.7871 137.427 46.8598 137.423 46.9384C137.423 47.0132 137.419 47.082 137.411 47.1449H130.828C130.903 47.3533 131.023 47.544 131.188 47.7171C131.357 47.8901 131.567 48.0395 131.819 48.1654C132.071 48.2912 132.362 48.3895 132.692 48.4603C133.022 48.5271 133.388 48.5606 133.789 48.5606C134.19 48.5606 134.589 48.5193 134.987 48.4367C135.384 48.3502 135.763 48.242 136.125 48.1123L136.715 49.4453C136.487 49.5515 136.255 49.6459 136.019 49.7285C135.787 49.8071 135.543 49.874 135.287 49.929C135.036 49.9801 134.77 50.0195 134.491 50.047C134.216 50.0745 133.925 50.0883 133.618 50.0883C132.836 50.0883 132.149 49.9939 131.559 49.8052C130.97 49.6164 130.476 49.3588 130.079 49.0324C129.682 48.7061 129.383 48.3226 129.182 47.8822C128.982 47.4418 128.882 46.9679 128.882 46.4607ZM135.576 45.7823C135.513 45.5896 135.415 45.4107 135.281 45.2456C135.152 45.0765 134.989 44.931 134.792 44.8091C134.595 44.6832 134.367 44.5849 134.108 44.5141C133.848 44.4434 133.563 44.408 133.252 44.408C132.922 44.408 132.621 44.4453 132.35 44.52C132.079 44.5947 131.841 44.695 131.636 44.8209C131.432 44.9467 131.261 45.0922 131.123 45.2574C130.989 45.4225 130.891 45.5975 130.828 45.7823H135.576ZM139.31 43.0041H141.056V44.0069C141.442 43.7198 141.849 43.4721 142.277 43.2636C142.706 43.0552 143.132 42.896 143.557 42.7859L144.07 44.3844C143.398 44.4512 142.806 44.6026 142.295 44.8386C141.788 45.0706 141.375 45.3989 141.056 45.8236V49.9644H139.31V43.0041ZM145.327 40.1787H147.073V43.6588C147.226 43.5527 147.407 43.4524 147.615 43.358C147.824 43.2636 148.048 43.1811 148.288 43.1103C148.528 43.0395 148.775 42.9844 149.031 42.9451C149.287 42.9019 149.542 42.8802 149.798 42.8802C150.388 42.8802 150.928 42.9667 151.42 43.1398C151.915 43.3128 152.34 43.5566 152.694 43.8712C153.048 44.1858 153.323 44.5633 153.52 45.0037C153.72 45.4402 153.821 45.9239 153.821 46.4548C153.821 47.0092 153.716 47.5106 153.508 47.9589C153.3 48.4033 153.011 48.7847 152.641 49.1032C152.275 49.4178 151.839 49.6616 151.331 49.8346C150.828 50.0037 150.282 50.0883 149.692 50.0883C149.44 50.0883 149.19 50.0726 148.943 50.0411C148.699 50.0096 148.463 49.9664 148.235 49.9113C148.011 49.8563 147.798 49.7914 147.598 49.7167C147.401 49.638 147.226 49.5535 147.073 49.463V49.9644H145.327V40.1787ZM147.073 47.776C147.25 47.9176 147.436 48.0375 147.633 48.1359C147.83 48.2342 148.03 48.3148 148.235 48.3777C148.439 48.4406 148.646 48.4878 148.854 48.5193C149.062 48.5468 149.265 48.5606 149.462 48.5606C149.863 48.5606 150.219 48.5075 150.529 48.4013C150.844 48.2912 151.107 48.1418 151.32 47.953C151.536 47.7642 151.701 47.5421 151.815 47.2865C151.929 47.0309 151.986 46.7536 151.986 46.4548C151.986 46.1756 151.929 45.9121 151.815 45.6644C151.705 45.4166 151.544 45.2003 151.331 45.0155C151.123 44.8268 150.869 44.6793 150.571 44.5731C150.276 44.463 149.943 44.408 149.574 44.408C149.338 44.408 149.102 44.4316 148.866 44.4787C148.63 44.522 148.402 44.5849 148.182 44.6675C147.965 44.7501 147.761 44.8504 147.568 44.9683C147.379 45.0863 147.214 45.218 147.073 45.3635V47.776ZM155.107 47.7701C155.107 47.4359 155.179 47.1311 155.325 46.8559C155.47 46.5806 155.689 46.3447 155.98 46.148C156.271 45.9475 156.632 45.7941 157.065 45.688C157.501 45.5778 158.009 45.5228 158.587 45.5228C159.015 45.5228 159.466 45.5543 159.938 45.6172C160.413 45.6801 160.903 45.7764 161.406 45.9062C161.387 45.686 161.32 45.4835 161.206 45.2986C161.092 45.1099 160.932 44.9487 160.728 44.815C160.527 44.6773 160.284 44.5712 159.996 44.4964C159.713 44.4217 159.391 44.3844 159.029 44.3844C158.833 44.3844 158.616 44.3962 158.38 44.4198C158.144 44.4434 157.901 44.4787 157.649 44.5259C157.397 44.5731 157.147 44.6321 156.9 44.7029C156.656 44.7737 156.428 44.8582 156.216 44.9565L155.685 43.5232C155.948 43.4288 156.229 43.3423 156.528 43.2636C156.831 43.185 157.14 43.1181 157.454 43.0631C157.769 43.0041 158.083 42.9589 158.398 42.9274C158.713 42.896 159.017 42.8802 159.312 42.8802C160.614 42.8802 161.581 43.2125 162.214 43.8771C162.847 44.5417 163.164 45.5601 163.164 46.9326V49.9644H161.418V49.3097C161.237 49.4158 161.039 49.5161 160.822 49.6105C160.61 49.7049 160.378 49.7875 160.126 49.8582C159.875 49.929 159.603 49.9841 159.312 50.0234C159.025 50.0667 158.72 50.0883 158.398 50.0883C157.855 50.0883 157.378 50.0293 156.965 49.9113C156.556 49.7934 156.214 49.6302 155.938 49.4217C155.663 49.2133 155.455 48.9695 155.313 48.6903C155.175 48.4072 155.107 48.1005 155.107 47.7701ZM156.947 47.7112C156.947 47.8252 156.976 47.9353 157.035 48.0415C157.094 48.1437 157.189 48.2361 157.319 48.3187C157.448 48.3974 157.613 48.4622 157.814 48.5134C158.019 48.5606 158.264 48.5842 158.551 48.5842C158.858 48.5842 159.155 48.5566 159.442 48.5016C159.729 48.4465 159.996 48.3738 160.244 48.2833C160.492 48.1929 160.716 48.0887 160.917 47.9707C161.117 47.8527 161.284 47.7308 161.418 47.605V47.2983C161.151 47.2235 160.885 47.1606 160.622 47.1095C160.362 47.0584 160.112 47.0191 159.873 46.9915C159.637 46.9601 159.413 46.9384 159.2 46.9267C158.992 46.9149 158.809 46.909 158.652 46.909C158.325 46.909 158.054 46.9306 157.838 46.9738C157.621 47.0171 157.446 47.0761 157.313 47.1508C157.179 47.2216 157.085 47.3061 157.03 47.4044C156.974 47.5027 156.947 47.605 156.947 47.7112ZM165.476 43.0041H167.222V43.594C167.686 43.3305 168.129 43.1457 168.549 43.0395C168.974 42.9333 169.389 42.8802 169.794 42.8802C170.325 42.8802 170.816 42.9589 171.269 43.1162C171.721 43.2695 172.112 43.4996 172.442 43.8063C172.773 44.113 173.03 44.4964 173.215 44.9565C173.404 45.4127 173.498 45.9416 173.498 46.5432V49.9644H171.758V46.8264C171.758 46.4449 171.703 46.1048 171.593 45.8059C171.487 45.5031 171.332 45.2495 171.127 45.045C170.927 44.8366 170.681 44.6793 170.39 44.5731C170.103 44.463 169.78 44.408 169.422 44.408C169.234 44.408 169.039 44.4276 168.838 44.4669C168.642 44.5063 168.447 44.5633 168.254 44.638C168.066 44.7088 167.883 44.7992 167.706 44.9093C167.529 45.0155 167.368 45.1374 167.222 45.2751V49.9644H165.476V43.0041ZM175.651 40.1787H177.397V45.9593L180.653 43.0041H183.325L179.686 46.2601L183.555 49.9644H180.936L178.347 47.4575L177.397 48.3069V49.9644H175.651V40.1787ZM184.375 46.4607C184.375 45.9888 184.472 45.5385 184.664 45.1099C184.857 44.6773 185.134 44.2959 185.496 43.9656C185.858 43.6352 186.3 43.3718 186.823 43.1752C187.35 42.9785 187.948 42.8802 188.616 42.8802C189.281 42.8802 189.879 42.9805 190.41 43.1811C190.944 43.3777 191.397 43.649 191.766 43.9951C192.14 44.3411 192.425 44.7481 192.621 45.2161C192.822 45.684 192.922 46.1854 192.922 46.7202C192.922 46.7871 192.92 46.8598 192.916 46.9384C192.916 47.0132 192.912 47.082 192.905 47.1449H186.322C186.397 47.3533 186.516 47.544 186.682 47.7171C186.851 47.8901 187.061 48.0395 187.313 48.1654C187.564 48.2912 187.855 48.3895 188.186 48.4603C188.516 48.5271 188.882 48.5606 189.283 48.5606C189.684 48.5606 190.083 48.5193 190.48 48.4367C190.877 48.3502 191.257 48.242 191.619 48.1123L192.209 49.4453C191.981 49.5515 191.748 49.6459 191.513 49.7285C191.281 49.8071 191.037 49.874 190.781 49.929C190.529 49.9801 190.264 50.0195 189.985 50.047C189.71 50.0745 189.419 50.0883 189.112 50.0883C188.329 50.0883 187.643 49.9939 187.053 49.8052C186.463 49.6164 185.97 49.3588 185.573 49.0324C185.176 48.7061 184.877 48.3226 184.676 47.8822C184.476 47.4418 184.375 46.9679 184.375 46.4607ZM191.07 45.7823C191.007 45.5896 190.909 45.4107 190.775 45.2456C190.645 45.0765 190.482 44.931 190.286 44.8091C190.089 44.6832 189.861 44.5849 189.601 44.5141C189.342 44.4434 189.057 44.408 188.746 44.408C188.416 44.408 188.115 44.4453 187.844 44.52C187.572 44.5947 187.334 44.695 187.13 44.8209C186.925 44.9467 186.754 45.0922 186.617 45.2574C186.483 45.4225 186.385 45.5975 186.322 45.7823H191.07ZM194.267 46.5138C194.267 45.9593 194.371 45.4599 194.58 45.0155C194.788 44.5672 195.075 44.1858 195.441 43.8712C195.811 43.5527 196.247 43.3089 196.75 43.1398C197.258 42.9667 197.806 42.8802 198.396 42.8802C198.648 42.8802 198.896 42.896 199.139 42.9274C199.387 42.9589 199.623 43.0021 199.847 43.0572C200.075 43.1122 200.288 43.1791 200.484 43.2577C200.685 43.3325 200.862 43.415 201.015 43.5055V40.1787H202.761V49.9644H201.015V49.3097C200.862 49.4158 200.681 49.5161 200.472 49.6105C200.264 49.7049 200.04 49.7875 199.8 49.8582C199.56 49.929 199.31 49.9841 199.051 50.0234C198.795 50.0667 198.542 50.0883 198.29 50.0883C197.7 50.0883 197.157 50.0018 196.662 49.8287C196.17 49.6557 195.748 49.4119 195.394 49.0973C195.04 48.7827 194.763 48.4072 194.562 47.9707C194.365 47.5303 194.267 47.0446 194.267 46.5138ZM196.102 46.5138C196.102 46.793 196.157 47.0564 196.267 47.3042C196.381 47.5519 196.542 47.7701 196.75 47.9589C196.963 48.1437 197.216 48.2912 197.511 48.4013C197.81 48.5075 198.145 48.5606 198.514 48.5606C198.75 48.5606 198.986 48.5389 199.222 48.4957C199.458 48.4485 199.684 48.3836 199.9 48.301C200.121 48.2184 200.325 48.1182 200.514 48.0002C200.706 47.8822 200.874 47.7505 201.015 47.605V45.1925C200.838 45.0509 200.651 44.931 200.455 44.8327C200.258 44.7343 200.058 44.6537 199.853 44.5908C199.649 44.5279 199.442 44.4827 199.234 44.4552C199.025 44.4237 198.823 44.408 198.626 44.408C198.225 44.408 197.867 44.463 197.553 44.5731C197.242 44.6793 196.979 44.8268 196.762 45.0155C196.55 45.2043 196.387 45.4264 196.273 45.6821C196.159 45.9377 196.102 46.2149 196.102 46.5138ZM209.067 39.5239H210.583V52.8075H209.067V39.5239ZM217.148 40.7449H219.018V43.1516H224.751V40.7449H226.627V49.9644H224.751V44.7501H219.018V49.9644H217.148V40.7449ZM229.948 42.0544C229.775 42.0544 229.617 42.0308 229.476 41.9836C229.338 41.9325 229.22 41.8657 229.122 41.7831C229.024 41.6966 228.947 41.5983 228.892 41.4882C228.841 41.3741 228.815 41.2542 228.815 41.1284C228.815 40.9986 228.841 40.8786 228.892 40.7685C228.947 40.6545 229.024 40.5562 229.122 40.4736C229.22 40.391 229.338 40.3261 229.476 40.279C229.617 40.2278 229.775 40.2023 229.948 40.2023C230.125 40.2023 230.282 40.2278 230.42 40.279C230.561 40.3261 230.681 40.391 230.779 40.4736C230.878 40.5562 230.952 40.6545 231.003 40.7685C231.059 40.8786 231.086 40.9986 231.086 41.1284C231.086 41.2542 231.059 41.3741 231.003 41.4882C230.952 41.5983 230.878 41.6966 230.779 41.7831C230.681 41.8657 230.561 41.9325 230.42 41.9836C230.282 42.0308 230.125 42.0544 229.948 42.0544ZM229.075 43.0041H230.821V49.9644H229.075V43.0041ZM234.153 51.1441C234.374 51.2228 234.598 51.2877 234.826 51.3388C235.054 51.3938 235.274 51.4371 235.486 51.4686C235.703 51.5039 235.909 51.5275 236.106 51.5393C236.302 51.5551 236.477 51.5629 236.631 51.5629C237.095 51.5629 237.498 51.5059 237.84 51.3919C238.186 51.2818 238.473 51.1323 238.701 50.9436C238.933 50.7548 239.106 50.5346 239.22 50.2829C239.334 50.0352 239.391 49.7717 239.391 49.4925V49.1917C239.242 49.2939 239.067 49.3923 238.866 49.4866C238.666 49.581 238.446 49.6636 238.206 49.7344C237.966 49.8052 237.71 49.8622 237.439 49.9054C237.171 49.9487 236.894 49.9703 236.607 49.9703C236.037 49.9703 235.51 49.8858 235.026 49.7167C234.543 49.5437 234.124 49.3038 233.77 48.9971C233.416 48.6864 233.139 48.3148 232.938 47.8822C232.742 47.4497 232.643 46.9699 232.643 46.443C232.643 45.9042 232.748 45.4166 232.956 44.9801C233.164 44.5397 233.451 44.1642 233.817 43.8535C234.187 43.5428 234.623 43.303 235.127 43.1339C235.63 42.9648 236.177 42.8802 236.766 42.8802C237.018 42.8802 237.268 42.896 237.516 42.9274C237.763 42.9589 237.999 43.0021 238.223 43.0572C238.451 43.1122 238.664 43.1791 238.86 43.2577C239.061 43.3325 239.238 43.415 239.391 43.5055V43.0041H241.137V49.1681C241.137 49.8012 241.041 50.3616 240.848 50.8492C240.656 51.3368 240.372 51.7458 239.999 52.0761C239.629 52.4104 239.169 52.662 238.619 52.8311C238.068 53.0041 237.437 53.0907 236.725 53.0907C236.469 53.0907 236.204 53.0789 235.929 53.0553C235.654 53.0356 235.376 53.0041 235.097 52.9609C234.822 52.9216 234.549 52.8724 234.277 52.8134C234.01 52.7584 233.752 52.6935 233.504 52.6188L234.153 51.1441ZM234.478 46.4253C234.478 46.7045 234.533 46.9679 234.643 47.2157C234.757 47.4595 234.918 47.6738 235.127 47.8586C235.335 48.0395 235.587 48.183 235.882 48.2892C236.177 48.3915 236.509 48.4426 236.878 48.4426C237.118 48.4426 237.356 48.421 237.592 48.3777C237.832 48.3305 238.06 48.2656 238.276 48.183C238.497 48.1005 238.701 48.0002 238.89 47.8822C239.083 47.7642 239.25 47.6325 239.391 47.487V45.1925C239.214 45.0509 239.028 44.931 238.831 44.8327C238.634 44.7343 238.434 44.6537 238.229 44.5908C238.025 44.5279 237.818 44.4827 237.61 44.4552C237.401 44.4237 237.199 44.408 237.002 44.408C236.601 44.408 236.243 44.461 235.929 44.5672C235.618 44.6734 235.355 44.8189 235.138 45.0037C234.926 45.1846 234.763 45.397 234.649 45.6408C234.535 45.8846 234.478 46.1461 234.478 46.4253ZM243.125 40.1846H244.871V43.535C245.237 43.3344 245.644 43.1752 246.092 43.0572C246.544 42.9392 247.018 42.8802 247.514 42.8802C248.088 42.8802 248.603 42.9648 249.059 43.1339C249.519 43.303 249.908 43.5468 250.227 43.8653C250.545 44.1799 250.789 44.5633 250.958 45.0155C251.131 45.4677 251.218 45.977 251.218 46.5432V49.9644H249.478V46.614C249.478 46.2837 249.425 45.9829 249.319 45.7115C249.212 45.4363 249.057 45.2003 248.853 45.0037C248.648 44.8071 248.398 44.6557 248.103 44.5495C247.812 44.4394 247.482 44.3844 247.112 44.3844C246.668 44.3844 246.255 44.4552 245.874 44.5967C245.492 44.7383 245.158 44.9172 244.871 45.1335V49.9644H243.125V40.1846ZM253.223 40.1787H254.969V49.9644H253.223V40.1787ZM258.043 50.8374C258.223 50.9554 258.42 51.0596 258.632 51.15C258.845 51.2405 259.065 51.3152 259.293 51.3742C259.525 51.4332 259.761 51.4764 260.001 51.5039C260.241 51.5354 260.479 51.5511 260.715 51.5511C261.517 51.5511 262.134 51.3781 262.567 51.0321C263.003 50.6899 263.221 50.1748 263.221 49.4866V49.2507C263.068 49.3569 262.895 49.4552 262.702 49.5456C262.514 49.6321 262.309 49.7068 262.089 49.7698C261.873 49.8327 261.643 49.8818 261.399 49.9172C261.159 49.9487 260.915 49.9644 260.667 49.9644C260.137 49.9644 259.661 49.8877 259.24 49.7344C258.823 49.5771 258.469 49.349 258.178 49.0501C257.891 48.7473 257.671 48.3757 257.518 47.9353C257.364 47.4949 257.288 46.9915 257.288 46.4253V43.0041H259.028V45.9416C259.028 46.7831 259.187 47.4044 259.505 47.8055C259.828 48.2027 260.335 48.4013 261.027 48.4013C261.515 48.4013 261.945 48.3167 262.319 48.1477C262.697 47.9746 262.997 47.7544 263.221 47.487V43.0041H264.967V49.1681C264.967 49.8327 264.873 50.4088 264.684 50.8964C264.496 51.3879 264.22 51.7949 263.859 52.1174C263.501 52.4399 263.06 52.6797 262.537 52.837C262.014 52.9982 261.42 53.0789 260.756 53.0789C260.107 53.0789 259.501 53.01 258.939 52.8724C258.377 52.7348 257.862 52.548 257.394 52.312L258.043 50.8374ZM271.456 40.7449H276.145C276.853 40.7449 277.467 40.8197 277.986 40.9691C278.505 41.1146 278.935 41.3269 279.277 41.6061C279.62 41.8853 279.873 42.2255 280.038 42.6266C280.207 43.0277 280.292 43.4819 280.292 43.9892C280.292 44.3313 280.251 44.6577 280.168 44.9683C280.086 45.2751 279.958 45.5582 279.785 45.8177C279.616 46.0773 279.401 46.3093 279.142 46.5138C278.882 46.7143 278.577 46.8814 278.227 47.0151L280.233 49.9644H277.944L276.21 47.3455H276.157L273.326 47.3396V49.9644H271.456V40.7449ZM276.192 45.7233C276.546 45.7233 276.855 45.6821 277.119 45.5995C277.386 45.5169 277.608 45.4009 277.785 45.2515C277.966 45.102 278.1 44.9211 278.186 44.7088C278.277 44.4925 278.322 44.2526 278.322 43.9892C278.322 43.474 278.145 43.0769 277.791 42.7977C277.437 42.5145 276.904 42.373 276.192 42.373H273.326V45.7233H276.192ZM281.961 46.4607C281.961 45.9888 282.058 45.5385 282.25 45.1099C282.443 44.6773 282.72 44.2959 283.082 43.9656C283.444 43.6352 283.886 43.3718 284.409 43.1752C284.936 42.9785 285.534 42.8802 286.202 42.8802C286.867 42.8802 287.465 42.9805 287.996 43.1811C288.53 43.3777 288.983 43.649 289.352 43.9951C289.726 44.3411 290.011 44.7481 290.207 45.2161C290.408 45.684 290.508 46.1854 290.508 46.7202C290.508 46.7871 290.506 46.8598 290.502 46.9384C290.502 47.0132 290.498 47.082 290.491 47.1449H283.908C283.983 47.3533 284.102 47.544 284.268 47.7171C284.437 47.8901 284.647 48.0395 284.899 48.1654C285.15 48.2912 285.441 48.3895 285.772 48.4603C286.102 48.5271 286.468 48.5606 286.869 48.5606C287.27 48.5606 287.669 48.5193 288.066 48.4367C288.463 48.3502 288.843 48.242 289.205 48.1123L289.795 49.4453C289.566 49.5515 289.334 49.6459 289.099 49.7285C288.867 49.8071 288.623 49.874 288.367 49.929C288.115 49.9801 287.85 50.0195 287.571 50.047C287.296 50.0745 287.005 50.0883 286.698 50.0883C285.915 50.0883 285.229 49.9939 284.639 49.8052C284.049 49.6164 283.556 49.3588 283.159 49.0324C282.762 48.7061 282.463 48.3226 282.262 47.8822C282.062 47.4418 281.961 46.9679 281.961 46.4607ZM288.656 45.7823C288.593 45.5896 288.495 45.4107 288.361 45.2456C288.231 45.0765 288.068 44.931 287.872 44.8091C287.675 44.6832 287.447 44.5849 287.187 44.5141C286.928 44.4434 286.643 44.408 286.332 44.408C286.002 44.408 285.701 44.4453 285.43 44.52C285.158 44.5947 284.92 44.695 284.716 44.8209C284.511 44.9467 284.34 45.0922 284.203 45.2574C284.069 45.4225 283.971 45.5975 283.908 45.7823H288.656ZM293.481 51.1441C293.701 51.2228 293.926 51.2877 294.154 51.3388C294.382 51.3938 294.602 51.4371 294.814 51.4686C295.031 51.5039 295.237 51.5275 295.434 51.5393C295.63 51.5551 295.805 51.5629 295.959 51.5629C296.423 51.5629 296.826 51.5059 297.168 51.3919C297.514 51.2818 297.801 51.1323 298.029 50.9436C298.261 50.7548 298.434 50.5346 298.548 50.2829C298.662 50.0352 298.719 49.7717 298.719 49.4925V49.1917C298.57 49.2939 298.395 49.3923 298.194 49.4866C297.994 49.581 297.773 49.6636 297.533 49.7344C297.294 49.8052 297.038 49.8622 296.767 49.9054C296.499 49.9487 296.222 49.9703 295.935 49.9703C295.365 49.9703 294.838 49.8858 294.354 49.7167C293.87 49.5437 293.452 49.3038 293.098 48.9971C292.744 48.6864 292.467 48.3148 292.266 47.8822C292.069 47.4497 291.971 46.9699 291.971 46.443C291.971 45.9042 292.075 45.4166 292.284 44.9801C292.492 44.5397 292.779 44.1642 293.145 43.8535C293.515 43.5428 293.951 43.303 294.454 43.1339C294.958 42.9648 295.504 42.8802 296.094 42.8802C296.346 42.8802 296.596 42.896 296.843 42.9274C297.091 42.9589 297.327 43.0021 297.551 43.0572C297.779 43.1122 297.992 43.1791 298.188 43.2577C298.389 43.3325 298.566 43.415 298.719 43.5055V43.0041H300.465V49.1681C300.465 49.8012 300.369 50.3616 300.176 50.8492C299.983 51.3368 299.7 51.7458 299.327 52.0761C298.957 52.4104 298.497 52.662 297.946 52.8311C297.396 53.0041 296.765 53.0907 296.053 53.0907C295.797 53.0907 295.532 53.0789 295.257 53.0553C294.981 53.0356 294.704 53.0041 294.425 52.9609C294.15 52.9216 293.876 52.8724 293.605 52.8134C293.338 52.7584 293.08 52.6935 292.832 52.6188L293.481 51.1441ZM293.806 46.4253C293.806 46.7045 293.861 46.9679 293.971 47.2157C294.085 47.4595 294.246 47.6738 294.454 47.8586C294.663 48.0395 294.915 48.183 295.209 48.2892C295.504 48.3915 295.837 48.4426 296.206 48.4426C296.446 48.4426 296.684 48.421 296.92 48.3777C297.16 48.3305 297.388 48.2656 297.604 48.183C297.824 48.1005 298.029 48.0002 298.218 47.8822C298.41 47.7642 298.578 47.6325 298.719 47.487V45.1925C298.542 45.0509 298.355 44.931 298.159 44.8327C297.962 44.7343 297.762 44.6537 297.557 44.5908C297.353 44.5279 297.146 44.4827 296.938 44.4552C296.729 44.4237 296.527 44.408 296.33 44.408C295.929 44.408 295.571 44.461 295.257 44.5672C294.946 44.6734 294.683 44.8189 294.466 45.0037C294.254 45.1846 294.091 45.397 293.977 45.6408C293.863 45.8846 293.806 46.1461 293.806 46.4253ZM302.453 42.9982H304.193V46.3958C304.193 46.7182 304.228 47.0132 304.299 47.2806C304.37 47.544 304.49 47.7701 304.659 47.9589C304.832 48.1477 305.06 48.2951 305.343 48.4013C305.63 48.5035 305.986 48.5547 306.411 48.5547C306.611 48.5547 306.814 48.533 307.018 48.4898C307.227 48.4465 307.425 48.3875 307.614 48.3128C307.803 48.2342 307.978 48.1418 308.139 48.0356C308.304 47.9294 308.446 47.8134 308.564 47.6876V42.9982H310.31V49.9644H308.564V49.3687C308.135 49.6243 307.705 49.8071 307.272 49.9172C306.839 50.0273 306.429 50.0824 306.039 50.0824C305.402 50.0824 304.856 50.0057 304.399 49.8523C303.947 49.699 303.576 49.4768 303.285 49.1858C302.998 48.8909 302.787 48.5311 302.653 48.1064C302.52 47.6777 302.453 47.1901 302.453 46.6435V42.9982ZM312.575 40.1787H314.321V49.9644H312.575V40.1787ZM316.232 47.7701C316.232 47.4359 316.305 47.1311 316.45 46.8559C316.596 46.5806 316.814 46.3447 317.105 46.148C317.396 45.9475 317.758 45.7941 318.19 45.688C318.627 45.5778 319.134 45.5228 319.712 45.5228C320.141 45.5228 320.591 45.5543 321.063 45.6172C321.539 45.6801 322.028 45.7764 322.532 45.9062C322.512 45.686 322.445 45.4835 322.331 45.2986C322.217 45.1099 322.058 44.9487 321.853 44.815C321.653 44.6773 321.409 44.5712 321.122 44.4964C320.839 44.4217 320.516 44.3844 320.155 44.3844C319.958 44.3844 319.742 44.3962 319.506 44.4198C319.27 44.4434 319.026 44.4787 318.774 44.5259C318.523 44.5731 318.273 44.6321 318.025 44.7029C317.781 44.7737 317.553 44.8582 317.341 44.9565L316.81 43.5232C317.073 43.4288 317.355 43.3423 317.654 43.2636C317.956 43.185 318.265 43.1181 318.58 43.0631C318.894 43.0041 319.209 42.9589 319.523 42.9274C319.838 42.896 320.143 42.8802 320.438 42.8802C321.739 42.8802 322.707 43.2125 323.34 43.8771C323.973 44.5417 324.289 45.5601 324.289 46.9326V49.9644H322.543V49.3097C322.363 49.4158 322.164 49.5161 321.948 49.6105C321.735 49.7049 321.503 49.7875 321.252 49.8582C321 49.929 320.729 49.9841 320.438 50.0234C320.151 50.0667 319.846 50.0883 319.523 50.0883C318.981 50.0883 318.503 50.0293 318.09 49.9113C317.681 49.7934 317.339 49.6302 317.064 49.4217C316.788 49.2133 316.58 48.9695 316.438 48.6903C316.301 48.4072 316.232 48.1005 316.232 47.7701ZM318.072 47.7112C318.072 47.8252 318.102 47.9353 318.161 48.0415C318.22 48.1437 318.314 48.2361 318.444 48.3187C318.574 48.3974 318.739 48.4622 318.939 48.5134C319.144 48.5606 319.39 48.5842 319.677 48.5842C319.983 48.5842 320.28 48.5566 320.567 48.5016C320.854 48.4465 321.122 48.3738 321.37 48.2833C321.617 48.1929 321.841 48.0887 322.042 47.9707C322.243 47.8527 322.41 47.7308 322.543 47.605V47.2983C322.276 47.2235 322.011 47.1606 321.747 47.1095C321.488 47.0584 321.238 47.0191 320.998 46.9915C320.762 46.9601 320.538 46.9384 320.326 46.9267C320.117 46.9149 319.934 46.909 319.777 46.909C319.451 46.909 319.179 46.9306 318.963 46.9738C318.747 47.0171 318.572 47.0761 318.438 47.1508C318.304 47.2216 318.21 47.3061 318.155 47.4044C318.1 47.5027 318.072 47.605 318.072 47.7112ZM327.652 44.3136H325.97V43.0041H327.652V40.8393H329.398V43.0041H331.079V44.3136H329.398V49.9644H327.652V44.3136ZM332.3 46.4607C332.3 45.9888 332.396 45.5385 332.589 45.1099C332.781 44.6773 333.059 44.2959 333.42 43.9656C333.782 43.6352 334.225 43.3718 334.748 43.1752C335.275 42.9785 335.872 42.8802 336.541 42.8802C337.205 42.8802 337.803 42.9805 338.334 43.1811C338.869 43.3777 339.321 43.649 339.691 43.9951C340.064 44.3411 340.349 44.7481 340.546 45.2161C340.746 45.684 340.847 46.1854 340.847 46.7202C340.847 46.7871 340.845 46.8598 340.841 46.9384C340.841 47.0132 340.837 47.082 340.829 47.1449H334.246C334.321 47.3533 334.441 47.544 334.606 47.7171C334.775 47.8901 334.985 48.0395 335.237 48.1654C335.489 48.2912 335.78 48.3895 336.11 48.4603C336.44 48.5271 336.806 48.5606 337.207 48.5606C337.608 48.5606 338.008 48.5193 338.405 48.4367C338.802 48.3502 339.181 48.242 339.543 48.1123L340.133 49.4453C339.905 49.5515 339.673 49.6459 339.437 49.7285C339.205 49.8071 338.961 49.874 338.706 49.929C338.454 49.9801 338.188 50.0195 337.909 50.047C337.634 50.0745 337.343 50.0883 337.036 50.0883C336.254 50.0883 335.567 49.9939 334.978 49.8052C334.388 49.6164 333.894 49.3588 333.497 49.0324C333.1 48.7061 332.801 48.3226 332.601 47.8822C332.4 47.4418 332.3 46.9679 332.3 46.4607ZM338.995 45.7823C338.932 45.5896 338.833 45.4107 338.7 45.2456C338.57 45.0765 338.407 44.931 338.21 44.8091C338.013 44.6832 337.785 44.5849 337.526 44.5141C337.266 44.4434 336.981 44.408 336.671 44.408C336.34 44.408 336.039 44.4453 335.768 44.52C335.497 44.5947 335.259 44.695 335.054 44.8209C334.85 44.9467 334.679 45.0922 334.541 45.2574C334.407 45.4225 334.309 45.5975 334.246 45.7823H338.995ZM342.192 46.5138C342.192 45.9593 342.296 45.4599 342.504 45.0155C342.713 44.5672 343 44.1858 343.365 43.8712C343.735 43.5527 344.172 43.3089 344.675 43.1398C345.182 42.9667 345.731 42.8802 346.321 42.8802C346.572 42.8802 346.82 42.896 347.064 42.9274C347.312 42.9589 347.547 43.0021 347.772 43.0572C348 43.1122 348.212 43.1791 348.409 43.2577C348.609 43.3325 348.786 43.415 348.94 43.5055V40.1787H350.686V49.9644H348.94V49.3097C348.786 49.4158 348.605 49.5161 348.397 49.6105C348.188 49.7049 347.964 49.7875 347.724 49.8582C347.485 49.929 347.235 49.9841 346.975 50.0234C346.72 50.0667 346.466 50.0883 346.214 50.0883C345.625 50.0883 345.082 50.0018 344.586 49.8287C344.095 49.6557 343.672 49.4119 343.318 49.0973C342.964 48.7827 342.687 48.4072 342.487 47.9707C342.29 47.5303 342.192 47.0446 342.192 46.5138ZM344.026 46.5138C344.026 46.793 344.081 47.0564 344.191 47.3042C344.305 47.5519 344.466 47.7701 344.675 47.9589C344.887 48.1437 345.141 48.2912 345.436 48.4013C345.735 48.5075 346.069 48.5606 346.439 48.5606C346.674 48.5606 346.91 48.5389 347.146 48.4957C347.382 48.4485 347.608 48.3836 347.825 48.301C348.045 48.2184 348.249 48.1182 348.438 48.0002C348.631 47.8822 348.798 47.7505 348.94 47.605V45.1925C348.763 45.0509 348.576 44.931 348.379 44.8327C348.183 44.7343 347.982 44.6537 347.778 44.5908C347.573 44.5279 347.367 44.4827 347.158 44.4552C346.95 44.4237 346.747 44.408 346.551 44.408C346.15 44.408 345.792 44.463 345.477 44.5731C345.166 44.6793 344.903 44.8268 344.687 45.0155C344.474 45.2043 344.311 45.4264 344.197 45.6821C344.083 45.9377 344.026 46.2149 344.026 46.5138ZM356.82 40.7449H358.702V49.9644H356.82V40.7449ZM360.872 43.0041H362.618V43.594C363.082 43.3305 363.525 43.1457 363.946 43.0395C364.37 42.9333 364.785 42.8802 365.19 42.8802C365.721 42.8802 366.213 42.9589 366.665 43.1162C367.117 43.2695 367.508 43.4996 367.839 43.8063C368.169 44.113 368.426 44.4964 368.611 44.9565C368.8 45.4127 368.894 45.9416 368.894 46.5432V49.9644H367.154V46.8264C367.154 46.4449 367.099 46.1048 366.989 45.8059C366.883 45.5031 366.728 45.2495 366.523 45.045C366.323 44.8366 366.077 44.6793 365.786 44.5731C365.499 44.463 365.176 44.408 364.819 44.408C364.63 44.408 364.435 44.4276 364.235 44.4669C364.038 44.5063 363.843 44.5633 363.651 44.638C363.462 44.7088 363.279 44.7992 363.102 44.9093C362.925 45.0155 362.764 45.1374 362.618 45.2751V49.9644H360.872V43.0041ZM370.505 46.5138C370.505 45.9593 370.609 45.4599 370.817 45.0155C371.026 44.5672 371.313 44.1858 371.679 43.8712C372.048 43.5527 372.485 43.3089 372.988 43.1398C373.495 42.9667 374.044 42.8802 374.634 42.8802C374.885 42.8802 375.133 42.896 375.377 42.9274C375.625 42.9589 375.861 43.0021 376.085 43.0572C376.313 43.1122 376.525 43.1791 376.722 43.2577C376.922 43.3325 377.099 43.415 377.253 43.5055V40.1787H378.999V49.9644H377.253V49.3097C377.099 49.4158 376.918 49.5161 376.71 49.6105C376.502 49.7049 376.277 49.7875 376.038 49.8582C375.798 49.929 375.548 49.9841 375.288 50.0234C375.033 50.0667 374.779 50.0883 374.528 50.0883C373.938 50.0883 373.395 50.0018 372.9 49.8287C372.408 49.6557 371.985 49.4119 371.631 49.0973C371.277 48.7827 371 48.4072 370.8 47.9707C370.603 47.5303 370.505 47.0446 370.505 46.5138ZM372.339 46.5138C372.339 46.793 372.394 47.0564 372.504 47.3042C372.618 47.5519 372.78 47.7701 372.988 47.9589C373.2 48.1437 373.454 48.2912 373.749 48.4013C374.048 48.5075 374.382 48.5606 374.752 48.5606C374.988 48.5606 375.224 48.5389 375.46 48.4957C375.695 48.4485 375.922 48.3836 376.138 48.301C376.358 48.2184 376.563 48.1182 376.751 48.0002C376.944 47.8822 377.111 47.7505 377.253 47.605V45.1925C377.076 45.0509 376.889 44.931 376.692 44.8327C376.496 44.7343 376.295 44.6537 376.091 44.5908C375.886 44.5279 375.68 44.4827 375.471 44.4552C375.263 44.4237 375.06 44.408 374.864 44.408C374.463 44.408 374.105 44.463 373.79 44.5731C373.48 44.6793 373.216 44.8268 373 45.0155C372.787 45.2043 372.624 45.4264 372.51 45.6821C372.396 45.9377 372.339 46.2149 372.339 46.5138ZM381.14 42.9982H382.88V46.3958C382.88 46.7182 382.915 47.0132 382.986 47.2806C383.057 47.544 383.177 47.7701 383.346 47.9589C383.519 48.1477 383.747 48.2951 384.03 48.4013C384.317 48.5035 384.673 48.5547 385.098 48.5547C385.298 48.5547 385.501 48.533 385.705 48.4898C385.914 48.4465 386.112 48.3875 386.301 48.3128C386.49 48.2342 386.665 48.1418 386.826 48.0356C386.991 47.9294 387.133 47.8134 387.251 47.6876V42.9982H388.997V49.9644H387.251V49.3687C386.822 49.6243 386.392 49.8071 385.959 49.9172C385.526 50.0273 385.115 50.0824 384.726 50.0824C384.089 50.0824 383.543 50.0057 383.086 49.8523C382.634 49.699 382.263 49.4768 381.972 49.1858C381.684 48.8909 381.474 48.5311 381.34 48.1064C381.207 47.6777 381.14 47.1901 381.14 46.6435V42.9982ZM391.492 47.8291C391.964 48.1123 392.483 48.3207 393.049 48.4544C393.615 48.5881 394.195 48.6549 394.789 48.6549C395.19 48.6549 395.525 48.6274 395.792 48.5724C396.059 48.5173 396.274 48.4465 396.435 48.36C396.596 48.2735 396.71 48.1752 396.777 48.0651C396.844 47.955 396.877 47.8429 396.877 47.7289C396.877 47.5637 396.804 47.4221 396.659 47.3042C396.517 47.1862 396.281 47.1272 395.951 47.1272C395.798 47.1272 395.633 47.137 395.456 47.1567C395.279 47.1764 395.092 47.198 394.895 47.2216C394.703 47.2412 394.5 47.2609 394.288 47.2806C394.079 47.3002 393.867 47.3101 393.651 47.3101C393.179 47.3101 392.776 47.2589 392.442 47.1567C392.111 47.0545 391.842 46.9149 391.633 46.7379C391.425 46.5609 391.274 46.3525 391.179 46.1126C391.085 45.8688 391.038 45.6073 391.038 45.3281C391.038 44.9742 391.12 44.6478 391.285 44.349C391.451 44.0501 391.687 43.7925 391.993 43.5763C392.3 43.356 392.67 43.185 393.102 43.0631C393.539 42.9412 394.024 42.8802 394.559 42.8802C394.838 42.8802 395.129 42.8979 395.432 42.9333C395.739 42.9648 396.04 43.008 396.335 43.0631C396.63 43.1181 396.913 43.183 397.184 43.2577C397.455 43.3285 397.695 43.4052 397.904 43.4878L397.355 44.8445C396.911 44.6793 396.466 44.5495 396.022 44.4552C395.582 44.3568 395.127 44.3077 394.659 44.3077C394.333 44.3077 394.056 44.3332 393.828 44.3844C393.604 44.4316 393.421 44.4964 393.279 44.579C393.138 44.6577 393.033 44.7501 392.966 44.8563C392.904 44.9585 392.872 45.0666 392.872 45.1807C392.872 45.2633 392.888 45.338 392.919 45.4048C392.955 45.4717 393.01 45.5307 393.084 45.5818C393.163 45.629 393.263 45.6663 393.385 45.6939C393.511 45.7174 393.664 45.7292 393.845 45.7292C394.011 45.7292 394.186 45.7194 394.37 45.6997C394.555 45.6801 394.748 45.6604 394.948 45.6408C395.149 45.6172 395.355 45.5955 395.568 45.5759C395.784 45.5562 396.004 45.5464 396.228 45.5464C396.645 45.5464 397.009 45.5955 397.32 45.6939C397.634 45.7922 397.894 45.9298 398.098 46.1068C398.303 46.2837 398.456 46.4921 398.558 46.732C398.661 46.9719 398.712 47.2334 398.712 47.5165C398.712 47.8822 398.627 48.2224 398.458 48.537C398.289 48.8516 398.037 49.1249 397.703 49.3569C397.369 49.5849 396.952 49.7639 396.453 49.8936C395.957 50.0234 395.383 50.0883 394.73 50.0883C394.329 50.0883 393.942 50.0627 393.568 50.0116C393.195 49.9644 392.839 49.8995 392.501 49.817C392.162 49.7304 391.844 49.6302 391.545 49.5161C391.25 49.4021 390.981 49.2802 390.737 49.1504L391.492 47.8291ZM401.337 44.3136H399.655V43.0041H401.337V40.8393H403.083V43.0041H404.764V44.3136H403.083V49.9644H401.337V44.3136ZM406.315 43.0041H408.061V44.0069C408.446 43.7198 408.853 43.4721 409.282 43.2636C409.711 43.0552 410.137 42.896 410.562 42.7859L411.075 44.3844C410.403 44.4512 409.811 44.6026 409.3 44.8386C408.792 45.0706 408.379 45.3989 408.061 45.8236V49.9644H406.315V43.0041ZM413.299 42.0544C413.126 42.0544 412.969 42.0308 412.827 41.9836C412.689 41.9325 412.571 41.8657 412.473 41.7831C412.375 41.6966 412.298 41.5983 412.243 41.4882C412.192 41.3741 412.166 41.2542 412.166 41.1284C412.166 40.9986 412.192 40.8786 412.243 40.7685C412.298 40.6545 412.375 40.5562 412.473 40.4736C412.571 40.391 412.689 40.3261 412.827 40.279C412.969 40.2278 413.126 40.2023 413.299 40.2023C413.476 40.2023 413.633 40.2278 413.771 40.279C413.912 40.3261 414.032 40.391 414.131 40.4736C414.229 40.5562 414.304 40.6545 414.355 40.7685C414.41 40.8786 414.437 40.9986 414.437 41.1284C414.437 41.2542 414.41 41.3741 414.355 41.4882C414.304 41.5983 414.229 41.6966 414.131 41.7831C414.032 41.8657 413.912 41.9325 413.771 41.9836C413.633 42.0308 413.476 42.0544 413.299 42.0544ZM412.426 43.0041H414.172V49.9644H412.426V43.0041ZM416.083 46.4607C416.083 45.9888 416.179 45.5385 416.372 45.1099C416.565 44.6773 416.842 44.2959 417.204 43.9656C417.566 43.6352 418.008 43.3718 418.531 43.1752C419.058 42.9785 419.656 42.8802 420.324 42.8802C420.989 42.8802 421.586 42.9805 422.117 43.1811C422.652 43.3777 423.104 43.649 423.474 43.9951C423.847 44.3411 424.133 44.7481 424.329 45.2161C424.53 45.684 424.63 46.1854 424.63 46.7202C424.63 46.7871 424.628 46.8598 424.624 46.9384C424.624 47.0132 424.62 47.082 424.612 47.1449H418.03C418.104 47.3533 418.224 47.544 418.389 47.7171C418.558 47.8901 418.769 48.0395 419.02 48.1654C419.272 48.2912 419.563 48.3895 419.893 48.4603C420.224 48.5271 420.59 48.5606 420.991 48.5606C421.392 48.5606 421.791 48.5193 422.188 48.4367C422.585 48.3502 422.965 48.242 423.326 48.1123L423.916 49.4453C423.688 49.5515 423.456 49.6459 423.22 49.7285C422.988 49.8071 422.744 49.874 422.489 49.929C422.237 49.9801 421.972 50.0195 421.693 50.047C421.417 50.0745 421.126 50.0883 420.82 50.0883C420.037 50.0883 419.351 49.9939 418.761 49.8052C418.171 49.6164 417.678 49.3588 417.28 49.0324C416.883 48.7061 416.584 48.3226 416.384 47.8822C416.183 47.4418 416.083 46.9679 416.083 46.4607ZM422.778 45.7823C422.715 45.5896 422.617 45.4107 422.483 45.2456C422.353 45.0765 422.19 44.931 421.993 44.8091C421.797 44.6832 421.569 44.5849 421.309 44.5141C421.05 44.4434 420.764 44.408 420.454 44.408C420.124 44.408 419.823 44.4453 419.551 44.52C419.28 44.5947 419.042 44.695 418.838 44.8209C418.633 44.9467 418.462 45.0922 418.324 45.2574C418.191 45.4225 418.092 45.5975 418.03 45.7823H422.778ZM426.789 47.8291C427.261 48.1123 427.78 48.3207 428.346 48.4544C428.912 48.5881 429.492 48.6549 430.086 48.6549C430.487 48.6549 430.822 48.6274 431.089 48.5724C431.356 48.5173 431.571 48.4465 431.732 48.36C431.893 48.2735 432.007 48.1752 432.074 48.0651C432.141 47.955 432.174 47.8429 432.174 47.7289C432.174 47.5637 432.102 47.4221 431.956 47.3042C431.814 47.1862 431.579 47.1272 431.248 47.1272C431.095 47.1272 430.93 47.137 430.753 47.1567C430.576 47.1764 430.389 47.198 430.192 47.2216C430 47.2412 429.797 47.2609 429.585 47.2806C429.376 47.3002 429.164 47.3101 428.948 47.3101C428.476 47.3101 428.073 47.2589 427.739 47.1567C427.408 47.0545 427.139 46.9149 426.93 46.7379C426.722 46.5609 426.571 46.3525 426.476 46.1126C426.382 45.8688 426.335 45.6073 426.335 45.3281C426.335 44.9742 426.417 44.6478 426.582 44.349C426.748 44.0501 426.984 43.7925 427.29 43.5763C427.597 43.356 427.967 43.185 428.399 43.0631C428.836 42.9412 429.321 42.8802 429.856 42.8802C430.135 42.8802 430.426 42.8979 430.729 42.9333C431.036 42.9648 431.337 43.008 431.632 43.0631C431.927 43.1181 432.21 43.183 432.481 43.2577C432.752 43.3285 432.992 43.4052 433.201 43.4878L432.652 44.8445C432.208 44.6793 431.763 44.5495 431.319 44.4552C430.879 44.3568 430.424 44.3077 429.956 44.3077C429.63 44.3077 429.353 44.3332 429.125 44.3844C428.901 44.4316 428.718 44.4964 428.576 44.579C428.435 44.6577 428.33 44.7501 428.264 44.8563C428.201 44.9585 428.169 45.0666 428.169 45.1807C428.169 45.2633 428.185 45.338 428.216 45.4048C428.252 45.4717 428.307 45.5307 428.381 45.5818C428.46 45.629 428.56 45.6663 428.682 45.6939C428.808 45.7174 428.962 45.7292 429.142 45.7292C429.308 45.7292 429.483 45.7194 429.667 45.6997C429.852 45.6801 430.045 45.6604 430.245 45.6408C430.446 45.6172 430.652 45.5955 430.865 45.5759C431.081 45.5562 431.301 45.5464 431.525 45.5464C431.942 45.5464 432.306 45.5955 432.617 45.6939C432.931 45.7922 433.191 45.9298 433.395 46.1068C433.6 46.2837 433.753 46.4921 433.855 46.732C433.958 46.9719 434.009 47.2334 434.009 47.5165C434.009 47.8822 433.924 48.2224 433.755 48.537C433.586 48.8516 433.334 49.1249 433 49.3569C432.666 49.5849 432.249 49.7639 431.75 49.8936C431.254 50.0234 430.68 50.0883 430.027 50.0883C429.626 50.0883 429.239 50.0627 428.865 50.0116C428.492 49.9644 428.136 49.8995 427.798 49.817C427.459 49.7304 427.141 49.6302 426.842 49.5161C426.547 49.4021 426.278 49.2802 426.034 49.1504L426.789 47.8291Z" fill="#4D4D4D"/>
</svg>
