<svg width="441" height="54" viewBox="0 0 441 54" fill="none" xmlns="http://www.w3.org/2000/svg">
<path d="M3.2053 7.0132H11.4784C13.8945 7.0132 15.9928 7.27309 17.7735 7.79287C19.5543 8.31265 21.027 9.05863 22.1917 10.0308C23.366 10.9934 24.2371 12.1677 24.805 13.5538C25.3825 14.9302 25.6713 16.4799 25.6713 18.2029C25.6713 19.8392 25.3873 21.3552 24.8194 22.7509C24.2515 24.137 23.3852 25.3402 22.2205 26.3605C21.0558 27.3712 19.5831 28.1653 17.8024 28.7428C16.0217 29.3107 13.9233 29.5947 11.5073 29.5947L3.2053 29.5803V7.0132ZM12.6046 25.6242C13.9715 25.6242 15.1698 25.4509 16.1998 25.1044C17.2297 24.7482 18.0864 24.2477 18.7698 23.6028C19.4628 22.9579 19.9826 22.1782 20.3291 21.2638C20.6756 20.3494 20.8489 19.3291 20.8489 18.2029C20.8489 17.0959 20.6756 16.0997 20.3291 15.2142C19.9826 14.319 19.4628 13.5634 18.7698 12.9473C18.0864 12.3217 17.2297 11.8404 16.1998 11.5035C15.1698 11.1666 13.9715 10.9982 12.6046 10.9982H7.78224V25.6242H12.6046ZM29.6851 7.0132H34.291V29.5803H29.6851V7.0132ZM38.5936 18.0874C38.5936 16.4992 38.892 15.0168 39.4887 13.6404C40.0855 12.2543 40.9566 11.0511 42.1021 10.0308C43.2475 9.0105 44.6528 8.20677 46.3181 7.61961C47.9929 7.03245 49.9084 6.73888 52.0645 6.73888C52.8442 6.73888 53.6238 6.78219 54.4035 6.86882C55.1928 6.94582 55.9677 7.07096 56.7281 7.24422C57.4981 7.41748 58.2441 7.63886 58.966 7.90838C59.6975 8.16827 60.3906 8.4811 61.0451 8.84687L58.9371 12.3121C58.5425 12.081 58.0949 11.8741 57.5944 11.6912C57.0938 11.4987 56.5548 11.3399 55.9773 11.2147C55.4094 11.08 54.8174 10.9789 54.2014 10.9115C53.595 10.8442 52.9837 10.8105 52.3677 10.8105C50.9431 10.8105 49.6726 10.9934 48.556 11.3591C47.4394 11.7153 46.4961 12.2206 45.7261 12.8752C44.956 13.5201 44.3689 14.2949 43.9646 15.1997C43.5603 16.1045 43.3582 17.0959 43.3582 18.174C43.3582 19.2906 43.57 20.3157 43.9935 21.2494C44.417 22.183 45.0186 22.9868 45.7983 23.6606C46.5779 24.3343 47.5212 24.8638 48.6282 25.2488C49.7351 25.6242 50.972 25.8119 52.3388 25.8119C53.4265 25.8119 54.4228 25.6915 55.3276 25.4509C56.2324 25.2006 57.0216 24.8493 57.6954 24.3969C58.3692 23.9445 58.9179 23.4007 59.3414 22.7654C59.7649 22.1205 60.0441 21.3986 60.1788 20.5996H52.2955V16.8312H64.2937V16.8457L64.3082 16.8312C64.5488 17.9863 64.621 19.1125 64.5247 20.2098C64.4381 21.2975 64.1879 22.3274 63.774 23.2996C63.3697 24.2622 62.8114 25.1477 62.0991 25.9562C61.3868 26.7648 60.535 27.4626 59.5435 28.0498C58.5521 28.6273 57.4259 29.0797 56.165 29.407C54.904 29.7246 53.5228 29.8835 52.0212 29.8835C49.9228 29.8835 48.041 29.5754 46.3758 28.9594C44.7202 28.3434 43.3149 27.5011 42.1598 26.4327C41.0048 25.3643 40.1192 24.113 39.5032 22.6788C38.8968 21.2446 38.5936 19.7141 38.5936 18.0874ZM69.1306 7.0132H73.7364V29.5803H69.1306V7.0132ZM86.3843 11.0271H78.0534V7.0132H99.2922V11.0271H90.9613V29.5803H86.3843V11.0271ZM111.882 7.0132H116.734L127.649 29.5803H122.841L121.036 25.783H107.854L106.107 29.5803H101.285L111.882 7.0132ZM119.231 22.0146L114.351 11.7634L109.601 22.0146H119.231ZM131.157 7.0132H135.734V25.5664H148.859V29.5803H131.157V7.0132ZM163.124 7.0132H174.602C176.335 7.0132 177.837 7.19609 179.107 7.56186C180.378 7.918 181.432 8.43778 182.269 9.12119C183.106 9.80461 183.727 10.6372 184.132 11.619C184.546 12.6008 184.752 13.7126 184.752 14.9543C184.752 15.7917 184.651 16.5906 184.449 17.351C184.247 18.1018 183.934 18.7949 183.511 19.4301C183.097 20.0654 182.572 20.6333 181.937 21.1339C181.302 21.6248 180.556 22.0338 179.699 22.3611L184.608 29.5803H179.006L174.761 23.1697H174.631L167.701 23.1552V29.5803H163.124V7.0132ZM174.718 19.1991C175.584 19.1991 176.34 19.0981 176.985 18.8959C177.639 18.6938 178.183 18.4098 178.616 18.0441C179.059 17.6783 179.386 17.2355 179.598 16.7157C179.819 16.1863 179.93 15.5992 179.93 14.9543C179.93 13.6933 179.497 12.7211 178.631 12.0377C177.764 11.3447 176.46 10.9982 174.718 10.9982H167.701V19.1991H174.718ZM190.181 7.0132H209.399V11.0271H194.758V15.5318H207.724V19.3002H194.758V25.5809H209.702V29.5803H190.181V7.0132ZM214.799 7.0132H219.375L227.576 15.243L235.777 7.0132H240.354V29.5803H235.777V13.3516L227.576 21.2494L219.375 13.3516V29.5803H214.799V7.0132ZM246.202 7.0132H250.808V29.5803H246.202V7.0132ZM263.456 11.0271H255.125V7.0132H276.363V11.0271H268.033V29.5803H263.456V11.0271ZM288.058 11.0271H279.728V7.0132H300.966V11.0271H292.635V29.5803H288.058V11.0271ZM313.556 7.0132H318.408L329.323 29.5803H324.515L322.71 25.783H309.528L307.781 29.5803H302.959L313.556 7.0132ZM320.906 22.0146L316.025 11.7634L311.275 22.0146H320.906ZM332.803 7.0132H337.38L351.443 14.3767V7.0132H356.02V29.5803H351.443V19.228L337.38 11.9078V29.5803H332.803V7.0132ZM361.03 18.1596C361.03 16.5521 361.333 15.0553 361.939 13.6693C362.546 12.2736 363.422 11.0656 364.567 10.0452C365.722 9.01531 367.127 8.20677 368.783 7.61961C370.448 7.03245 372.33 6.73888 374.428 6.73888C376.267 6.73888 377.951 6.92657 379.482 7.30197C381.022 7.66774 382.451 8.23083 383.77 8.99125L381.662 12.4564C381.267 12.1966 380.81 11.9655 380.29 11.7634C379.78 11.5613 379.231 11.3928 378.644 11.2581C378.067 11.1137 377.465 11.003 376.84 10.926C376.224 10.849 375.612 10.8105 375.006 10.8105C373.543 10.8105 372.239 10.9934 371.093 11.3591C369.948 11.7153 368.98 12.2206 368.191 12.8752C367.411 13.5201 366.815 14.2949 366.401 15.1997C365.996 16.0949 365.794 17.0815 365.794 18.1596C365.794 19.2761 366.006 20.3012 366.43 21.2349C366.853 22.1686 367.464 22.9771 368.263 23.6606C369.072 24.3343 370.054 24.8638 371.209 25.2488C372.373 25.6242 373.687 25.8119 375.15 25.8119C375.814 25.8119 376.474 25.7637 377.128 25.6675C377.783 25.5712 378.413 25.4413 379.02 25.2776C379.636 25.1044 380.228 24.9023 380.796 24.6712C381.364 24.4306 381.893 24.1707 382.384 23.8916L384.492 27.3568C383.26 28.1461 381.835 28.7669 380.218 29.2193C378.601 29.6621 376.883 29.8835 375.064 29.8835C372.744 29.8835 370.708 29.5851 368.956 28.9883C367.204 28.3819 365.741 27.5541 364.567 26.5049C363.393 25.4461 362.507 24.2044 361.91 22.7798C361.323 21.3456 361.03 19.8055 361.03 18.1596ZM389.545 7.0132H408.763V11.0271H394.122V15.5318H407.088V19.3002H394.122V25.5809H409.066V29.5803H389.545V7.0132ZM415.202 22.8665C416.02 23.3285 416.848 23.7472 417.685 24.1226C418.533 24.4884 419.408 24.8012 420.313 25.0611C421.218 25.3113 422.166 25.5038 423.158 25.6386C424.159 25.7734 425.222 25.8407 426.348 25.8407C427.706 25.8407 428.861 25.7541 429.814 25.5809C430.767 25.398 431.541 25.1525 432.138 24.8445C432.745 24.5269 433.183 24.1515 433.452 23.7183C433.731 23.2852 433.871 22.8135 433.871 22.3034C433.871 21.4852 433.529 20.8403 432.846 20.3686C432.162 19.8874 431.108 19.6467 429.684 19.6467C429.058 19.6467 428.399 19.69 427.706 19.7767C427.013 19.8537 426.31 19.9403 425.598 20.0365C424.895 20.1328 424.197 20.2242 423.504 20.3109C422.821 20.3879 422.176 20.4264 421.569 20.4264C420.559 20.4264 419.587 20.2964 418.653 20.0365C417.729 19.7767 416.906 19.3868 416.184 18.867C415.472 18.3473 414.904 17.6975 414.48 16.9179C414.057 16.1382 413.845 15.2286 413.845 14.189C413.845 13.573 413.927 12.9618 414.09 12.3554C414.264 11.749 414.533 11.1714 414.899 10.6228C415.274 10.0645 415.756 9.54953 416.343 9.07788C416.93 8.5966 417.637 8.18271 418.465 7.83619C419.303 7.48967 420.265 7.22015 421.353 7.02764C422.45 6.82551 423.697 6.72444 425.092 6.72444C426.103 6.72444 427.119 6.78219 428.139 6.8977C429.159 7.00358 430.151 7.15759 431.113 7.35972C432.085 7.56186 433.019 7.80731 433.914 8.09608C434.809 8.37522 435.642 8.68805 436.412 9.03457L434.405 12.7308C433.77 12.4516 433.086 12.1966 432.355 11.9655C431.623 11.7249 430.858 11.518 430.059 11.3447C429.26 11.1714 428.432 11.0367 427.576 10.9404C426.729 10.8345 425.862 10.7816 424.977 10.7816C423.716 10.7816 422.676 10.873 421.858 11.0559C421.05 11.2388 420.405 11.4746 419.923 11.7634C419.442 12.0425 419.105 12.3602 418.913 12.7163C418.73 13.0628 418.638 13.4094 418.638 13.7559C418.638 14.4297 418.942 14.9831 419.548 15.4163C420.154 15.8398 421.078 16.0516 422.32 16.0516C422.821 16.0516 423.393 16.0179 424.038 15.9505C424.693 15.8735 425.376 15.7917 426.089 15.7051C426.81 15.6184 427.542 15.5414 428.283 15.474C429.034 15.397 429.761 15.3585 430.463 15.3585C431.792 15.3585 432.966 15.5077 433.986 15.8061C435.016 16.1045 435.878 16.5329 436.571 17.0911C437.264 17.6398 437.788 18.3088 438.145 19.0981C438.501 19.8777 438.679 20.7536 438.679 21.7258C438.679 23.0253 438.376 24.1852 437.769 25.2055C437.172 26.2161 436.316 27.0728 435.199 27.7755C434.092 28.4685 432.754 28.9979 431.185 29.3637C429.616 29.7198 427.869 29.8979 425.944 29.8979C424.674 29.8979 423.432 29.8161 422.219 29.6525C421.006 29.4984 419.842 29.2771 418.725 28.9883C417.618 28.6899 416.559 28.3386 415.549 27.9343C414.548 27.5204 413.619 27.068 412.762 26.5771L415.202 22.8665Z" fill="black"/>
<path d="M0.935295 41.0315H2.75424V45.9719C2.75424 46.3774 2.80971 46.7389 2.92065 47.0564C3.03158 47.3701 3.19607 47.6359 3.41411 47.854C3.63598 48.072 3.9095 48.2384 4.23465 48.3532C4.5598 48.4641 4.93851 48.5196 5.37078 48.5196C5.79921 48.5196 6.17601 48.4641 6.50116 48.3532C6.83014 48.2384 7.10365 48.072 7.3217 47.854C7.54357 47.6359 7.70997 47.3701 7.8209 47.0564C7.93184 46.7389 7.98731 46.3774 7.98731 45.9719V41.0315H9.80626V46.19C9.80626 46.7791 9.7068 47.3146 9.50788 47.7966C9.30896 48.2786 9.02015 48.6917 8.64144 49.036C8.26273 49.3803 7.79795 49.6462 7.2471 49.8336C6.70008 50.021 6.07464 50.1148 5.37078 50.1148C4.66691 50.1148 4.03956 50.021 3.48871 49.8336C2.94169 49.6462 2.47882 49.3803 2.10011 49.036C1.7214 48.6917 1.43259 48.2786 1.23367 47.7966C1.03475 47.3146 0.935295 46.7791 0.935295 46.19V41.0315ZM11.8146 43.2292H13.513V43.803C13.9644 43.5467 14.3947 43.3669 14.8041 43.2636C15.2172 43.1603 15.6208 43.1087 16.0148 43.1087C16.5312 43.1087 17.0094 43.1852 17.4493 43.3382C17.8892 43.4874 18.2698 43.7111 18.5911 44.0095C18.9125 44.3079 19.163 44.6809 19.3428 45.1284C19.5264 45.5722 19.6182 46.0867 19.6182 46.672V50H17.9255V46.9474C17.9255 46.5763 17.872 46.2454 17.7649 45.9547C17.6616 45.6602 17.5105 45.4134 17.3116 45.2145C17.1165 45.0118 16.8774 44.8587 16.5943 44.7555C16.3151 44.6484 16.0014 44.5948 15.6533 44.5948C15.4697 44.5948 15.2803 44.6139 15.0852 44.6522C14.894 44.6904 14.7046 44.7459 14.5172 44.8186C14.3335 44.8874 14.1557 44.9754 13.9835 45.0825C13.8114 45.1858 13.6545 45.3044 13.513 45.4383V50H11.8146V43.2292ZM21.4315 44.8014H26.6932V46.0752H21.4315V44.8014ZM28.5007 40.4806H30.1991V43.8661C30.3483 43.7628 30.5243 43.6652 30.727 43.5734C30.9298 43.4816 31.1478 43.4013 31.3812 43.3324C31.6145 43.2636 31.8555 43.21 32.1042 43.1718C32.3528 43.1297 32.6014 43.1087 32.8501 43.1087C33.4239 43.1087 33.9499 43.1928 34.428 43.3611C34.91 43.5294 35.3232 43.7666 35.6675 44.0726C36.0117 44.3787 36.2795 44.7459 36.4708 45.1743C36.6659 45.5989 36.7634 46.0695 36.7634 46.5859C36.7634 47.1253 36.662 47.613 36.4593 48.0491C36.2566 48.4813 35.9754 48.8524 35.6158 49.1623C35.2601 49.4683 34.8354 49.7054 34.342 49.8738C33.8523 50.0383 33.3206 50.1205 32.7468 50.1205C32.502 50.1205 32.2591 50.1052 32.0181 50.0746C31.7809 50.044 31.5514 50.0019 31.3295 49.9484C31.1115 49.8948 30.9049 49.8317 30.7098 49.759C30.5186 49.6825 30.3483 49.6003 30.1991 49.5123V50H28.5007V40.4806ZM30.1991 47.8712C30.3713 48.0089 30.553 48.1256 30.7442 48.2212C30.9355 48.3169 31.1306 48.3953 31.3295 48.4565C31.5284 48.5177 31.7293 48.5636 31.932 48.5942C32.1348 48.621 32.3318 48.6344 32.523 48.6344C32.9132 48.6344 33.2594 48.5827 33.5616 48.4794C33.8676 48.3723 34.1239 48.227 34.3305 48.0433C34.5409 47.8597 34.7016 47.6436 34.8125 47.3949C34.9234 47.1463 34.9789 46.8766 34.9789 46.5859C34.9789 46.3143 34.9234 46.058 34.8125 45.817C34.7054 45.576 34.5485 45.3656 34.342 45.1858C34.1392 45.0022 33.8925 44.8587 33.6018 44.7555C33.3149 44.6484 32.9916 44.5948 32.6321 44.5948C32.4025 44.5948 32.173 44.6177 31.9435 44.6637C31.714 44.7057 31.4921 44.7669 31.2779 44.8473C31.0675 44.9276 30.8686 45.0251 30.6811 45.1399C30.4975 45.2547 30.3368 45.3828 30.1991 45.5244V47.8712ZM38.0143 47.8655C38.0143 47.5403 38.0851 47.2438 38.2266 46.9761C38.3681 46.7083 38.5805 46.4788 38.8635 46.2875C39.1466 46.0924 39.4985 45.9432 39.9193 45.8399C40.3439 45.7328 40.8374 45.6793 41.3997 45.6793C41.8167 45.6793 42.2547 45.7099 42.7137 45.7711C43.1766 45.8323 43.6529 45.926 44.1425 46.0523C44.1234 45.838 44.0583 45.641 43.9474 45.4612C43.8365 45.2776 43.6815 45.1208 43.4826 44.9907C43.2875 44.8568 43.0504 44.7535 42.7711 44.6809C42.4957 44.6082 42.182 44.5718 41.8301 44.5718C41.6388 44.5718 41.4284 44.5833 41.1989 44.6063C40.9694 44.6292 40.7322 44.6637 40.4874 44.7096C40.2426 44.7555 39.9997 44.8128 39.7587 44.8817C39.5215 44.9506 39.2996 45.0328 39.093 45.1284L38.5766 43.7341C38.8329 43.6423 39.1064 43.5581 39.3972 43.4816C39.6917 43.4051 39.992 43.3401 40.298 43.2865C40.6041 43.2292 40.9101 43.1852 41.2161 43.1546C41.5221 43.124 41.8186 43.1087 42.1055 43.1087C43.3717 43.1087 44.3127 43.4319 44.9286 44.0784C45.5445 44.7249 45.8524 45.7156 45.8524 47.0507V50H44.154V49.3631C43.978 49.4664 43.7848 49.5639 43.5744 49.6557C43.3679 49.7475 43.1422 49.8279 42.8973 49.8967C42.6525 49.9656 42.3886 50.0191 42.1055 50.0574C41.8263 50.0995 41.5298 50.1205 41.2161 50.1205C40.6882 50.1205 40.2234 50.0631 39.8218 49.9484C39.4239 49.8336 39.0911 49.6748 38.8234 49.4721C38.5556 49.2694 38.3528 49.0322 38.2151 48.7606C38.0812 48.4852 38.0143 48.1868 38.0143 47.8655ZM39.8046 47.8081C39.8046 47.919 39.8333 48.0261 39.8906 48.1294C39.948 48.2289 40.0398 48.3188 40.1661 48.3991C40.2923 48.4756 40.453 48.5387 40.648 48.5885C40.847 48.6344 41.0861 48.6573 41.3653 48.6573C41.6637 48.6573 41.9525 48.6305 42.2317 48.577C42.511 48.5234 42.7711 48.4527 43.0121 48.3647C43.2531 48.2767 43.4711 48.1753 43.6662 48.0606C43.8613 47.9458 44.0239 47.8272 44.154 47.7048V47.4064C43.8938 47.3337 43.6356 47.2725 43.3793 47.2228C43.1269 47.1731 42.884 47.1348 42.6506 47.108C42.4211 47.0774 42.203 47.0564 41.9965 47.0449C41.7937 47.0334 41.6159 47.0277 41.4628 47.0277C41.1453 47.0277 40.8814 47.0488 40.671 47.0908C40.4606 47.1329 40.2904 47.1903 40.1603 47.263C40.0303 47.3318 39.9384 47.4141 39.8849 47.5097C39.8313 47.6053 39.8046 47.7048 39.8046 47.8081ZM48.1017 43.2292H49.8002V43.803C50.2516 43.5467 50.6819 43.3669 51.0912 43.2636C51.5044 43.1603 51.9079 43.1087 52.3019 43.1087C52.8184 43.1087 53.2965 43.1852 53.7364 43.3382C54.1764 43.4874 54.557 43.7111 54.8783 44.0095C55.1996 44.3079 55.4502 44.6809 55.63 45.1284C55.8136 45.5722 55.9054 46.0867 55.9054 46.672V50H54.2127V46.9474C54.2127 46.5763 54.1591 46.2454 54.052 45.9547C53.9487 45.6602 53.7976 45.4134 53.5987 45.2145C53.4036 45.0118 53.1646 44.8587 52.8815 44.7555C52.6022 44.6484 52.2886 44.5948 51.9404 44.5948C51.7568 44.5948 51.5675 44.6139 51.3724 44.6522C51.1811 44.6904 50.9918 44.7459 50.8043 44.8186C50.6207 44.8874 50.4428 44.9754 50.2707 45.0825C50.0985 45.1858 49.9417 45.3044 49.8002 45.4383V50H48.1017V43.2292ZM57.9998 40.4806H59.6982V46.1039L62.8656 43.2292H65.4649L61.9246 46.3965L65.6887 50H63.141L60.6221 47.5613L59.6982 48.3876V50H57.9998V40.4806ZM66.4863 46.5916C66.4863 46.1326 66.58 45.6946 66.7675 45.2776C66.9549 44.8568 67.2246 44.4858 67.5765 44.1644C67.9284 43.8431 68.3588 43.5868 68.8676 43.3956C69.3802 43.2043 69.9616 43.1087 70.6119 43.1087C71.2584 43.1087 71.8399 43.2062 72.3563 43.4013C72.8765 43.5926 73.3164 43.8565 73.676 44.1931C74.0394 44.5298 74.3168 44.9257 74.508 45.3809C74.7031 45.8361 74.8007 46.3238 74.8007 46.8441C74.8007 46.9091 74.7988 46.9799 74.7949 47.0564C74.7949 47.1291 74.7911 47.196 74.7835 47.2572H68.3798C68.4525 47.46 68.5692 47.6455 68.7299 47.8138C68.8943 47.9821 69.099 48.1275 69.3438 48.2499C69.5886 48.3723 69.8717 48.468 70.193 48.5368C70.5144 48.6018 70.8701 48.6344 71.2603 48.6344C71.6505 48.6344 72.0388 48.5942 72.4251 48.5139C72.8115 48.4297 73.1806 48.3245 73.5326 48.1983L74.1064 49.4951C73.8845 49.5983 73.6588 49.6901 73.4293 49.7705C73.2036 49.847 72.9664 49.912 72.7178 49.9656C72.473 50.0153 72.2147 50.0536 71.9431 50.0803C71.6754 50.1071 71.3923 50.1205 71.0939 50.1205C70.3327 50.1205 69.6652 50.0287 69.0914 49.8451C68.5176 49.6615 68.0375 49.4109 67.6511 49.0934C67.2648 48.7759 66.974 48.4029 66.7789 47.9745C66.5838 47.546 66.4863 47.0851 66.4863 46.5916ZM72.9989 45.9318C72.9377 45.7443 72.8421 45.5703 72.712 45.4096C72.5858 45.2451 72.427 45.1036 72.2358 44.985C72.0445 44.8626 71.8226 44.7669 71.5702 44.6981C71.3177 44.6292 71.0404 44.5948 70.7382 44.5948C70.4168 44.5948 70.1242 44.6311 69.8602 44.7038C69.5963 44.7765 69.3649 44.874 69.1659 44.9965C68.967 45.1189 68.8006 45.2604 68.6667 45.4211C68.5367 45.5817 68.441 45.752 68.3798 45.9318H72.9989ZM76.1089 46.6433C76.1089 46.1039 76.2103 45.6181 76.4131 45.1858C76.6158 44.7497 76.895 44.3787 77.2508 44.0726C77.6104 43.7628 78.035 43.5256 78.5246 43.3611C79.0181 43.1928 79.5517 43.1087 80.1255 43.1087C80.3704 43.1087 80.6114 43.124 80.8485 43.1546C81.0895 43.1852 81.319 43.2272 81.5371 43.2808C81.759 43.3343 81.9655 43.3994 82.1568 43.4759C82.3519 43.5486 82.524 43.6289 82.6732 43.7169V40.4806H84.3717V50H82.6732V49.3631C82.524 49.4664 82.3481 49.5639 82.1453 49.6557C81.9426 49.7475 81.7245 49.8279 81.4912 49.8967C81.2578 49.9656 81.0149 50.0191 80.7625 50.0574C80.5138 50.0995 80.2671 50.1205 80.0223 50.1205C79.4485 50.1205 78.9206 50.0363 78.4386 49.868C77.9604 49.6997 77.5492 49.4625 77.2049 49.1565C76.8606 48.8505 76.5909 48.4852 76.3958 48.0606C76.2046 47.6321 76.1089 47.1597 76.1089 46.6433ZM77.8935 46.6433C77.8935 46.9149 77.947 47.1712 78.0541 47.4122C78.1651 47.6532 78.3219 47.8655 78.5246 48.0491C78.7312 48.2289 78.9779 48.3723 79.2648 48.4794C79.5556 48.5827 79.8807 48.6344 80.2403 48.6344C80.4698 48.6344 80.6993 48.6133 80.9289 48.5712C81.1584 48.5253 81.3783 48.4622 81.5887 48.3819C81.803 48.3015 82.0019 48.204 82.1855 48.0892C82.3729 47.9745 82.5355 47.8463 82.6732 47.7048V45.358C82.5011 45.2202 82.3194 45.1036 82.1281 45.0079C81.9368 44.9123 81.7417 44.8339 81.5428 44.7727C81.3439 44.7115 81.1431 44.6675 80.9403 44.6407C80.7376 44.6101 80.5406 44.5948 80.3493 44.5948C79.9591 44.5948 79.611 44.6484 79.305 44.7555C79.0028 44.8587 78.7465 45.0022 78.5361 45.1858C78.3295 45.3694 78.1708 45.5856 78.0599 45.8342C77.9489 46.0829 77.8935 46.3525 77.8935 46.6433Z" fill="#4D4D4D"/>
<path d="M96.2967 39.8438H97.7713V52.7658H96.2967V39.8438ZM103.825 41.0316H105.644V45.972C105.644 46.3775 105.699 46.739 105.81 47.0565C105.921 47.3701 106.086 47.636 106.304 47.854C106.526 48.0721 106.799 48.2385 107.124 48.3533C107.449 48.4642 107.828 48.5197 108.26 48.5197C108.689 48.5197 109.066 48.4642 109.391 48.3533C109.72 48.2385 109.993 48.0721 110.211 47.854C110.433 47.636 110.6 47.3701 110.711 47.0565C110.821 46.739 110.877 46.3775 110.877 45.972V41.0316H112.696V46.19C112.696 46.7791 112.596 47.3147 112.398 47.7967C112.199 48.2787 111.91 48.6918 111.531 49.0361C111.152 49.3804 110.688 49.6462 110.137 49.8337C109.59 50.0211 108.964 50.1148 108.26 50.1148C107.557 50.1148 106.929 50.0211 106.378 49.8337C105.831 49.6462 105.368 49.3804 104.99 49.0361C104.611 48.6918 104.322 48.2787 104.123 47.7967C103.924 47.3147 103.825 46.7791 103.825 46.19V41.0316ZM114.704 43.2292H116.403V43.803C116.854 43.5467 117.284 43.3669 117.694 43.2636C118.107 43.1604 118.51 43.1087 118.904 43.1087C119.421 43.1087 119.899 43.1852 120.339 43.3382C120.779 43.4874 121.159 43.7112 121.481 44.0096C121.802 44.308 122.053 44.6809 122.232 45.1285C122.416 45.5722 122.508 46.0867 122.508 46.672V50.0001H120.815V46.9474C120.815 46.5764 120.762 46.2455 120.654 45.9548C120.551 45.6602 120.4 45.4135 120.201 45.2146C120.006 45.0118 119.767 44.8588 119.484 44.7555C119.205 44.6484 118.891 44.5949 118.543 44.5949C118.359 44.5949 118.17 44.614 117.975 44.6522C117.784 44.6905 117.594 44.746 117.407 44.8186C117.223 44.8875 117.045 44.9755 116.873 45.0826C116.701 45.1859 116.544 45.3045 116.403 45.4383V50.0001H114.704V43.2292ZM124.074 46.6433C124.074 46.104 124.176 45.6181 124.378 45.1859C124.581 44.7498 124.86 44.3787 125.216 44.0727C125.576 43.7628 126 43.5257 126.49 43.3612C126.984 43.1929 127.517 43.1087 128.091 43.1087C128.336 43.1087 128.577 43.124 128.814 43.1546C129.055 43.1852 129.284 43.2273 129.503 43.2809C129.724 43.3344 129.931 43.3994 130.122 43.4759C130.317 43.5486 130.489 43.629 130.639 43.7169V40.4807H132.337V50.0001H130.639V49.3631C130.489 49.4664 130.313 49.564 130.111 49.6558C129.908 49.7476 129.69 49.8279 129.457 49.8968C129.223 49.9656 128.98 50.0192 128.728 50.0574C128.479 50.0995 128.232 50.1206 127.988 50.1206C127.414 50.1206 126.886 50.0364 126.404 49.8681C125.926 49.6998 125.515 49.4626 125.17 49.1566C124.826 48.8505 124.556 48.4852 124.361 48.0606C124.17 47.6322 124.074 47.1597 124.074 46.6433ZM125.859 46.6433C125.859 46.9149 125.912 47.1712 126.02 47.4122C126.13 47.6532 126.287 47.8655 126.49 48.0491C126.697 48.2289 126.943 48.3724 127.23 48.4795C127.521 48.5828 127.846 48.6344 128.206 48.6344C128.435 48.6344 128.665 48.6134 128.894 48.5713C129.124 48.5254 129.344 48.4623 129.554 48.3819C129.768 48.3016 129.967 48.2041 130.151 48.0893C130.338 47.9745 130.501 47.8464 130.639 47.7049V45.358C130.466 45.2203 130.285 45.1036 130.094 45.008C129.902 44.9124 129.707 44.8339 129.508 44.7727C129.309 44.7115 129.108 44.6675 128.906 44.6408C128.703 44.6102 128.506 44.5949 128.315 44.5949C127.925 44.5949 127.576 44.6484 127.27 44.7555C126.968 44.8588 126.712 45.0023 126.502 45.1859C126.295 45.3695 126.136 45.5856 126.025 45.8343C125.914 46.0829 125.859 46.3526 125.859 46.6433ZM134.099 46.5917C134.099 46.1326 134.192 45.6946 134.38 45.2777C134.567 44.8569 134.837 44.4858 135.189 44.1645C135.541 43.8432 135.971 43.5869 136.48 43.3956C136.993 43.2043 137.574 43.1087 138.224 43.1087C138.871 43.1087 139.452 43.2063 139.969 43.4014C140.489 43.5926 140.929 43.8566 141.288 44.1932C141.652 44.5298 141.929 44.9257 142.12 45.381C142.315 45.8362 142.413 46.3239 142.413 46.8442C142.413 46.9092 142.411 46.98 142.407 47.0565C142.407 47.1291 142.403 47.1961 142.396 47.2573H135.992C136.065 47.46 136.182 47.6456 136.342 47.8139C136.507 47.9822 136.711 48.1276 136.956 48.25C137.201 48.3724 137.484 48.468 137.805 48.5369C138.127 48.6019 138.482 48.6344 138.873 48.6344C139.263 48.6344 139.651 48.5942 140.037 48.5139C140.424 48.4298 140.793 48.3246 141.145 48.1983L141.719 49.4951C141.497 49.5984 141.271 49.6902 141.042 49.7705C140.816 49.847 140.579 49.9121 140.33 49.9656C140.085 50.0154 139.827 50.0536 139.555 50.0804C139.288 50.1072 139.005 50.1206 138.706 50.1206C137.945 50.1206 137.278 50.0288 136.704 49.8451C136.13 49.6615 135.65 49.411 135.263 49.0935C134.877 48.776 134.586 48.403 134.391 47.9745C134.196 47.5461 134.099 47.0852 134.099 46.5917ZM140.611 45.9318C140.55 45.7444 140.454 45.5703 140.324 45.4097C140.198 45.2452 140.039 45.1036 139.848 44.985C139.657 44.8626 139.435 44.767 139.183 44.6981C138.93 44.6293 138.653 44.5949 138.351 44.5949C138.029 44.5949 137.737 44.6312 137.473 44.7039C137.209 44.7766 136.977 44.8741 136.778 44.9965C136.579 45.1189 136.413 45.2605 136.279 45.4211C136.149 45.5818 136.053 45.752 135.992 45.9318H140.611ZM144.243 43.2292H145.942V44.2047C146.317 43.9254 146.713 43.6844 147.13 43.4817C147.547 43.2789 147.962 43.124 148.375 43.0169L148.874 44.5719C148.22 44.6369 147.644 44.7842 147.147 45.0137C146.653 45.2394 146.252 45.5588 145.942 45.972V50.0001H144.243V43.2292ZM149.867 44.8014H155.128V46.0753H149.867V44.8014ZM156.936 40.4807H158.634V43.8661C158.784 43.7628 158.96 43.6653 159.162 43.5735C159.365 43.4817 159.583 43.4014 159.816 43.3325C160.05 43.2636 160.291 43.2101 160.539 43.1718C160.788 43.1298 161.037 43.1087 161.285 43.1087C161.859 43.1087 162.385 43.1929 162.863 43.3612C163.345 43.5295 163.758 43.7667 164.103 44.0727C164.447 44.3787 164.715 44.746 164.906 45.1744C165.101 45.599 165.199 46.0695 165.199 46.5859C165.199 47.1253 165.097 47.613 164.895 48.0491C164.692 48.4814 164.411 48.8525 164.051 49.1623C163.695 49.4683 163.271 49.7055 162.777 49.8738C162.288 50.0383 161.756 50.1206 161.182 50.1206C160.937 50.1206 160.694 50.1053 160.453 50.0747C160.216 50.0441 159.987 50.002 159.765 49.9484C159.547 49.8949 159.34 49.8317 159.145 49.7591C158.954 49.6826 158.784 49.6003 158.634 49.5123V50.0001H156.936V40.4807ZM158.634 47.8713C158.807 48.009 158.988 48.1256 159.179 48.2213C159.371 48.3169 159.566 48.3953 159.765 48.4565C159.964 48.5177 160.165 48.5636 160.367 48.5942C160.57 48.621 160.767 48.6344 160.958 48.6344C161.348 48.6344 161.695 48.5828 161.997 48.4795C162.303 48.3724 162.559 48.227 162.766 48.0434C162.976 47.8598 163.137 47.6437 163.248 47.395C163.359 47.1464 163.414 46.8767 163.414 46.5859C163.414 46.3143 163.359 46.058 163.248 45.8171C163.141 45.5761 162.984 45.3657 162.777 45.1859C162.574 45.0023 162.328 44.8588 162.037 44.7555C161.75 44.6484 161.427 44.5949 161.067 44.5949C160.838 44.5949 160.608 44.6178 160.379 44.6637C160.149 44.7058 159.927 44.767 159.713 44.8473C159.503 44.9277 159.304 45.0252 159.116 45.14C158.933 45.2547 158.772 45.3829 158.634 45.5244V47.8713ZM166.45 47.8655C166.45 47.5404 166.52 47.2439 166.662 46.9761C166.803 46.7084 167.016 46.4788 167.299 46.2876C167.582 46.0925 167.934 45.9433 168.355 45.84C168.779 45.7329 169.273 45.6793 169.835 45.6793C170.252 45.6793 170.69 45.7099 171.149 45.7711C171.612 45.8324 172.088 45.9261 172.578 46.0523C172.559 45.8381 172.494 45.6411 172.383 45.4613C172.272 45.2777 172.117 45.1208 171.918 44.9908C171.723 44.8569 171.486 44.7536 171.206 44.6809C170.931 44.6082 170.617 44.5719 170.265 44.5719C170.074 44.5719 169.864 44.5834 169.634 44.6063C169.405 44.6293 169.167 44.6637 168.923 44.7096C168.678 44.7555 168.435 44.8129 168.194 44.8818C167.957 44.9506 167.735 45.0329 167.528 45.1285L167.012 43.7342C167.268 43.6423 167.542 43.5582 167.832 43.4817C168.127 43.4052 168.427 43.3401 168.733 43.2866C169.039 43.2292 169.345 43.1852 169.651 43.1546C169.957 43.124 170.254 43.1087 170.541 43.1087C171.807 43.1087 172.748 43.432 173.364 44.0784C173.98 44.7249 174.288 45.7157 174.288 47.0507V50.0001H172.589V49.3631C172.413 49.4664 172.22 49.564 172.01 49.6558C171.803 49.7476 171.577 49.8279 171.333 49.8968C171.088 49.9656 170.824 50.0192 170.541 50.0574C170.261 50.0995 169.965 50.1206 169.651 50.1206C169.123 50.1206 168.659 50.0632 168.257 49.9484C167.859 49.8337 167.526 49.6749 167.259 49.4722C166.991 49.2694 166.788 49.0323 166.65 48.7607C166.516 48.4852 166.45 48.1869 166.45 47.8655ZM168.24 47.8081C168.24 47.9191 168.268 48.0262 168.326 48.1295C168.383 48.2289 168.475 48.3188 168.601 48.3992C168.728 48.4757 168.888 48.5388 169.083 48.5885C169.282 48.6344 169.521 48.6574 169.801 48.6574C170.099 48.6574 170.388 48.6306 170.667 48.577C170.946 48.5235 171.206 48.4527 171.447 48.3647C171.688 48.2767 171.906 48.1754 172.101 48.0606C172.297 47.9459 172.459 47.8273 172.589 47.7049V47.4065C172.329 47.3338 172.071 47.2726 171.815 47.2229C171.562 47.1731 171.319 47.1349 171.086 47.1081C170.856 47.0775 170.638 47.0565 170.432 47.045C170.229 47.0335 170.051 47.0278 169.898 47.0278C169.581 47.0278 169.317 47.0488 169.106 47.0909C168.896 47.133 168.726 47.1903 168.596 47.263C168.465 47.3319 168.374 47.4141 168.32 47.5098C168.267 47.6054 168.24 47.7049 168.24 47.8081ZM176.537 43.2292H178.235V43.803C178.687 43.5467 179.117 43.3669 179.526 43.2636C179.94 43.1604 180.343 43.1087 180.737 43.1087C181.254 43.1087 181.732 43.1852 182.172 43.3382C182.612 43.4874 182.992 43.7112 183.314 44.0096C183.635 44.308 183.885 44.6809 184.065 45.1285C184.249 45.5722 184.341 46.0867 184.341 46.672V50.0001H182.648V46.9474C182.648 46.5764 182.594 46.2455 182.487 45.9548C182.384 45.6602 182.233 45.4135 182.034 45.2146C181.839 45.0118 181.6 44.8588 181.317 44.7555C181.037 44.6484 180.724 44.5949 180.376 44.5949C180.192 44.5949 180.003 44.614 179.808 44.6522C179.616 44.6905 179.427 44.746 179.24 44.8186C179.056 44.8875 178.878 44.9755 178.706 45.0826C178.534 45.1859 178.377 45.3045 178.235 45.4383V50.0001H176.537V43.2292ZM186.435 40.4807H188.133V46.104L191.301 43.2292H193.9L190.36 46.3966L194.124 50.0001H191.576L189.057 47.5614L188.133 48.3877V50.0001H186.435V40.4807ZM194.922 46.5917C194.922 46.1326 195.015 45.6946 195.203 45.2777C195.39 44.8569 195.66 44.4858 196.012 44.1645C196.364 43.8432 196.794 43.5869 197.303 43.3956C197.815 43.2043 198.397 43.1087 199.047 43.1087C199.694 43.1087 200.275 43.2063 200.792 43.4014C201.312 43.5926 201.752 43.8566 202.111 44.1932C202.475 44.5298 202.752 44.9257 202.943 45.381C203.138 45.8362 203.236 46.3239 203.236 46.8442C203.236 46.9092 203.234 46.98 203.23 47.0565C203.23 47.1291 203.226 47.1961 203.219 47.2573H196.815C196.888 47.46 197.004 47.6456 197.165 47.8139C197.33 47.9822 197.534 48.1276 197.779 48.25C198.024 48.3724 198.307 48.468 198.628 48.5369C198.95 48.6019 199.305 48.6344 199.696 48.6344C200.086 48.6344 200.474 48.5942 200.86 48.5139C201.247 48.4298 201.616 48.3246 201.968 48.1983L202.542 49.4951C202.32 49.5984 202.094 49.6902 201.865 49.7705C201.639 49.847 201.402 49.9121 201.153 49.9656C200.908 50.0154 200.65 50.0536 200.378 50.0804C200.111 50.1072 199.828 50.1206 199.529 50.1206C198.768 50.1206 198.1 50.0288 197.527 49.8451C196.953 49.6615 196.473 49.411 196.086 49.0935C195.7 48.776 195.409 48.403 195.214 47.9745C195.019 47.5461 194.922 47.0852 194.922 46.5917ZM201.434 45.9318C201.373 45.7444 201.277 45.5703 201.147 45.4097C201.021 45.2452 200.862 45.1036 200.671 44.985C200.48 44.8626 200.258 44.767 200.005 44.6981C199.753 44.6293 199.476 44.5949 199.173 44.5949C198.852 44.5949 198.559 44.6312 198.295 44.7039C198.032 44.7766 197.8 44.8741 197.601 44.9965C197.402 45.1189 197.236 45.2605 197.102 45.4211C196.972 45.5818 196.876 45.752 196.815 45.9318H201.434ZM204.544 46.6433C204.544 46.104 204.646 45.6181 204.848 45.1859C205.051 44.7498 205.33 44.3787 205.686 44.0727C206.046 43.7628 206.47 43.5257 206.96 43.3612C207.453 43.1929 207.987 43.1087 208.561 43.1087C208.806 43.1087 209.047 43.124 209.284 43.1546C209.525 43.1852 209.754 43.2273 209.972 43.2809C210.194 43.3344 210.401 43.3994 210.592 43.4759C210.787 43.5486 210.959 43.629 211.108 43.7169V40.4807H212.807V50.0001H211.108V49.3631C210.959 49.4664 210.783 49.564 210.581 49.6558C210.378 49.7476 210.16 49.8279 209.926 49.8968C209.693 49.9656 209.45 50.0192 209.198 50.0574C208.949 50.0995 208.702 50.1206 208.457 50.1206C207.884 50.1206 207.356 50.0364 206.874 49.8681C206.396 49.6998 205.984 49.4626 205.64 49.1566C205.296 48.8505 205.026 48.4852 204.831 48.0606C204.64 47.6322 204.544 47.1597 204.544 46.6433ZM206.329 46.6433C206.329 46.9149 206.382 47.1712 206.489 47.4122C206.6 47.6532 206.757 47.8655 206.96 48.0491C207.166 48.2289 207.413 48.3724 207.7 48.4795C207.991 48.5828 208.316 48.6344 208.676 48.6344C208.905 48.6344 209.135 48.6134 209.364 48.5713C209.594 48.5254 209.814 48.4623 210.024 48.3819C210.238 48.3016 210.437 48.2041 210.621 48.0893C210.808 47.9745 210.971 47.8464 211.108 47.7049V45.358C210.936 45.2203 210.755 45.1036 210.563 45.008C210.372 44.9124 210.177 44.8339 209.978 44.7727C209.779 44.7115 209.578 44.6675 209.376 44.6408C209.173 44.6102 208.976 44.5949 208.785 44.5949C208.394 44.5949 208.046 44.6484 207.74 44.7555C207.438 44.8588 207.182 45.0023 206.971 45.1859C206.765 45.3695 206.606 45.5856 206.495 45.8343C206.384 46.0829 206.329 46.3526 206.329 46.6433Z" fill="#4D4D4D"/>
<path d="M222.463 39.8437H223.937V52.7657H222.463V39.8437ZM230.324 41.0315H232.143V43.3726H237.72V41.0315H239.545V50H237.72V44.9276H232.143V50H230.324V41.0315ZM242.775 42.3053C242.607 42.3053 242.454 42.2824 242.316 42.2365C242.182 42.1867 242.068 42.1217 241.972 42.0414C241.876 41.9572 241.802 41.8616 241.748 41.7545C241.698 41.6435 241.674 41.5269 241.674 41.4045C241.674 41.2782 241.698 41.1616 241.748 41.0544C241.802 40.9435 241.876 40.8479 241.972 40.7675C242.068 40.6872 242.182 40.6241 242.316 40.5782C242.454 40.5285 242.607 40.5036 242.775 40.5036C242.947 40.5036 243.1 40.5285 243.234 40.5782C243.372 40.6241 243.489 40.6872 243.584 40.7675C243.68 40.8479 243.753 40.9435 243.802 41.0544C243.856 41.1616 243.883 41.2782 243.883 41.4045C243.883 41.5269 243.856 41.6435 243.802 41.7545C243.753 41.8616 243.68 41.9572 243.584 42.0414C243.489 42.1217 243.372 42.1867 243.234 42.2365C243.1 42.2824 242.947 42.3053 242.775 42.3053ZM241.926 43.2292H243.624V50H241.926V43.2292ZM246.866 51.1476C247.081 51.2241 247.299 51.2872 247.521 51.337C247.742 51.3905 247.957 51.4326 248.163 51.4632C248.374 51.4976 248.574 51.5206 248.766 51.532C248.957 51.5473 249.127 51.555 249.276 51.555C249.728 51.555 250.12 51.4995 250.453 51.3886C250.789 51.2815 251.069 51.1361 251.29 50.9525C251.516 50.7689 251.684 50.5547 251.795 50.3099C251.906 50.0689 251.962 49.8126 251.962 49.541V49.2483C251.816 49.3478 251.646 49.4434 251.451 49.5352C251.256 49.627 251.042 49.7074 250.808 49.7762C250.575 49.8451 250.326 49.9005 250.062 49.9426C249.802 49.9847 249.533 50.0057 249.253 50.0057C248.699 50.0057 248.186 49.9235 247.716 49.759C247.245 49.5907 246.838 49.3573 246.493 49.059C246.149 48.7568 245.879 48.3953 245.684 47.9745C245.493 47.5537 245.397 47.087 245.397 46.5744C245.397 46.0503 245.499 45.576 245.702 45.1514C245.904 44.7229 246.184 44.3576 246.539 44.0554C246.899 43.7532 247.324 43.5199 247.813 43.3554C248.303 43.1909 248.835 43.1087 249.408 43.1087C249.653 43.1087 249.896 43.124 250.137 43.1546C250.378 43.1852 250.608 43.2272 250.826 43.2808C251.048 43.3343 251.254 43.3994 251.445 43.4759C251.64 43.5486 251.813 43.6289 251.962 43.7169V43.2292H253.66V49.2254C253.66 49.8412 253.567 50.3864 253.379 50.8607C253.192 51.335 252.916 51.7329 252.553 52.0542C252.193 52.3794 251.746 52.6242 251.21 52.7887C250.675 52.957 250.061 53.0411 249.368 53.0411C249.12 53.0411 248.861 53.0297 248.594 53.0067C248.326 52.9876 248.056 52.957 247.785 52.9149C247.517 52.8767 247.251 52.8288 246.987 52.7715C246.727 52.7179 246.476 52.6548 246.235 52.5821L246.866 51.1476ZM247.182 46.5572C247.182 46.8288 247.236 47.0851 247.343 47.3261C247.454 47.5633 247.61 47.7717 247.813 47.9515C248.016 48.1275 248.261 48.2671 248.548 48.3704C248.835 48.4699 249.158 48.5196 249.517 48.5196C249.751 48.5196 249.982 48.4986 250.212 48.4565C250.445 48.4106 250.667 48.3475 250.877 48.2671C251.092 48.1868 251.29 48.0892 251.474 47.9745C251.661 47.8597 251.824 47.7316 251.962 47.59V45.358C251.79 45.2202 251.608 45.1036 251.417 45.0079C251.225 44.9123 251.03 44.8339 250.831 44.7727C250.632 44.7115 250.432 44.6675 250.229 44.6407C250.026 44.6101 249.829 44.5948 249.638 44.5948C249.248 44.5948 248.9 44.6464 248.594 44.7497C248.291 44.853 248.035 44.9945 247.825 45.1743C247.618 45.3503 247.459 45.5569 247.348 45.794C247.237 46.0312 247.182 46.2856 247.182 46.5572ZM255.594 40.4864H257.292V43.7456C257.648 43.5505 258.044 43.3956 258.48 43.2808C258.92 43.166 259.381 43.1087 259.863 43.1087C260.422 43.1087 260.923 43.1909 261.366 43.3554C261.814 43.5199 262.193 43.757 262.502 44.0669C262.812 44.3729 263.05 44.7459 263.214 45.1858C263.382 45.6257 263.466 46.1211 263.466 46.672V50H261.774V46.7408C261.774 46.4195 261.722 46.1268 261.619 45.8629C261.516 45.5951 261.364 45.3656 261.166 45.1743C260.967 44.9831 260.724 44.8358 260.437 44.7325C260.154 44.6254 259.832 44.5718 259.473 44.5718C259.041 44.5718 258.639 44.6407 258.268 44.7784C257.897 44.9161 257.572 45.0902 257.292 45.3006V50H255.594V40.4864ZM265.417 40.4806H267.116V50H265.417V40.4806ZM270.105 50.8492C270.281 50.964 270.473 51.0654 270.679 51.1533C270.886 51.2413 271.1 51.314 271.322 51.3714C271.548 51.4288 271.777 51.4708 272.01 51.4976C272.244 51.5282 272.475 51.5435 272.705 51.5435C273.485 51.5435 274.086 51.3752 274.506 51.0386C274.931 50.7058 275.143 50.2047 275.143 49.5352V49.3057C274.994 49.409 274.826 49.5046 274.638 49.5926C274.455 49.6768 274.256 49.7494 274.042 49.8106C273.831 49.8719 273.607 49.9197 273.37 49.9541C273.137 49.9847 272.9 50 272.659 50C272.142 50 271.679 49.9254 271.27 49.7762C270.865 49.6232 270.52 49.4013 270.237 49.1106C269.958 48.8161 269.744 48.4546 269.595 48.0261C269.445 47.5977 269.371 47.108 269.371 46.5572V43.2292H271.064V46.0867C271.064 46.9053 271.219 47.5097 271.528 47.8999C271.842 48.2862 272.336 48.4794 273.009 48.4794C273.483 48.4794 273.902 48.3972 274.265 48.2327C274.633 48.0644 274.925 47.8502 275.143 47.59V43.2292H276.842V49.2254C276.842 49.8719 276.75 50.4323 276.566 50.9066C276.383 51.3848 276.115 51.7807 275.763 52.0944C275.415 52.4081 274.986 52.6414 274.478 52.7944C273.969 52.9512 273.391 53.0297 272.745 53.0297C272.114 53.0297 271.525 52.9627 270.978 52.8288C270.431 52.695 269.929 52.5132 269.474 52.2837L270.105 50.8492ZM278.764 44.8014H284.026V46.0752H278.764V44.8014ZM285.879 43.2292H287.578V44.2046C287.952 43.9254 288.348 43.6844 288.765 43.4816C289.182 43.2789 289.597 43.124 290.011 43.0168L290.51 44.5718C289.856 44.6369 289.28 44.7842 288.783 45.0137C288.289 45.2394 287.887 45.5588 287.578 45.9719V50H285.879V43.2292ZM291.456 46.5916C291.456 46.1326 291.55 45.6946 291.738 45.2776C291.925 44.8568 292.195 44.4858 292.547 44.1644C292.899 43.8431 293.329 43.5868 293.838 43.3956C294.35 43.2043 294.932 43.1087 295.582 43.1087C296.229 43.1087 296.81 43.2062 297.326 43.4013C297.847 43.5926 298.287 43.8565 298.646 44.1931C299.01 44.5298 299.287 44.9257 299.478 45.3809C299.673 45.8361 299.771 46.3238 299.771 46.8441C299.771 46.9091 299.769 46.9799 299.765 47.0564C299.765 47.1291 299.761 47.196 299.754 47.2572H293.35C293.423 47.46 293.539 47.6455 293.7 47.8138C293.865 47.9821 294.069 48.1275 294.314 48.2499C294.559 48.3723 294.842 48.468 295.163 48.5368C295.485 48.6018 295.84 48.6344 296.231 48.6344C296.621 48.6344 297.009 48.5942 297.395 48.5139C297.782 48.4297 298.151 48.3245 298.503 48.1983L299.077 49.4951C298.855 49.5983 298.629 49.6901 298.399 49.7705C298.174 49.847 297.937 49.912 297.688 49.9656C297.443 50.0153 297.185 50.0536 296.913 50.0803C296.646 50.1071 296.362 50.1205 296.064 50.1205C295.303 50.1205 294.635 50.0287 294.062 49.8451C293.488 49.6615 293.008 49.4109 292.621 49.0934C292.235 48.7759 291.944 48.4029 291.749 47.9745C291.554 47.546 291.456 47.0851 291.456 46.5916ZM297.969 45.9318C297.908 45.7443 297.812 45.5703 297.682 45.4096C297.556 45.2451 297.397 45.1036 297.206 44.985C297.015 44.8626 296.793 44.7669 296.54 44.6981C296.288 44.6292 296.011 44.5948 295.708 44.5948C295.387 44.5948 295.094 44.6311 294.83 44.7038C294.566 44.7765 294.335 44.874 294.136 44.9965C293.937 45.1189 293.771 45.2604 293.637 45.4211C293.507 45.5817 293.411 45.752 293.35 45.9318H297.969ZM302.663 51.1476C302.877 51.2241 303.095 51.2872 303.317 51.337C303.539 51.3905 303.753 51.4326 303.96 51.4632C304.17 51.4976 304.371 51.5206 304.562 51.532C304.753 51.5473 304.924 51.555 305.073 51.555C305.524 51.555 305.916 51.4995 306.249 51.3886C306.586 51.2815 306.865 51.1361 307.087 50.9525C307.313 50.7689 307.481 50.5547 307.592 50.3099C307.703 50.0689 307.758 49.8126 307.758 49.541V49.2483C307.613 49.3478 307.443 49.4434 307.247 49.5352C307.052 49.627 306.838 49.7074 306.605 49.7762C306.371 49.8451 306.123 49.9005 305.859 49.9426C305.599 49.9847 305.329 50.0057 305.05 50.0057C304.495 50.0057 303.983 49.9235 303.512 49.759C303.042 49.5907 302.634 49.3573 302.29 49.059C301.946 48.7568 301.676 48.3953 301.481 47.9745C301.29 47.5537 301.194 47.087 301.194 46.5744C301.194 46.0503 301.295 45.576 301.498 45.1514C301.701 44.7229 301.98 44.3576 302.336 44.0554C302.695 43.7532 303.12 43.5199 303.61 43.3554C304.099 43.1909 304.631 43.1087 305.205 43.1087C305.45 43.1087 305.692 43.124 305.933 43.1546C306.174 43.1852 306.404 43.2272 306.622 43.2808C306.844 43.3343 307.05 43.3994 307.242 43.4759C307.437 43.5486 307.609 43.6289 307.758 43.7169V43.2292H309.457V49.2254C309.457 49.8412 309.363 50.3864 309.175 50.8607C308.988 51.335 308.713 51.7329 308.349 52.0542C307.99 52.3794 307.542 52.6242 307.006 52.7887C306.471 52.957 305.857 53.0411 305.165 53.0411C304.916 53.0411 304.658 53.0297 304.39 53.0067C304.122 52.9876 303.852 52.957 303.581 52.9149C303.313 52.8767 303.047 52.8288 302.783 52.7715C302.523 52.7179 302.273 52.6548 302.032 52.5821L302.663 51.1476ZM302.978 46.5572C302.978 46.8288 303.032 47.0851 303.139 47.3261C303.25 47.5633 303.407 47.7717 303.61 47.9515C303.812 48.1275 304.057 48.2671 304.344 48.3704C304.631 48.4699 304.954 48.5196 305.314 48.5196C305.547 48.5196 305.779 48.4986 306.008 48.4565C306.241 48.4106 306.463 48.3475 306.674 48.2671C306.888 48.1868 307.087 48.0892 307.27 47.9745C307.458 47.8597 307.62 47.7316 307.758 47.59V45.358C307.586 45.2202 307.404 45.1036 307.213 45.0079C307.022 44.9123 306.827 44.8339 306.628 44.7727C306.429 44.7115 306.228 44.6675 306.025 44.6407C305.823 44.6101 305.626 44.5948 305.434 44.5948C305.044 44.5948 304.696 44.6464 304.39 44.7497C304.088 44.853 303.831 44.9945 303.621 45.1743C303.414 45.3503 303.256 45.5569 303.145 45.794C303.034 46.0312 302.978 46.2856 302.978 46.5572ZM311.39 43.2234H313.083V46.5285C313.083 46.8422 313.117 47.1291 313.186 47.3892C313.255 47.6455 313.372 47.8655 313.536 48.0491C313.705 48.2327 313.927 48.3761 314.202 48.4794C314.481 48.5789 314.827 48.6286 315.241 48.6286C315.436 48.6286 315.633 48.6076 315.832 48.5655C316.034 48.5234 316.227 48.466 316.411 48.3934C316.595 48.3169 316.765 48.227 316.922 48.1237C317.082 48.0204 317.22 47.9075 317.335 47.7851V43.2234H319.033V50H317.335V49.4205C316.918 49.6691 316.499 49.847 316.078 49.9541C315.657 50.0612 315.258 50.1148 314.879 50.1148C314.259 50.1148 313.728 50.0402 313.284 49.891C312.844 49.7418 312.482 49.5257 312.199 49.2426C311.92 48.9557 311.715 48.6057 311.585 48.1925C311.455 47.7756 311.39 47.3012 311.39 46.7695V43.2234ZM321.237 40.4806H322.935V50H321.237V40.4806ZM324.794 47.8655C324.794 47.5403 324.865 47.2438 325.007 46.9761C325.148 46.7083 325.36 46.4788 325.644 46.2875C325.927 46.0924 326.279 45.9432 326.699 45.8399C327.124 45.7328 327.617 45.6793 328.18 45.6793C328.597 45.6793 329.035 45.7099 329.494 45.7711C329.957 45.8323 330.433 45.926 330.922 46.0523C330.903 45.838 330.838 45.641 330.727 45.4612C330.616 45.2776 330.462 45.1208 330.263 44.9907C330.068 44.8568 329.83 44.7535 329.551 44.6809C329.276 44.6082 328.962 44.5718 328.61 44.5718C328.419 44.5718 328.208 44.5833 327.979 44.6063C327.749 44.6292 327.512 44.6637 327.267 44.7096C327.023 44.7555 326.78 44.8128 326.539 44.8817C326.301 44.9506 326.08 45.0328 325.873 45.1284L325.357 43.7341C325.613 43.6423 325.886 43.5581 326.177 43.4816C326.472 43.4051 326.772 43.3401 327.078 43.2865C327.384 43.2292 327.69 43.1852 327.996 43.1546C328.302 43.124 328.599 43.1087 328.886 43.1087C330.152 43.1087 331.093 43.4319 331.709 44.0784C332.324 44.7249 332.632 45.7156 332.632 47.0507V50H330.934V49.3631C330.758 49.4664 330.565 49.5639 330.354 49.6557C330.148 49.7475 329.922 49.8279 329.677 49.8967C329.433 49.9656 329.169 50.0191 328.886 50.0574C328.606 50.0995 328.31 50.1205 327.996 50.1205C327.468 50.1205 327.003 50.0631 326.602 49.9484C326.204 49.8336 325.871 49.6748 325.603 49.4721C325.336 49.2694 325.133 49.0322 324.995 48.7606C324.861 48.4852 324.794 48.1868 324.794 47.8655ZM326.585 47.8081C326.585 47.919 326.613 48.0261 326.671 48.1294C326.728 48.2289 326.82 48.3188 326.946 48.3991C327.072 48.4756 327.233 48.5387 327.428 48.5885C327.627 48.6344 327.866 48.6573 328.145 48.6573C328.444 48.6573 328.732 48.6305 329.012 48.577C329.291 48.5234 329.551 48.4527 329.792 48.3647C330.033 48.2767 330.251 48.1753 330.446 48.0606C330.641 47.9458 330.804 47.8272 330.934 47.7048V47.4064C330.674 47.3337 330.416 47.2725 330.159 47.2228C329.907 47.1731 329.664 47.1348 329.431 47.108C329.201 47.0774 328.983 47.0564 328.776 47.0449C328.574 47.0334 328.396 47.0277 328.243 47.0277C327.925 47.0277 327.661 47.0488 327.451 47.0908C327.241 47.1329 327.07 47.1903 326.94 47.263C326.81 47.3318 326.718 47.4141 326.665 47.5097C326.611 47.6053 326.585 47.7048 326.585 47.8081ZM335.903 44.503H334.268V43.2292H335.903V41.1233H337.602V43.2292H339.237V44.503H337.602V50H335.903V44.503ZM340.425 46.5916C340.425 46.1326 340.518 45.6946 340.706 45.2776C340.893 44.8568 341.163 44.4858 341.515 44.1644C341.867 43.8431 342.297 43.5868 342.806 43.3956C343.319 43.2043 343.9 43.1087 344.55 43.1087C345.197 43.1087 345.778 43.2062 346.295 43.4013C346.815 43.5926 347.255 43.8565 347.614 44.1931C347.978 44.5298 348.255 44.9257 348.446 45.3809C348.641 45.8361 348.739 46.3238 348.739 46.8441C348.739 46.9091 348.737 46.9799 348.733 47.0564C348.733 47.1291 348.729 47.196 348.722 47.2572H342.318C342.391 47.46 342.508 47.6455 342.668 47.8138C342.833 47.9821 343.037 48.1275 343.282 48.2499C343.527 48.3723 343.81 48.468 344.131 48.5368C344.453 48.6018 344.808 48.6344 345.199 48.6344C345.589 48.6344 345.977 48.5942 346.363 48.5139C346.75 48.4297 347.119 48.3245 347.471 48.1983L348.045 49.4951C347.823 49.5983 347.597 49.6901 347.368 49.7705C347.142 49.847 346.905 49.912 346.656 49.9656C346.411 50.0153 346.153 50.0536 345.881 50.0803C345.614 50.1071 345.331 50.1205 345.032 50.1205C344.271 50.1205 343.603 50.0287 343.03 49.8451C342.456 49.6615 341.976 49.4109 341.589 49.0934C341.203 48.7759 340.912 48.4029 340.717 47.9745C340.522 47.546 340.425 47.0851 340.425 46.5916ZM346.937 45.9318C346.876 45.7443 346.78 45.5703 346.65 45.4096C346.524 45.2451 346.365 45.1036 346.174 44.985C345.983 44.8626 345.761 44.7669 345.509 44.6981C345.256 44.6292 344.979 44.5948 344.676 44.5948C344.355 44.5948 344.063 44.6311 343.799 44.7038C343.535 44.7765 343.303 44.874 343.104 44.9965C342.905 45.1189 342.739 45.2604 342.605 45.4211C342.475 45.5817 342.379 45.752 342.318 45.9318H346.937ZM350.047 46.6433C350.047 46.1039 350.149 45.6181 350.351 45.1858C350.554 44.7497 350.833 44.3787 351.189 44.0726C351.549 43.7628 351.973 43.5256 352.463 43.3611C352.956 43.1928 353.49 43.1087 354.064 43.1087C354.309 43.1087 354.55 43.124 354.787 43.1546C355.028 43.1852 355.257 43.2272 355.475 43.2808C355.697 43.3343 355.904 43.3994 356.095 43.4759C356.29 43.5486 356.462 43.6289 356.612 43.7169V40.4806H358.31V50H356.612V49.3631C356.462 49.4664 356.286 49.5639 356.084 49.6557C355.881 49.7475 355.663 49.8279 355.43 49.8967C355.196 49.9656 354.953 50.0191 354.701 50.0574C354.452 50.0995 354.205 50.1205 353.961 50.1205C353.387 50.1205 352.859 50.0363 352.377 49.868C351.899 49.6997 351.488 49.4625 351.143 49.1565C350.799 48.8505 350.529 48.4852 350.334 48.0606C350.143 47.6321 350.047 47.1597 350.047 46.6433ZM351.832 46.6433C351.832 46.9149 351.885 47.1712 351.992 47.4122C352.103 47.6532 352.26 47.8655 352.463 48.0491C352.67 48.2289 352.916 48.3723 353.203 48.4794C353.494 48.5827 353.819 48.6344 354.179 48.6344C354.408 48.6344 354.638 48.6133 354.867 48.5712C355.097 48.5253 355.317 48.4622 355.527 48.3819C355.741 48.3015 355.94 48.204 356.124 48.0892C356.311 47.9745 356.474 47.8463 356.612 47.7048V45.358C356.439 45.2202 356.258 45.1036 356.066 45.0079C355.875 44.9123 355.68 44.8339 355.481 44.7727C355.282 44.7115 355.081 44.6675 354.879 44.6407C354.676 44.6101 354.479 44.5948 354.288 44.5948C353.897 44.5948 353.549 44.6484 353.243 44.7555C352.941 44.8587 352.685 45.0022 352.474 45.1858C352.268 45.3694 352.109 45.5856 351.998 45.8342C351.887 46.0829 351.832 46.3525 351.832 46.6433ZM364.278 41.0315H366.108V50H364.278V41.0315ZM368.22 43.2292H369.918V43.803C370.369 43.5467 370.8 43.3669 371.209 43.2636C371.622 43.1603 372.026 43.1087 372.42 43.1087C372.936 43.1087 373.414 43.1852 373.854 43.3382C374.294 43.4874 374.675 43.7111 374.996 44.0095C375.317 44.3079 375.568 44.6809 375.748 45.1284C375.931 45.5722 376.023 46.0867 376.023 46.672V50H374.331V46.9474C374.331 46.5763 374.277 46.2454 374.17 45.9547C374.067 45.6602 373.915 45.4134 373.717 45.2145C373.521 45.0118 373.282 44.8587 372.999 44.7555C372.72 44.6484 372.406 44.5948 372.058 44.5948C371.875 44.5948 371.685 44.6139 371.49 44.6522C371.299 44.6904 371.11 44.7459 370.922 44.8186C370.739 44.8874 370.561 44.9754 370.389 45.0825C370.216 45.1858 370.06 45.3044 369.918 45.4383V50H368.22V43.2292ZM377.59 46.6433C377.59 46.1039 377.691 45.6181 377.894 45.1858C378.097 44.7497 378.376 44.3787 378.732 44.0726C379.091 43.7628 379.516 43.5256 380.005 43.3611C380.499 43.1928 381.033 43.1087 381.606 43.1087C381.851 43.1087 382.092 43.124 382.329 43.1546C382.57 43.1852 382.8 43.2272 383.018 43.2808C383.24 43.3343 383.446 43.3994 383.638 43.4759C383.833 43.5486 384.005 43.6289 384.154 43.7169V40.4806H385.852V50H384.154V49.3631C384.005 49.4664 383.829 49.5639 383.626 49.6557C383.423 49.7475 383.205 49.8279 382.972 49.8967C382.739 49.9656 382.496 50.0191 382.243 50.0574C381.995 50.0995 381.748 50.1205 381.503 50.1205C380.929 50.1205 380.401 50.0363 379.919 49.868C379.441 49.6997 379.03 49.4625 378.686 49.1565C378.341 48.8505 378.072 48.4852 377.877 48.0606C377.685 47.6321 377.59 47.1597 377.59 46.6433ZM379.374 46.6433C379.374 46.9149 379.428 47.1712 379.535 47.4122C379.646 47.6532 379.803 47.8655 380.005 48.0491C380.212 48.2289 380.459 48.3723 380.746 48.4794C381.036 48.5827 381.361 48.6344 381.721 48.6344C381.951 48.6344 382.18 48.6133 382.41 48.5712C382.639 48.5253 382.859 48.4622 383.07 48.3819C383.284 48.3015 383.483 48.204 383.666 48.0892C383.854 47.9745 384.016 47.8463 384.154 47.7048V45.358C383.982 45.2202 383.8 45.1036 383.609 45.0079C383.418 44.9123 383.223 44.8339 383.024 44.7727C382.825 44.7115 382.624 44.6675 382.421 44.6407C382.218 44.6101 382.021 44.5948 381.83 44.5948C381.44 44.5948 381.092 44.6484 380.786 44.7555C380.484 44.8587 380.227 45.0022 380.017 45.1858C379.81 45.3694 379.652 45.5856 379.541 45.8342C379.43 46.0829 379.374 46.3525 379.374 46.6433ZM387.935 43.2234H389.628V46.5285C389.628 46.8422 389.662 47.1291 389.731 47.3892C389.8 47.6455 389.917 47.8655 390.081 48.0491C390.25 48.2327 390.472 48.3761 390.747 48.4794C391.026 48.5789 391.372 48.6286 391.786 48.6286C391.981 48.6286 392.178 48.6076 392.377 48.5655C392.579 48.5234 392.772 48.466 392.956 48.3934C393.14 48.3169 393.31 48.227 393.467 48.1237C393.627 48.0204 393.765 47.9075 393.88 47.7851V43.2234H395.578V50H393.88V49.4205C393.463 49.6691 393.044 49.847 392.623 49.9541C392.203 50.0612 391.803 50.1148 391.424 50.1148C390.804 50.1148 390.273 50.0402 389.829 49.891C389.389 49.7418 389.027 49.5257 388.744 49.2426C388.465 48.9557 388.26 48.6057 388.13 48.1925C388 47.7756 387.935 47.3012 387.935 46.7695V43.2234ZM398.006 47.9228C398.465 48.1983 398.97 48.401 399.52 48.5311C400.071 48.6611 400.635 48.7262 401.213 48.7262C401.603 48.7262 401.928 48.6994 402.189 48.6458C402.449 48.5923 402.657 48.5234 402.814 48.4393C402.971 48.3551 403.082 48.2595 403.147 48.1524C403.212 48.0453 403.244 47.9362 403.244 47.8253C403.244 47.6646 403.174 47.5269 403.032 47.4122C402.894 47.2974 402.665 47.24 402.343 47.24C402.194 47.24 402.034 47.2496 401.861 47.2687C401.689 47.2878 401.508 47.3089 401.316 47.3318C401.129 47.351 400.932 47.3701 400.725 47.3892C400.523 47.4083 400.316 47.4179 400.106 47.4179C399.647 47.4179 399.255 47.3682 398.929 47.2687C398.608 47.1692 398.346 47.0334 398.143 46.8613C397.941 46.6892 397.793 46.4864 397.701 46.2531C397.61 46.0159 397.564 45.7615 397.564 45.4899C397.564 45.1456 397.644 44.8281 397.805 44.5374C397.965 44.2467 398.195 43.9961 398.493 43.7857C398.792 43.5715 399.151 43.4051 399.572 43.2865C399.997 43.1679 400.469 43.1087 400.989 43.1087C401.261 43.1087 401.544 43.1259 401.839 43.1603C402.137 43.1909 402.43 43.233 402.716 43.2865C403.003 43.3401 403.279 43.4032 403.543 43.4759C403.807 43.5447 404.04 43.6193 404.243 43.6997L403.709 45.0194C403.277 44.8587 402.845 44.7325 402.412 44.6407C401.984 44.5451 401.542 44.4973 401.087 44.4973C400.769 44.4973 400.5 44.5221 400.278 44.5718C400.06 44.6177 399.882 44.6809 399.744 44.7612C399.606 44.8377 399.505 44.9276 399.44 45.0309C399.379 45.1303 399.348 45.2355 399.348 45.3465C399.348 45.4268 399.364 45.4995 399.394 45.5645C399.429 45.6296 399.482 45.6869 399.555 45.7367C399.631 45.7826 399.729 45.8189 399.847 45.8457C399.97 45.8686 400.119 45.8801 400.295 45.8801C400.456 45.8801 400.626 45.8705 400.806 45.8514C400.985 45.8323 401.173 45.8132 401.368 45.794C401.563 45.7711 401.764 45.75 401.971 45.7309C402.181 45.7118 402.395 45.7022 402.613 45.7022C403.019 45.7022 403.372 45.75 403.675 45.8457C403.981 45.9413 404.233 46.0752 404.432 46.2473C404.631 46.4195 404.78 46.6222 404.88 46.8556C404.979 47.0889 405.029 47.3433 405.029 47.6187C405.029 47.9745 404.947 48.3054 404.782 48.6114C404.618 48.9174 404.373 49.1833 404.048 49.409C403.723 49.6309 403.317 49.8049 402.831 49.9311C402.349 50.0574 401.791 50.1205 401.156 50.1205C400.766 50.1205 400.389 50.0956 400.025 50.0459C399.662 50 399.316 49.9369 398.987 49.8565C398.658 49.7724 398.348 49.6748 398.057 49.5639C397.77 49.453 397.508 49.3344 397.271 49.2082L398.006 47.9228ZM407.582 44.503H405.947V43.2292H407.582V41.1233H409.281V43.2292H410.916V44.503H409.281V50H407.582V44.503ZM412.425 43.2292H414.124V44.2046C414.498 43.9254 414.894 43.6844 415.311 43.4816C415.728 43.2789 416.143 43.124 416.557 43.0168L417.056 44.5718C416.402 44.6369 415.826 44.7842 415.329 45.0137C414.835 45.2394 414.433 45.5588 414.124 45.9719V50H412.425V43.2292ZM419.219 42.3053C419.051 42.3053 418.898 42.2824 418.76 42.2365C418.626 42.1867 418.511 42.1217 418.416 42.0414C418.32 41.9572 418.245 41.8616 418.192 41.7545C418.142 41.6435 418.117 41.5269 418.117 41.4045C418.117 41.2782 418.142 41.1616 418.192 41.0544C418.245 40.9435 418.32 40.8479 418.416 40.7675C418.511 40.6872 418.626 40.6241 418.76 40.5782C418.898 40.5285 419.051 40.5036 419.219 40.5036C419.391 40.5036 419.544 40.5285 419.678 40.5782C419.816 40.6241 419.932 40.6872 420.028 40.7675C420.124 40.8479 420.196 40.9435 420.246 41.0544C420.3 41.1616 420.326 41.2782 420.326 41.4045C420.326 41.5269 420.3 41.6435 420.246 41.7545C420.196 41.8616 420.124 41.9572 420.028 42.0414C419.932 42.1217 419.816 42.1867 419.678 42.2365C419.544 42.2824 419.391 42.3053 419.219 42.3053ZM418.37 43.2292H420.068V50H418.37V43.2292ZM421.927 46.5916C421.927 46.1326 422.021 45.6946 422.208 45.2776C422.396 44.8568 422.666 44.4858 423.018 44.1644C423.369 43.8431 423.8 43.5868 424.309 43.3956C424.821 43.2043 425.403 43.1087 426.053 43.1087C426.699 43.1087 427.281 43.2062 427.797 43.4013C428.318 43.5926 428.757 43.8565 429.117 44.1931C429.48 44.5298 429.758 44.9257 429.949 45.3809C430.144 45.8361 430.242 46.3238 430.242 46.8441C430.242 46.9091 430.24 46.9799 430.236 47.0564C430.236 47.1291 430.232 47.196 430.224 47.2572H423.821C423.894 47.46 424.01 47.6455 424.171 47.8138C424.335 47.9821 424.54 48.1275 424.785 48.2499C425.03 48.3723 425.313 48.468 425.634 48.5368C425.955 48.6018 426.311 48.6344 426.701 48.6344C427.092 48.6344 427.48 48.5942 427.866 48.5139C428.253 48.4297 428.622 48.3245 428.974 48.1983L429.547 49.4951C429.326 49.5983 429.1 49.6901 428.87 49.7705C428.645 49.847 428.407 49.912 428.159 49.9656C427.914 50.0153 427.656 50.0536 427.384 50.0803C427.116 50.1071 426.833 50.1205 426.535 50.1205C425.774 50.1205 425.106 50.0287 424.532 49.8451C423.959 49.6615 423.478 49.4109 423.092 49.0934C422.706 48.7759 422.415 48.4029 422.22 47.9745C422.025 47.546 421.927 47.0851 421.927 46.5916ZM428.44 45.9318C428.379 45.7443 428.283 45.5703 428.153 45.4096C428.027 45.2451 427.868 45.1036 427.677 44.985C427.486 44.8626 427.264 44.7669 427.011 44.6981C426.759 44.6292 426.481 44.5948 426.179 44.5948C425.858 44.5948 425.565 44.6311 425.301 44.7038C425.037 44.7765 424.806 44.874 424.607 44.9965C424.408 45.1189 424.242 45.2604 424.108 45.4211C423.978 45.5817 423.882 45.752 423.821 45.9318H428.44ZM432.342 47.9228C432.801 48.1983 433.306 48.401 433.857 48.5311C434.407 48.6611 434.972 48.7262 435.549 48.7262C435.94 48.7262 436.265 48.6994 436.525 48.6458C436.785 48.5923 436.993 48.5234 437.15 48.4393C437.307 48.3551 437.418 48.2595 437.483 48.1524C437.548 48.0453 437.581 47.9362 437.581 47.8253C437.581 47.6646 437.51 47.5269 437.368 47.4122C437.231 47.2974 437.001 47.24 436.68 47.24C436.531 47.24 436.37 47.2496 436.198 47.2687C436.026 47.2878 435.844 47.3089 435.653 47.3318C435.465 47.351 435.268 47.3701 435.062 47.3892C434.859 47.4083 434.652 47.4179 434.442 47.4179C433.983 47.4179 433.591 47.3682 433.266 47.2687C432.944 47.1692 432.682 47.0334 432.479 46.8613C432.277 46.6892 432.129 46.4864 432.038 46.2531C431.946 46.0159 431.9 45.7615 431.9 45.4899C431.9 45.1456 431.98 44.8281 432.141 44.5374C432.302 44.2467 432.531 43.9961 432.83 43.7857C433.128 43.5715 433.487 43.4051 433.908 43.2865C434.333 43.1679 434.805 43.1087 435.326 43.1087C435.597 43.1087 435.88 43.1259 436.175 43.1603C436.473 43.1909 436.766 43.233 437.053 43.2865C437.34 43.3401 437.615 43.4032 437.879 43.4759C438.143 43.5447 438.376 43.6193 438.579 43.6997L438.045 45.0194C437.613 44.8587 437.181 44.7325 436.749 44.6407C436.32 44.5451 435.878 44.4973 435.423 44.4973C435.106 44.4973 434.836 44.5221 434.614 44.5718C434.396 44.6177 434.218 44.6809 434.08 44.7612C433.943 44.8377 433.841 44.9276 433.776 45.0309C433.715 45.1303 433.684 45.2355 433.684 45.3465C433.684 45.4268 433.7 45.4995 433.73 45.5645C433.765 45.6296 433.818 45.6869 433.891 45.7367C433.968 45.7826 434.065 45.8189 434.184 45.8457C434.306 45.8686 434.455 45.8801 434.631 45.8801C434.792 45.8801 434.962 45.8705 435.142 45.8514C435.322 45.8323 435.509 45.8132 435.704 45.794C435.899 45.7711 436.1 45.75 436.307 45.7309C436.517 45.7118 436.731 45.7022 436.949 45.7022C437.355 45.7022 437.709 45.75 438.011 45.8457C438.317 45.9413 438.569 46.0752 438.768 46.2473C438.967 46.4195 439.116 46.6222 439.216 46.8556C439.315 47.0889 439.365 47.3433 439.365 47.6187C439.365 47.9745 439.283 48.3054 439.118 48.6114C438.954 48.9174 438.709 49.1833 438.384 49.409C438.059 49.6309 437.653 49.8049 437.167 49.9311C436.685 50.0574 436.127 50.1205 435.492 50.1205C435.102 50.1205 434.725 50.0956 434.362 50.0459C433.998 50 433.652 49.9369 433.323 49.8565C432.994 49.7724 432.684 49.6748 432.393 49.5639C432.107 49.453 431.844 49.3344 431.607 49.2082L432.342 47.9228Z" fill="#4D4D4D"/>
</svg>
