<svg width="24" height="21" viewBox="0 0 24 21" fill="none" xmlns="http://www.w3.org/2000/svg">
<path d="M23.9912 3.26213C23.1082 3.65413 22.1592 3.91812 21.1632 4.03712C22.1802 3.42812 22.9612 2.46313 23.3282 1.31313C22.3772 1.87713 21.3232 2.28713 20.2012 2.50813C19.3042 1.55113 18.0232 0.953125 16.6072 0.953125C13.4282 0.953125 11.0922 3.91913 11.8102 6.99813C7.71921 6.79313 4.09121 4.83313 1.66221 1.85413C0.372211 4.06713 0.993211 6.96212 3.18521 8.42812C2.37921 8.40212 1.61921 8.18113 0.956211 7.81213C0.902211 10.0931 2.53721 12.2271 4.90521 12.7021C4.21221 12.8901 3.45321 12.9341 2.68121 12.7861C3.30721 14.7421 5.12521 16.1651 7.28121 16.2051C5.21121 17.8281 2.60321 18.5531 -0.00878906 18.2451C2.17021 19.6421 4.75921 20.4571 7.53921 20.4571C16.6812 20.4571 21.8462 12.7361 21.5342 5.81112C22.4962 5.11612 23.3312 4.24913 23.9912 3.26213Z" fill="black"/>
</svg>
