<svg width="25" height="21" viewBox="0 0 25 21" fill="none" xmlns="http://www.w3.org/2000/svg">
<path fill-rule="evenodd" clip-rule="evenodd" d="M19.1461 20.7323C19.4681 20.9603 19.8831 21.0173 20.2531 20.8773C20.6231 20.7363 20.8951 20.4203 20.9771 20.0373C21.8461 15.9533 23.9541 5.61627 24.7451 1.90127C24.8051 1.62127 24.7051 1.33027 24.4851 1.14327C24.2651 0.956273 23.9601 0.902273 23.6881 1.00327C19.4951 2.55527 6.58212 7.40027 1.30412 9.35327C0.969117 9.47727 0.751117 9.79927 0.762117 10.1523C0.774117 10.5063 1.01212 10.8133 1.35512 10.9163C3.72212 11.6243 6.82912 12.6093 6.82912 12.6093C6.82912 12.6093 8.28112 16.9943 9.03812 19.2243C9.13312 19.5043 9.35212 19.7243 9.64112 19.8003C9.92912 19.8753 10.2371 19.7963 10.4521 19.5933C11.6681 18.4453 13.5481 16.6703 13.5481 16.6703C13.5481 16.6703 17.1201 19.2893 19.1461 20.7323ZM8.13612 12.0553L9.81512 17.5933L10.1881 14.0863C10.1881 14.0863 16.6751 8.23527 20.3731 4.90027C20.4811 4.80227 20.4961 4.63827 20.4061 4.52327C20.3171 4.40827 20.1531 4.38127 20.0301 4.45927C15.7441 7.19627 8.13612 12.0553 8.13612 12.0553Z" fill="black"/>
</svg>
